<?xml version="1.0" standalone="yes"?>
<!DOCTYPE svg PUBLIC "-//W3C//DTD SVG 1.1//EN"
 "http://www.w3.org/Graphics/SVG/1.1/DTD/svg11.dtd">
<svg xmlns="http://www.w3.org/2000/svg" version="1.1"
  width="100%" height="100%" viewBox="0 0 1024 768"
  style="fill: none; font-family: Helvetica;
 font: Helvetica;
">

<!-- Creator: NGspice -->

<rect x="0" y="0" width="1024" height="768" fill="black" stroke="none"/>
<text stroke="none" fill="white" font-size="16" x="358" y="752">
time
</text>
<text stroke="none" fill="white" font-size="16" x="10" y="16">
tran1: **.subckt axon_hillock
</text>
<path stroke="white" stroke-dasharray="1,2" d="M50 720l0 -672"/>
<text stroke="none" fill="white" font-size="16" x="25" y="728">
1.715
</text>
<path stroke="white" stroke-dasharray="1,2" d="M182 720l0 -672"/>
<text stroke="none" fill="white" font-size="16" x="157" y="728">
1.720
</text>
<path stroke="white" stroke-dasharray="1,2" d="M314 720l0 -672"/>
<text stroke="none" fill="white" font-size="16" x="289" y="728">
1.725
</text>
<path stroke="white" stroke-dasharray="1,2" d="M446 720l0 -672"/>
<text stroke="none" fill="white" font-size="16" x="421" y="728">
1.730
</text>
<path stroke="white" stroke-dasharray="1,2" d="M578 720l0 -672"/>
<text stroke="none" fill="white" font-size="16" x="553" y="728">
1.735
</text>
<path stroke="white" stroke-dasharray="1,2" d="M710 720l0 -672"/>
<text stroke="none" fill="white" font-size="16" x="685" y="728">
1.740
</text>
<path stroke="white" stroke-dasharray="1,2" d="M842 720l0 -672"/>
<text stroke="none" fill="white" font-size="16" x="817" y="728">
1.745
</text>
<path stroke="white" stroke-dasharray="1,2" d="M974 720l0 -672"/>
<text stroke="none" fill="white" font-size="16" x="949" y="728">
1.750
</text>
<text stroke="none" fill="white" font-size="16" x="614" y="752">
ms
</text>
<path stroke="white" stroke-dasharray="1,2" d="M50 720l924 0"/>
<text stroke="none" fill="white" font-size="16" x="8" y="728">
-0.4
</text>
<path stroke="white" stroke-dasharray="1,2" d="M50 664l924 0"/>
<text stroke="none" fill="white" font-size="16" x="8" y="672">
-0.2
</text>
<path stroke="white" d="M50 608l924 0"/>
<text stroke="none" fill="white" font-size="16" x="18" y="616">
0.0
</text>
<path stroke="white" stroke-dasharray="1,2" d="M50 552l924 0"/>
<text stroke="none" fill="white" font-size="16" x="18" y="560">
0.2
</text>
<path stroke="white" stroke-dasharray="1,2" d="M50 496l924 0"/>
<text stroke="none" fill="white" font-size="16" x="18" y="504">
0.4
</text>
<path stroke="white" stroke-dasharray="1,2" d="M50 440l924 0"/>
<text stroke="none" fill="white" font-size="16" x="18" y="448">
0.6
</text>
<path stroke="white" stroke-dasharray="1,2" d="M50 384l924 0"/>
<text stroke="none" fill="white" font-size="16" x="18" y="392">
0.8
</text>
<path stroke="white" stroke-dasharray="1,2" d="M50 328l924 0"/>
<text stroke="none" fill="white" font-size="16" x="18" y="336">
1.0
</text>
<path stroke="white" stroke-dasharray="1,2" d="M50 272l924 0"/>
<text stroke="none" fill="white" font-size="16" x="18" y="280">
1.2
</text>
<path stroke="white" stroke-dasharray="1,2" d="M50 216l924 0"/>
<text stroke="none" fill="white" font-size="16" x="18" y="224">
1.4
</text>
<path stroke="white" stroke-dasharray="1,2" d="M50 160l924 0"/>
<text stroke="none" fill="white" font-size="16" x="18" y="168">
1.6
</text>
<path stroke="white" stroke-dasharray="1,2" d="M50 104l924 0"/>
<text stroke="none" fill="white" font-size="16" x="18" y="112">
1.8
</text>
<path stroke="white" stroke-dasharray="1,2" d="M50 48l924 0"/>
<text stroke="none" fill="white" font-size="16" x="18" y="56">
2.0
</text>
<text stroke="none" fill="white" font-size="16" x="10" y="32">
V
</text>
<path stroke="red" d="M462 23l46 0"/>
<text stroke="none" fill="white" font-size="16" x="518" y="32">
mem
</text>
<path stroke="red" d="M50 375l0 -124 0 -14 0 20 0 35 0 57 0 122 0 107 1 21 0 2 0 -1 1 0 0 -1 1 0 0 -1 1 0 0 -1 1 0 0 -1 1 0 0 -1 1 -1 1 -1 1 -1 0 -1 1 0 0 -1 1 0 0 -1 1 0 0 -1 1 0 0 -1 1 0 0 -1 1 -1 0 -1 1 0 0 -1 1 0 0 -1 1 0 0 -1 1 0 0 -1 1 0"/>
<path stroke="red" d="M70 580l0 -1 1 -1 1 -1 1 -1 0 -1 1 0 0 -1 1 0 0 -1 1 0 0 -1 1 0 0 -1 1 0 0 -1 1 -1 1 -1 0 -1 1 0 1 -1 0 -1 1 0 0 -1 1 0 0 -1 1 0 0 -1 1 -1 1 0 0 -1 1 -1 1 -1 0 -1 1 0 0 -1 1 0 0 -1 1 0 0 -1 1 0 0 -1 1 0 0 -1 1 -1 1 0 0 -1"/>
<path stroke="red" d="M96 550l1 -1 0 -1 1 0 0 -1 1 0 0 -1 1 0 0 -1 1 0 0 -1 1 0 0 -1 1 0 0 -1 1 -1 1 -1 1 -1 0 -1 1 0 0 -1 1 0 0 -1 1 0 0 -1 1 0 0 -1 1 0 0 -1 1 0 0 -1 1 -1 1 -1 1 -1 1 -1 0 -1 1 0 0 -1 1 0 0 -1 1 0 0 -1 1 0 0 -1 1 0 0 -1 1 0"/>
<path stroke="red" d="M122 522l0 -1 1 -1 1 0 0 -1 1 -1 0 -1 1 0 0 -1 1 0 0 -1 1 0 0 -1 1 0 0 -1 1 0 0 -1 1 0 0 -1 1 0 0 -1 1 -1 1 0 0 -1 1 -1 0 -1 1 0 0 -1 1 0 0 -1 1 0 0 -1 1 0 0 -1 1 0 0 -1 1 0 0 -1 1 0 0 -1 1 0 0 -1 1 0 0 -1 1 -1 1 -1 0 -1"/>
<path stroke="red" d="M146 494l1 0 1 -1 0 -1 1 0 0 -1 1 0 0 -1 1 0 0 -1 1 0 0 -1 1 0 0 -1 1 0 0 -1 1 0 0 -1 1 -1 1 0 0 -1 1 -1 1 -1 0 -1 1 0 0 -1 1 0 0 -1 1 0 0 -1 1 0 0 -1 1 0 0 -1 1 0 0 -1 1 0 0 -1 1 0 0 -1 1 0 0 -1 1 -1 1 -1 1 -1 1 -1 1 -1"/>
<path stroke="red" d="M173 466l0 -1 1 0 0 -1 1 0 0 -1 1 0 0 -1 1 0 0 -1 1 0 0 -1 1 0 0 -1 1 0 0 -1 1 0 0 -1 1 0 0 -1 1 0 0 -1 1 -1 1 -1 1 -1 1 -1 0 -1 1 0 0 -1 1 0 1 -1 0 -1 1 0 0 -1 1 0 0 -1 1 0 0 -1 1 0 0 -1 1 0 0 -1 1 0 0 -1 1 0 0 -1 1 0 0 -1"/>
<path stroke="red" d="M198 439l1 -1 1 0 0 -1 1 0 0 -1 1 -1 1 -1 0 -1 1 0 1 -1 1 -1 0 -1 1 0 0 -1 1 0 0 -1 1 0 0 -1 1 0 0 -1 1 0 0 -1 1 0 0 -1 1 0 0 -1 1 0 0 -1 1 0 0 -1 1 0 0 -1 1 0 0 -1 1 0 0 -1 1 0 0 -1 1 0 0 -1 1 -1 1 -1 1 0 0 -1 1 -1 1 -1"/>
<path stroke="red" d="M225 411l1 -1 0 -1 1 0 1 -1 1 -1 0 -1 1 0 0 -1 1 0 0 -1 1 0 0 -1 1 0 0 -1 1 0 0 -1 1 0 0 -1 1 0 0 -1 1 0 0 -1 1 0 0 -1 1 0 0 -1 1 0 0 -1 1 0 0 -1 1 0 0 -1 1 0 0 -1 1 0 0 -1 1 0 0 -1 1 0 0 -1 1 0 0 -1 1 0 0 -1 1 0 0 -1 1 -1"/>
<path stroke="red" d="M250 385l1 -1 1 0 0 -1 1 -1 1 -1 1 -1 1 -1 1 -1 0 -1 1 0 0 -1 1 -1 0 -1 0 -123 0 -13 1 98 0 216 0 68 0 -23 0 8 0 -1 1 0 0 -1 1 0 0 -1 1 0 0 -1 1 0 0 -1 1 -1 1 0 0 -1 1 -1 0 -1 1 0 0 -1 1 0 0 -1 1 0 0 -1 1 0 0 -1 1 0 0 -1"/>
<path stroke="red" d="M272 591l1 -1 1 -1 0 -1 1 0 0 -1 1 0 0 -1 1 0 0 -1 1 0 0 -1 1 0 0 -1 1 -1 1 -1 1 -1 0 -1 1 0 0 -1 1 0 0 -1 1 0 0 -1 1 0 0 -1 1 0 0 -1 1 -1 0 -1 1 0 0 -1 1 0 0 -1 1 0 0 -1 1 0 0 -1 1 0 0 -1 1 -1 1 0 0 -1 1 -1 0 -1 1 0 0 -1"/>
<path stroke="red" d="M297 562l1 0 0 -1 1 0 0 -1 1 0 0 -1 1 0 0 -1 1 0 0 -1 1 -1 0 -1 1 0 1 -1 0 -1 1 0 0 -1 1 0 0 -1 1 0 0 -1 1 0 0 -1 1 0 0 -1 1 -1 1 -1 0 -1 1 0 0 -1 1 0 0 -1 1 0 0 -1 1 0 0 -1 1 0 0 -1 1 -1 1 0 0 -1 1 -1 1 -1 0 -1 1 0 0 -1"/>
<path stroke="red" d="M322 534l1 0 0 -1 1 0 0 -1 1 0 0 -1 1 0 0 -1 1 -1 1 0 0 -1 1 -1 1 -1 0 -1 1 0 0 -1 1 0 0 -1 1 0 0 -1 1 0 0 -1 1 0 0 -1 1 0 0 -1 1 -1 1 0 0 -1 1 -1 0 -1 1 0 0 -1 1 0 0 -1 1 0 0 -1 1 0 0 -1 1 0 0 -1 1 0 0 -1 1 0 0 -1 1 0 0 -1"/>
<path stroke="red" d="M347 507l1 -1 1 -1 0 -1 1 0 0 -1 1 0 0 -1 1 0 0 -1 1 0 0 -1 1 0 0 -1 1 0 0 -1 1 0 0 -1 1 0 0 -1 1 -1 1 -1 0 -1 1 0 1 -1 0 -1 1 0 0 -1 1 0 0 -1 1 0 0 -1 1 0 0 -1 1 0 0 -1 1 0 0 -1 1 0 0 -1 1 -1 1 -1 1 -1 1 -1 0 -1 1 0 0 -1"/>
<path stroke="red" d="M373 478l1 0 0 -1 1 0 0 -1 1 0 0 -1 1 0 0 -1 1 0 0 -1 1 0 0 -1 1 0 0 -1 1 0 0 -1 1 -1 1 -1 0 -1 1 0 1 -1 0 -1 1 0 0 -1 1 0 0 -1 1 0 0 -1 1 0 0 -1 1 0 0 -1 1 0 0 -1 1 0 0 -1 1 0 0 -1 1 0 0 -1 1 0 0 -1 1 -1 1 -1 0 -1 1 0 1 -1"/>
<path stroke="red" d="M399 451l0 -1 1 0 0 -1 1 0 0 -1 1 0 0 -1 1 0 0 -1 1 0 0 -1 1 0 0 -1 1 0 0 -1 1 0 0 -1 1 0 0 -1 1 0 0 -1 1 0 0 -1 1 -1 1 -1 1 -1 1 -1 1 -1 0 -1 1 0 0 -1 1 0 0 -1 1 0 0 -1 1 0 0 -1 1 0 0 -1 1 0 0 -1 1 0 0 -1 1 0 0 -1 1 0 0 -1"/>
<path stroke="red" d="M424 424l1 0 0 -1 1 0 0 -1 1 0 0 -1 1 0 0 -1 1 0 0 -1 1 -1 1 -1 1 -1 1 -1 1 -1 0 -1 1 0 0 -1 1 0 0 -1 1 0 0 -1 1 0 0 -1 1 0 0 -1 1 0 0 -1 1 0 0 -1 1 0 0 -1 1 0 0 -1 1 0 0 -1 1 0 0 -1 1 0 0 -1 1 0 0 -1 1 0 0 -1 1 0 0 -1 1 -1"/>
<path stroke="red" d="M450 397l1 0 0 -1 1 0 0 -1 1 -1 1 -1 1 -1 1 -1 1 -1 1 -1 0 -1 1 0 1 -1 1 -1 0 -1 1 0 0 -1 1 0 0 -1 1 0 0 -1 1 0 0 -1 1 0 0 -1 1 0 0 -1 1 0 0 -1 1 0 0 -1 1 0 0 -1 0 -1 1 -1 0 -123 0 -20 0 120 0 201 1 76 0 -28 0 13 0 -2 0 -1"/>
<path stroke="red" d="M472 610l1 0 0 -1 1 0 0 -1 1 0 0 -1 1 -1 0 -1 1 0 0 -1 1 0 0 -1 1 0 0 -1 1 0 0 -1 1 0 0 -1 1 -1 0 -1 1 0 0 -1 1 0 0 -1 1 0 0 -1 1 0 0 -1 1 0 0 -1 1 0 0 -1 1 -1 0 -1 1 0 0 -1 1 0 0 -1 1 0 0 -1 1 0 0 -1 1 0 0 -1 1 -1 1 -1"/>
<path stroke="red" d="M496 583l0 -1 1 0 0 -1 1 0 0 -1 1 0 0 -1 1 0 0 -1 1 -1 1 0 0 -1 1 -1 0 -1 1 0 0 -1 1 0 0 -1 1 0 0 -1 1 0 0 -1 1 0 0 -1 1 -1 1 -1 0 -1 1 0 0 -1 1 0 0 -1 1 0 0 -1 1 0 0 -1 1 0 0 -1 1 -1 1 -1 1 -1 0 -1 1 0 0 -1 1 0 0 -1 1 0"/>
<path stroke="red" d="M521 555l0 -1 1 0 0 -1 1 0 0 -1 1 -1 1 -1 1 -1 0 -1 1 0 0 -1 1 0 0 -1 1 0 0 -1 1 0 0 -1 1 0 0 -1 1 0 0 -1 1 -1 0 -1 1 0 1 -1 0 -1 1 0 0 -1 1 0 0 -1 1 0 0 -1 1 0 0 -1 1 0 0 -1 1 -1 1 -1 0 -1 1 0 0 -1 1 0 0 -1 1 0 0 -1 1 0"/>
<path stroke="red" d="M546 527l0 -1 1 0 0 -1 1 0 0 -1 1 -1 1 -1 1 -1 0 -1 1 0 0 -1 1 0 0 -1 1 0 0 -1 1 0 0 -1 1 0 0 -1 1 0 0 -1 1 -1 1 0 0 -1 1 -1 1 -1 0 -1 1 0 0 -1 1 0 0 -1 1 0 0 -1 1 0 0 -1 1 0 0 -1 1 0 0 -1 1 0 0 -1 1 -1 1 -1 0 -1 1 0 0 -1"/>
<path stroke="red" d="M571 498l1 0 0 -1 1 0 0 -1 1 0 0 -1 1 0 0 -1 1 0 0 -1 1 0 0 -1 1 0 0 -1 1 -1 1 -1 0 -1 1 0 0 -1 1 0 0 -1 1 0 0 -1 1 0 0 -1 1 0 0 -1 1 0 0 -1 1 0 0 -1 1 0 0 -1 1 0 0 -1 1 -1 1 -1 1 -1 1 -1 0 -1 1 0 0 -1 1 0 0 -1 1 0 0 -1"/>
<path stroke="red" d="M596 471l1 0 0 -1 1 0 0 -1 1 0 0 -1 1 0 0 -1 1 0 0 -1 1 0 0 -1 1 -1 1 -1 0 -1 1 0 1 -1 0 -1 1 0 0 -1 1 0 0 -1 1 0 0 -1 1 0 0 -1 1 0 0 -1 1 0 0 -1 1 0 0 -1 1 -1 1 -1 1 -1 1 -1 1 -1 0 -1 1 0 1 -1 0 -1 1 0 0 -1 1 0 0 -1 1 0"/>
<path stroke="red" d="M623 443l0 -1 1 0 0 -1 1 0 0 -1 1 0 0 -1 1 0 0 -1 1 0 0 -1 1 -1 1 0 0 -1 1 -1 1 -1 0 -1 1 0 1 -1 1 -1 0 -1 1 0 0 -1 1 0 0 -1 1 0 0 -1 1 0 0 -1 1 0 0 -1 1 0 0 -1 1 0 0 -1 1 0 0 -1 1 0 0 -1 1 0 0 -1 1 0 0 -1 1 -1 1 -1 1 -1"/>
<path stroke="red" d="M649 415l1 -1 1 -1 0 -1 1 0 1 -1 0 -1 1 0 0 -1 1 0 0 -1 1 0 0 -1 1 0 0 -1 1 0 0 -1 1 0 0 -1 1 0 0 -1 1 0 0 -1 1 0 0 -1 1 0 0 -1 1 0 0 -1 1 0 0 -1 1 0 0 -1 1 0 0 -1 1 0 0 -1 1 0 0 -1 1 -1 1 -1 1 -1 1 -1 1 -1 0 -1 1 0 0 -1"/>
<path stroke="red" d="M675 387l1 0 1 -1 0 -1 1 0 0 -1 1 0 0 -1 1 0 0 -1 1 0 0 -1 1 0 0 -1 1 0 0 -1 1 0 0 -1 1 0 0 -1 1 0 0 -1 0 -1 1 -1 0 -1 0 -58 0 -72 0 -39 0 -2 0 35 0 48 0 57 0 131 0 118 0 4 0 2 1 0 0 -1 1 -1 1 -1 1 -1 0 -1 1 0 0 -1 1 0 0 -1"/>
<path stroke="red" d="M693 590l1 0 0 -1 1 0 0 -1 1 -1 1 -1 0 -1 1 0 0 -1 1 0 0 -1 1 0 0 -1 1 0 0 -1 1 0 0 -1 1 -1 1 -1 0 -1 1 0 0 -1 1 0 0 -1 1 0 0 -1 1 0 0 -1 1 0 0 -1 1 -1 1 -1 0 -1 1 0 0 -1 1 0 0 -1 1 0 0 -1 1 0 0 -1 1 0 0 -1 1 -1 1 -1 1 -1"/>
<path stroke="red" d="M719 561l0 -1 1 0 0 -1 1 0 0 -1 1 0 0 -1 1 0 0 -1 1 0 0 -1 1 -1 0 -1 1 0 0 -1 1 0 0 -1 1 0 0 -1 1 0 0 -1 1 0 0 -1 1 -1 1 -1 1 -1 0 -1 1 0 0 -1 1 0 0 -1 1 0 0 -1 1 0 0 -1 1 0 0 -1 1 0 0 -1 1 -1 0 -1 1 0 1 -1 0 -1 1 0 0 -1"/>
<path stroke="red" d="M743 533l1 0 0 -1 1 0 0 -1 1 0 0 -1 1 0 0 -1 1 -1 1 -1 0 -1 1 0 1 -1 0 -1 1 0 0 -1 1 0 0 -1 1 0 0 -1 1 0 0 -1 1 0 0 -1 1 -1 1 -1 0 -1 1 0 0 -1 1 0 0 -1 1 0 0 -1 1 0 0 -1 1 0 0 -1 1 0 0 -1 1 -1 1 -1 1 -1 0 -1 1 0 0 -1 1 0"/>
<path stroke="red" d="M769 505l0 -1 1 0 0 -1 1 0 0 -1 1 0 0 -1 1 0 0 -1 1 -1 1 0 0 -1 1 -1 1 -1 0 -1 1 0 0 -1 1 0 0 -1 1 0 0 -1 1 0 0 -1 1 0 0 -1 1 0 0 -1 1 0 0 -1 1 0 0 -1 1 -1 1 -1 0 -1 1 0 1 -1 0 -1 1 0 0 -1 1 0 0 -1 1 0 0 -1 1 0 0 -1 1 0"/>
<path stroke="red" d="M794 478l0 -1 1 0 0 -1 1 -1 1 -1 0 -1 1 0 1 -1 0 -1 1 0 0 -1 1 0 0 -1 1 0 0 -1 1 0 0 -1 1 0 0 -1 1 0 0 -1 1 0 0 -1 1 -1 1 0 0 -1 1 -1 1 -1 0 -1 1 0 0 -1 1 0 0 -1 1 0 0 -1 1 0 0 -1 1 0 0 -1 1 0 0 -1 1 0 0 -1 1 0 0 -1 1 0"/>
<path stroke="red" d="M819 451l0 -1 1 -1 1 -1 1 -1 1 -1 0 -1 1 0 0 -1 1 0 0 -1 1 0 0 -1 1 0 0 -1 1 0 0 -1 1 0 0 -1 1 0 0 -1 1 0 0 -1 1 0 0 -1 1 0 0 -1 1 -1 1 -1 1 -1 1 -1 1 -1 0 -1 1 0 0 -1 1 0 0 -1 1 0 0 -1 1 0 0 -1 1 0 0 -1 1 0 0 -1 1 0 0 -1"/>
<path stroke="red" d="M845 422l1 0 0 -1 1 0 0 -1 1 0 0 -1 1 -1 1 0 0 -1 1 0 0 -1 1 -1 1 -1 0 -1 1 0 1 -1 1 -1 0 -1 1 0 0 -1 1 0 0 -1 1 0 0 -1 1 0 0 -1 1 0 0 -1 1 0 0 -1 1 0 0 -1 1 0 0 -1 1 0 0 -1 1 0 0 -1 1 0 0 -1 1 0 0 -1 1 -1 1 0 0 -1 1 -1"/>
<path stroke="red" d="M871 395l1 -1 1 -1 0 -1 1 0 1 -1 1 -1 0 -1 1 0 0 -1 1 0 1 -1 0 -1 1 0 0 -1 1 0 0 -1 1 0 0 -1 1 0 0 -1 1 0 0 -1 1 0 0 -1 1 0 0 -1 1 0 0 -1 1 -1 1 -1 0 -1 0 -1 1 -2 0 -1 0 -24 0 -38 0 -44 0 -55 0 -11 0 34 0 54 0 58 0 147 0 96"/>
<path stroke="red" d="M890 588l0 10 0 2 1 0 0 -1 1 0 0 -1 1 0 0 -1 1 -1 0 -1 1 0 0 -1 1 0 0 -1 1 0 0 -1 1 0 0 -1 1 0 0 -1 1 -1 0 -1 1 0 0 -1 1 0 0 -1 1 0 0 -1 1 0 0 -1 1 0 0 -1 1 -1 1 -1 1 -1 0 -1 1 0 0 -1 1 0 0 -1 1 0 0 -1 1 0 0 -1 1 -1 1 -1"/>
<path stroke="red" d="M914 573l0 -1 1 0 0 -1 1 0 0 -1 1 0 0 -1 1 0 0 -1 1 -1 1 -1 1 -1 0 -1 1 0 0 -1 1 0 0 -1 1 0 0 -1 1 0 0 -1 1 0 0 -1 1 -1 1 -1 0 -1 1 0 0 -1 1 0 0 -1 1 0 0 -1 1 0 0 -1 1 0 0 -1 1 -1 0 -1 1 0 1 -1 0 -1 1 0 0 -1 1 0 0 -1 1 0"/>
<path stroke="red" d="M939 545l0 -1 1 0 0 -1 1 0 0 -1 1 -1 0 -1 1 0 0 -1 1 0 0 -1 1 0 0 -1 1 0 0 -1 1 0 0 -1 1 0 0 -1 1 -1 1 -1 1 -1 0 -1 1 0 0 -1 1 0 0 -1 1 0 0 -1 1 0 0 -1 1 0 0 -1 1 -1 1 -1 1 -1 0 -1 1 0 0 -1 1 0 0 -1 1 0 0 -1 1 0 0 -1 1 0"/>
<path stroke="red" d="M964 517l0 -1 1 0 0 -1 1 -1 0 -1 1 0 0 -1 1 0 0 -1 1 0 0 -1 1 0 0 -1 1 0 0 -1 1 0 0 -1 1 0 0 -1 1 0 0 -1"/>
<path stroke="blue" d="M50 23l46 0"/>
<text stroke="none" fill="white" font-size="16" x="106" y="32">
out
</text>
<path stroke="blue" d="M50 605l0 -290 0 -186 0 10 0 12 0 6 0 196 0 208 1 42 0 4 0 1 1 0 1 0 1 0 1 0 1 0 1 0 1 0 1 0 1 0 1 0 1 0 1 0 1 0 1 0 1 0 1 0 1 0 1 0 1 0 1 0 1 0 1 0 1 0 1 0 1 0 1 0 1 0 1 0 1 0 1 0 1 0 1 0 1 0 1 0 1 0 1 0 1 0 1 0 1 0 1 0"/>
<path stroke="blue" d="M91 608l1 0 1 0 1 0 1 0 1 0 1 0 1 0 1 0 1 0 1 0 1 0 1 0 1 0 1 0 1 0 1 0 1 0 1 0 1 0 1 0 1 0 1 0 1 0 1 0 1 0 1 0 1 0 1 0 1 0 1 0 1 0 1 0 1 0 1 0 1 0 1 0 1 0 1 0 1 0 1 0 1 0 1 0 1 0 1 0 1 0 1 0 1 0 1 0 1 0 1 0 1 0 1 0 1 0"/>
<path stroke="blue" d="M144 608l1 0 1 0 1 0 1 0 1 0 1 0 1 0 1 0 1 0 1 0 1 0 1 0 1 0 1 0 1 0 1 0 1 0 1 0 1 0 1 0 1 0 1 0 1 0 1 0 1 0 1 0 1 0 1 0 1 0 1 0 1 0 1 0 1 0 1 0 1 0 1 0 1 0 1 0 1 0 1 0 1 0 1 0 1 0 1 0 1 0 1 0 1 0 1 0 1 0 1 0 1 0 1 0 1 0"/>
<path stroke="blue" d="M197 608l1 0 1 0 1 0 1 0 1 0 1 0 1 0 1 0 1 0 1 0 1 0 1 0 1 0 1 0 1 0 1 0 1 0 1 0 1 0 1 0 1 0 1 0 1 0 1 0 1 0 1 0 1 0 1 0 1 0 1 0 1 0 1 0 1 0 1 0 1 0 1 0 1 0 1 0 1 0 1 0 1 0 1 0 1 0 1 0 1 0 1 0 1 0 1 0 1 0 1 0 1 0 1 0 1 0"/>
<path stroke="blue" d="M250 608l1 0 1 0 1 0 1 0 1 0 1 0 1 0 0 -1 1 0 0 -1 1 0 0 -2 0 -289 0 -186 1 35 0 338 0 136 0 -45 0 15 1 0 1 0 1 0 1 0 1 0 1 0 1 0 1 0 1 0 1 0 1 0 1 0 1 0 1 0 1 0 1 0 1 0 1 0 1 0 1 0 1 0 1 0 1 0 1 0 1 0 1 0 1 0 1 0 1 0 1 0"/>
<path stroke="blue" d="M290 608l1 0 1 0 1 0 1 0 1 0 1 0 1 0 1 0 1 0 1 0 1 0 1 0 1 0 1 0 1 0 1 0 1 0 1 0 1 0 1 0 1 0 1 0 1 0 1 0 1 0 1 0 1 0 1 0 1 0 1 0 1 0 1 0 1 0 1 0 1 0 1 0 1 0 1 0 1 0 1 0 1 0 1 0 1 0 1 0 1 0 1 0 1 0 1 0 1 0 1 0 1 0 1 0 1 0"/>
<path stroke="blue" d="M343 608l1 0 1 0 1 0 1 0 1 0 1 0 1 0 1 0 1 0 1 0 1 0 1 0 1 0 1 0 1 0 1 0 1 0 1 0 1 0 1 0 1 0 1 0 1 0 1 0 1 0 1 0 1 0 1 0 1 0 1 0 1 0 1 0 1 0 1 0 1 0 1 0 1 0 1 0 1 0 1 0 1 0 1 0 1 0 1 0 1 0 1 0 1 0 1 0 1 0 1 0 1 0 1 0 1 0"/>
<path stroke="blue" d="M396 608l1 0 1 0 1 0 1 0 1 0 1 0 1 0 1 0 1 0 1 0 1 0 1 0 1 0 1 0 1 0 1 0 1 0 1 0 1 0 1 0 1 0 1 0 1 0 1 0 1 0 1 0 1 0 1 0 1 0 1 0 1 0 1 0 1 0 1 0 1 0 1 0 1 0 1 0 1 0 1 0 1 0 1 0 1 0 1 0 1 0 1 0 1 0 1 0 1 0 1 0 1 0 1 0 1 0"/>
<path stroke="blue" d="M449 608l1 0 1 0 1 0 1 0 1 0 1 0 1 0 1 0 1 0 1 0 1 0 1 0 1 0 1 0 1 0 1 0 1 0 1 0 1 0 1 0 0 -1 1 0 0 -1 1 -2 0 -290 0 -179 0 35 0 320 1 152 0 -55 0 25 0 -3 0 -1 1 0 1 0 1 0 1 0 1 0 1 0 1 0 1 0 1 0 1 0 1 0 1 0 1 0 1 0 1 0"/>
<path stroke="blue" d="M487 608l1 0 1 0 1 0 1 0 1 0 1 0 1 0 1 0 1 0 1 0 1 0 1 0 1 0 1 0 1 0 1 0 1 0 1 0 1 0 1 0 1 0 1 0 1 0 1 0 1 0 1 0 1 0 1 0 1 0 1 0 1 0 1 0 1 0 1 0 1 0 1 0 1 0 1 0 1 0 1 0 1 0 1 0 1 0 1 0 1 0 1 0 1 0 1 0 1 0 1 0 1 0 1 0 1 0"/>
<path stroke="blue" d="M540 608l1 0 1 0 1 0 1 0 1 0 1 0 1 0 1 0 1 0 1 0 1 0 1 0 1 0 1 0 1 0 1 0 1 0 1 0 1 0 1 0 1 0 1 0 1 0 1 0 1 0 1 0 1 0 1 0 1 0 1 0 1 0 1 0 1 0 1 0 1 0 1 0 1 0 1 0 1 0 1 0 1 0 1 0 1 0 1 0 1 0 1 0 1 0 1 0 1 0 1 0 1 0 1 0 1 0"/>
<path stroke="blue" d="M593 608l1 0 1 0 1 0 1 0 1 0 1 0 1 0 1 0 1 0 1 0 1 0 1 0 1 0 1 0 1 0 1 0 1 0 1 0 1 0 1 0 1 0 1 0 1 0 1 0 1 0 1 0 1 0 1 0 1 0 1 0 1 0 1 0 1 0 1 0 1 0 1 0 1 0 1 0 1 0 1 0 1 0 1 0 1 0 1 0 1 0 1 0 1 0 1 0 1 0 1 0 1 0 1 0 1 0"/>
<path stroke="blue" d="M646 608l1 0 1 0 1 0 1 0 1 0 1 0 1 0 1 0 1 0 1 0 1 0 1 0 1 0 1 0 1 0 1 0 1 0 1 0 1 0 1 0 1 0 1 0 1 0 1 0 1 0 1 0 1 0 1 0 1 0 1 0 1 0 1 0 1 0 1 0 1 0 1 0 1 0 1 0 1 -1 1 0 0 -1 0 -1 1 -1 0 -2 0 -116 0 -152 0 -106 0 -48 0 -23"/>
<path stroke="blue" d="M687 157l0 -2 0 1 0 210 0 229 0 10 0 2 1 1 1 0 1 0 1 0 1 0 1 0 1 0 1 0 1 0 1 0 1 0 1 0 1 0 1 0 1 0 1 0 1 0 1 0 1 0 1 0 1 0 1 0 1 0 1 0 1 0 1 0 1 0 1 0 1 0 1 0 1 0 1 0 1 0 1 0 1 0 1 0 1 0 1 0 1 0 1 0 1 0 1 0 1 0 1 0 1 0"/>
<path stroke="blue" d="M732 608l1 0 1 0 1 0 1 0 1 0 1 0 1 0 1 0 1 0 1 0 1 0 1 0 1 0 1 0 1 0 1 0 1 0 1 0 1 0 1 0 1 0 1 0 1 0 1 0 1 0 1 0 1 0 1 0 1 0 1 0 1 0 1 0 1 0 1 0 1 0 1 0 1 0 1 0 1 0 1 0 1 0 1 0 1 0 1 0 1 0 1 0 1 0 1 0 1 0 1 0 1 0 1 0 1 0"/>
<path stroke="blue" d="M785 608l1 0 1 0 1 0 1 0 1 0 1 0 1 0 1 0 1 0 1 0 1 0 1 0 1 0 1 0 1 0 1 0 1 0 1 0 1 0 1 0 1 0 1 0 1 0 1 0 1 0 1 0 1 0 1 0 1 0 1 0 1 0 1 0 1 0 1 0 1 0 1 0 1 0 1 0 1 0 1 0 1 0 1 0 1 0 1 0 1 0 1 0 1 0 1 0 1 0 1 0 1 0 1 0 1 0"/>
<path stroke="blue" d="M838 608l1 0 1 0 1 0 1 0 1 0 1 0 1 0 1 0 1 0 1 0 1 0 1 0 1 0 1 0 1 0 1 0 1 0 1 0 1 0 1 0 1 0 1 0 1 0 1 0 1 0 1 0 1 0 1 0 1 0 1 0 1 0 1 0 1 0 1 0 1 0 1 0 1 0 1 0 1 0 1 0 1 0 1 0 1 0 1 0 1 0 1 0 1 0 1 0 1 0 1 -1 1 0 0 -1"/>
<path stroke="blue" d="M889 606l0 -1 0 -1 0 -1 1 -2 0 -2 0 -49 0 -77 0 -88 0 -131 0 -64 0 -35 0 1 0 238 0 190 0 20 0 3 0 1 1 0 1 0 1 0 1 0 1 0 1 0 1 0 1 0 1 0 1 0 1 0 1 0 1 0 1 0 1 0 1 0 1 0 1 0 1 0 1 0 1 0 1 0 1 0 1 0 1 0 1 0 1 0 1 0 1 0 1 0"/>
<path stroke="blue" d="M920 608l1 0 1 0 1 0 1 0 1 0 1 0 1 0 1 0 1 0 1 0 1 0 1 0 1 0 1 0 1 0 1 0 1 0 1 0 1 0 1 0 1 0 1 0 1 0 1 0 1 0 1 0 1 0 1 0 1 0 1 0 1 0 1 0 1 0 1 0 1 0 1 0 1 0 1 0 1 0 1 0 1 0 1 0 1 0 1 0 1 0 1 0 1 0 1 0 1 0 1 0 1 0 1 0 1 0"/>
<path stroke="blue" d="M973 608l1 0"/>
<path stroke="#FFA500" d="M462 39l46 0"/>
<text stroke="none" fill="white" font-size="16" x="518" y="48">
sens
</text>
<path stroke="#FFA500" d="M50 483l1 0 1 0 1 0 1 0 1 0 1 0 1 0 1 0 1 0 1 0 1 0 1 0 1 0 1 0 1 0 1 0 1 0 1 0 1 0 1 0 1 0 1 0 1 0 1 0 1 0 1 0 1 0 1 0 1 0 1 0 1 0 1 0 1 0 1 0 1 0 1 0 1 0 1 0 1 0 1 0 1 0 1 0 1 0 1 0 1 0 1 0 1 0 1 0 1 0 1 0 1 0 1 0"/>
<path stroke="#FFA500" d="M102 483l1 0 1 0 1 0 1 0 1 0 1 0 1 0 1 0 1 0 1 0 1 0 1 0 1 0 1 0 1 0 1 0 1 0 1 0 1 0 1 0 1 0 1 0 1 0 1 0 1 0 1 0 1 0 1 0 1 0 1 0 1 0 1 0 1 0 1 0 1 0 1 0 1 0 1 0 1 0 1 0 1 0 1 0 1 0 1 0 1 0 1 0 1 0 1 0 1 0 1 0 1 0 1 0"/>
<path stroke="#FFA500" d="M154 483l1 0 1 0 1 0 1 0 1 0 1 0 1 0 1 0 1 0 1 0 1 0 1 0 1 0 1 0 1 0 1 0 1 0 1 0 1 0 1 0 1 0 1 0 1 0 1 0 1 0 1 0 1 0 1 0 1 0 1 0 1 0 1 0 1 0 1 0 1 0 1 0 1 0 1 0 1 0 1 0 1 0 1 0 1 0 1 0 1 0 1 0 1 0 1 0 1 0 1 0 1 0 1 0"/>
<path stroke="#FFA500" d="M206 483l1 0 1 0 1 0 1 0 1 0 1 0 1 0 1 0 1 0 1 0 1 0 1 0 1 0 1 0 1 0 1 0 1 0 1 0 1 0 1 0 1 0 1 0 1 0 1 0 1 0 1 0 1 0 1 0 1 0 1 0 1 0 1 0 1 0 1 0 1 0 1 0 1 0 1 0 1 0 1 0 1 0 1 0 1 0 1 0 1 0 1 0 1 0 1 0 1 0 1 0 1 0 1 0"/>
<path stroke="#FFA500" d="M258 483l1 0 1 0 1 0 1 0 1 0 1 0 1 0 1 0 1 0 1 0 1 0 1 0 1 0 1 0 1 0 1 0 1 0 1 0 1 0 1 0 1 0 1 0 1 0 1 0 1 0 1 0 1 0 1 0 1 0 1 0 1 0 1 0 1 0 1 0 1 0 1 0 1 0 1 0 1 0 1 0 1 0 1 0 1 0 1 0 1 0 1 0 1 0 1 0 1 0 1 0 1 0 1 0"/>
<path stroke="#FFA500" d="M310 483l1 0 1 0 1 0 1 0 1 0 1 0 1 0 1 0 1 0 1 0 1 0 1 0 1 0 1 0 1 0 1 0 1 0 1 0 1 0 1 0 1 0 1 0 1 0 1 0 1 0 1 0 1 0 1 0 1 0 1 0 1 0 1 0 1 0 1 0 1 0 1 0 1 0 1 0 1 0 1 0 1 0 1 0 1 0 1 0 1 0 1 0 1 0 1 0 1 0 1 0 1 0 1 0"/>
<path stroke="#FFA500" d="M362 483l1 0 1 0 1 0 1 0 1 0 1 0 1 0 1 0 1 0 1 0 1 0 1 0 1 0 1 0 1 0 1 0 1 0 1 0 1 0 1 0 1 0 1 0 1 0 1 0 1 0 1 0 1 0 1 0 1 0 1 0 1 0 1 0 1 0 1 0 1 0 1 0 1 0 1 0 1 0 1 0 1 0 1 0 1 0 1 0 1 0 1 0 1 0 1 0 1 0 1 0 1 0 1 0"/>
<path stroke="#FFA500" d="M414 483l1 0 1 0 1 0 1 0 1 0 1 0 1 0 1 0 1 0 1 0 1 0 1 0 1 0 1 0 1 0 1 0 1 0 1 0 1 0 1 0 1 0 1 0 1 0 1 0 1 0 1 0 1 0 1 0 1 0 1 0 1 0 1 0 1 0 1 0 1 0 1 0 1 0 1 0 1 0 1 0 1 0 1 0 1 0 1 0 1 0 1 0 1 0 1 0 1 0 1 0 1 0 1 0"/>
<path stroke="#FFA500" d="M466 483l1 0 1 0 1 0 1 0 1 0 1 0 1 0 1 0 1 0 1 0 1 0 1 0 1 0 1 0 1 0 1 0 1 0 1 0 1 0 1 0 1 0 1 0 1 0 1 0 1 0 1 0 1 0 1 0 1 0 1 0 1 0 1 0 1 0 1 0 1 0 1 0 1 0 1 0 1 0 1 0 1 0 1 0 1 0 1 0 1 0 1 0 1 0 1 0 1 0 1 0 1 0 1 0"/>
<path stroke="#FFA500" d="M518 483l1 0 1 0 1 0 1 0 1 0 1 0 1 0 1 0 1 0 1 0 1 0 1 0 1 0 1 0 1 0 1 0 1 0 1 0 1 0 1 0 1 0 1 0 1 0 1 0 1 0 1 0 1 0 1 0 1 0 1 0 1 0 1 0 1 0 1 0 1 0 1 0 1 0 1 0 1 0 1 0 1 0 1 0 1 0 1 0 1 0 1 0 1 0 1 0 1 0 1 0 1 0 1 0"/>
<path stroke="#FFA500" d="M570 483l1 0 1 0 1 0 1 0 1 0 1 0 1 0 1 0 1 0 1 0 1 0 1 0 1 0 1 0 1 0 1 0 1 0 1 0 1 0 1 0 1 0 1 0 1 0 1 0 1 0 1 0 1 0 1 0 1 0 1 0 1 0 1 0 1 0 1 0 1 0 1 0 1 0 1 0 1 0 1 0 1 0 1 0 1 0 1 0 1 0 1 0 1 0 1 0 1 0 1 0 1 0 1 0"/>
<path stroke="#FFA500" d="M622 483l1 0 1 0 1 0 1 0 1 0 1 0 1 0 1 0 1 0 1 0 1 0 1 0 1 0 1 0 1 0 1 0 1 0 1 0 1 0 1 0 1 0 1 0 1 0 1 0 1 0 1 0 1 0 1 0 1 0 1 0 1 0 1 0 1 0 1 0 1 0 1 0 1 0 1 0 1 0 1 0 1 0 1 0 1 0 1 0 1 0 1 0 1 0 1 0 1 0 1 0 1 0 1 0"/>
<path stroke="#FFA500" d="M674 483l1 0 1 0 1 0 1 0 1 0 1 0 1 0 1 0 1 0 1 0 1 0 1 0 1 0 1 0 1 0 1 0 1 0 1 0 1 0 1 0 1 0 1 0 1 0 1 0 1 0 1 0 1 0 1 0 1 0 1 0 1 0 1 0 1 0 1 0 1 0 1 0 1 0 1 0 1 0 1 0 1 0 1 0 1 0 1 0 1 0 1 0 1 0 1 0 1 0 1 0 1 0 1 0"/>
<path stroke="#FFA500" d="M726 483l1 0 1 0 1 0 1 0 1 0 1 0 1 0 1 0 1 0 1 0 1 0 1 0 1 0 1 0 1 0 1 0 1 0 1 0 1 0 1 0 1 0 1 0 1 0 1 0 1 0 1 0 1 0 1 0 1 0 1 0 1 0 1 0 1 0 1 0 1 0 1 0 1 0 1 0 1 0 1 0 1 0 1 0 1 0 1 0 1 0 1 0 1 0 1 0 1 0 1 0 1 0 1 0"/>
<path stroke="#FFA500" d="M778 483l1 0 1 0 1 0 1 0 1 0 1 0 1 0 1 0 1 0 1 0 1 0 1 0 1 0 1 0 1 0 1 0 1 0 1 0 1 0 1 0 1 0 1 0 1 0 1 0 1 0 1 0 1 0 1 0 1 0 1 0 1 0 1 0 1 0 1 0 1 0 1 0 1 0 1 0 1 0 1 0 1 0 1 0 1 0 1 0 1 0 1 0 1 0 1 0 1 0 1 0 1 0 1 0"/>
<path stroke="#FFA500" d="M830 483l1 0 1 0 1 0 1 0 1 0 1 0 1 0 1 0 1 0 1 0 1 0 1 0 1 0 1 0 1 0 1 0 1 0 1 0 1 0 1 0 1 0 1 0 1 0 1 0 1 0 1 0 1 0 1 0 1 0 1 0 1 0 1 0 1 0 1 0 1 0 1 0 1 0 1 0 1 0 1 0 1 0 1 0 1 0 1 0 1 0 1 0 1 0 1 0 1 0 1 0 1 0 1 0"/>
<path stroke="#FFA500" d="M882 483l1 0 1 0 1 0 1 0 1 0 1 0 1 0 1 0 1 0 1 0 1 0 1 0 1 0 1 0 1 0 1 0 1 0 1 0 1 0 1 0 1 0 1 0 1 0 1 0 1 0 1 0 1 0 1 0 1 0 1 0 1 0 1 0 1 0 1 0 1 0 1 0 1 0 1 0 1 0 1 0 1 0 1 0 1 0 1 0 1 0 1 0 1 0 1 0 1 0 1 0 1 0 1 0"/>
<path stroke="#FFA500" d="M934 483l1 0 1 0 1 0 1 0 1 0 1 0 1 0 1 0 1 0 1 0 1 0 1 0 1 0 1 0 1 0 1 0 1 0 1 0 1 0 1 0 1 0 1 0 1 0 1 0 1 0 1 0 1 0 1 0 1 0 1 0 1 0 1 0 1 0 1 0 1 0 1 0 1 0 1 0 1 0 1 0"/>
<path stroke="green" d="M50 39l46 0"/>
<text stroke="none" fill="white" font-size="16" x="106" y="48">
gcasc
</text>
<path stroke="green" d="M50 208l1 0 1 0 1 0 1 0 1 0 1 0 1 0 1 0 1 0 1 0 1 0 1 0 1 0 1 0 1 0 1 0 1 0 1 0 1 0 1 0 1 0 1 0 1 0 1 0 1 0 1 0 1 0 1 0 1 0 1 0 1 0 1 0 1 0 1 0 1 0 1 0 1 0 1 0 1 0 1 0 1 0 1 0 1 0 1 0 1 0 1 0 1 0 1 0 1 0 1 0 1 0 1 0 1 0"/>
<path stroke="green" d="M103 208l1 0 1 0 1 0 1 0 1 0 1 0 1 0 1 0 1 0 1 0 1 0 1 0 1 0 1 0 1 0 1 0 1 0 1 0 1 0 1 0 1 0 1 0 1 0 1 0 1 0 1 0 1 0 1 0 1 0 1 0 1 0 1 0 1 0 1 0 1 0 1 0 1 0 1 0 1 0 1 0 1 0 1 0 1 0 1 0 1 0 1 0 1 0 1 0 1 0 1 0 1 0 1 0 1 0"/>
<path stroke="green" d="M156 208l1 0 1 0 1 0 1 0 1 0 1 0 1 0 1 0 1 0 1 0 1 0 1 0 1 0 1 0 1 0 1 0 1 0 1 0 1 0 1 0 1 0 1 0 1 0 1 0 1 0 1 0 1 0 1 0 1 0 1 0 1 0 1 0 1 0 1 0 1 0 1 0 1 0 1 0 1 0 1 0 1 0 1 0 1 0 1 0 1 0 1 0 1 0 1 0 1 0 1 0 1 0 1 0 1 0"/>
<path stroke="green" d="M209 208l1 0 1 0 1 0 1 0 1 0 1 0 1 0 1 0 1 0 1 0 1 0 1 0 1 0 1 0 1 0 1 0 1 0 1 0 1 0 1 0 1 0 1 0 1 0 1 0 1 0 1 0 1 0 1 0 1 0 1 0 1 0 1 0 1 0 1 0 1 0 1 0 1 0 1 0 1 0 1 0 1 0 1 0 1 0 1 0 1 0 1 0 1 0 1 0 1 0 1 0 1 0 1 0 1 0"/>
<path stroke="green" d="M262 208l1 0 1 0 1 0 1 0 1 0 1 0 1 0 1 0 1 0 1 0 1 0 1 0 1 0 1 0 1 0 1 0 1 0 1 0 1 0 1 0 1 0 1 0 1 0 1 0 1 0 1 0 1 0 1 0 1 0 1 0 1 0 1 0 1 0 1 0 1 0 1 0 1 0 1 0 1 0 1 0 1 0 1 0 1 0 1 0 1 0 1 0 1 0 1 0 1 0 1 0 1 0 1 0 1 0"/>
<path stroke="green" d="M315 208l1 0 1 0 1 0 1 0 1 0 1 0 1 0 1 0 1 0 1 0 1 0 1 0 1 0 1 0 1 0 1 0 1 0 1 0 1 0 1 0 1 0 1 0 1 0 1 0 1 0 1 0 1 0 1 0 1 0 1 0 1 0 1 0 1 0 1 0 1 0 1 0 1 0 1 0 1 0 1 0 1 0 1 0 1 0 1 0 1 0 1 0 1 0 1 0 1 0 1 0 1 0 1 0 1 0"/>
<path stroke="green" d="M368 208l1 0 1 0 1 0 1 0 1 0 1 0 1 0 1 0 1 0 1 0 1 0 1 0 1 0 1 0 1 0 1 0 1 0 1 0 1 0 1 0 1 0 1 0 1 0 1 0 1 0 1 0 1 0 1 0 1 0 1 0 1 0 1 0 1 0 1 0 1 0 1 0 1 0 1 0 1 0 1 0 1 0 1 0 1 0 1 0 1 0 1 0 1 0 1 0 1 0 1 0 1 0 1 0 1 0"/>
<path stroke="green" d="M421 208l1 0 1 0 1 0 1 0 1 0 1 0 1 0 1 0 1 0 1 0 1 0 1 0 1 0 1 0 1 0 1 0 1 0 1 0 1 0 1 0 1 0 1 0 1 0 1 0 1 0 1 0 1 0 1 0 1 0 1 0 1 0 1 0 1 0 1 0 1 0 1 0 1 0 1 0 1 0 1 0 1 0 1 0 1 0 1 0 1 0 1 0 1 0 1 0 1 0 1 0 1 0 1 0 1 0"/>
<path stroke="green" d="M474 208l1 0 1 0 1 0 1 0 1 0 1 0 1 0 1 0 1 0 1 0 1 0 1 0 1 0 1 0 1 0 1 0 1 0 1 0 1 0 1 0 1 0 1 0 1 0 1 0 1 0 1 0 1 0 1 0 1 0 1 0 1 0 1 0 1 0 1 0 1 0 1 0 1 0 1 0 1 0 1 0 1 0 1 0 1 0 1 0 1 0 1 0 1 0 1 0 1 0 1 0 1 0 1 0 1 0"/>
<path stroke="green" d="M527 208l1 0 1 0 1 0 1 0 1 0 1 0 1 0 1 0 1 0 1 0 1 0 1 0 1 0 1 0 1 0 1 0 1 0 1 0 1 0 1 0 1 0 1 0 1 0 1 0 1 0 1 0 1 0 1 0 1 0 1 0 1 0 1 0 1 0 1 0 1 0 1 0 1 0 1 0 1 0 1 0 1 0 1 0 1 0 1 0 1 0 1 0 1 0 1 0 1 0 1 0 1 0 1 0 1 0"/>
<path stroke="green" d="M580 208l1 0 1 0 1 0 1 0 1 0 1 0 1 0 1 0 1 0 1 0 1 0 1 0 1 0 1 0 1 0 1 0 1 0 1 0 1 0 1 0 1 0 1 0 1 0 1 0 1 0 1 0 1 0 1 0 1 0 1 0 1 0 1 0 1 0 1 0 1 0 1 0 1 0 1 0 1 0 1 0 1 0 1 0 1 0 1 0 1 0 1 0 1 0 1 0 1 0 1 0 1 0 1 0 1 0"/>
<path stroke="green" d="M633 208l1 0 1 0 1 0 1 0 1 0 1 0 1 0 1 0 1 0 1 0 1 0 1 0 1 0 1 0 1 0 1 0 1 0 1 0 1 0 1 0 1 0 1 0 1 0 1 0 1 0 1 0 1 0 1 0 1 0 1 0 1 0 1 0 1 0 1 0 1 0 1 0 1 0 1 0 1 0 1 0 1 0 1 0 1 0 1 0 1 0 1 0 1 0 1 0 1 0 1 0 1 0 1 0 1 0"/>
<path stroke="green" d="M686 208l1 0 1 0 1 0 1 0 1 0 1 0 1 0 1 0 1 0 1 0 1 0 1 0 1 0 1 0 1 0 1 0 1 0 1 0 1 0 1 0 1 0 1 0 1 0 1 0 1 0 1 0 1 0 1 0 1 0 1 0 1 0 1 0 1 0 1 0 1 0 1 0 1 0 1 0 1 0 1 0 1 0 1 0 1 0 1 0 1 0 1 0 1 0 1 0 1 0 1 0 1 0 1 0 1 0"/>
<path stroke="green" d="M739 208l1 0 1 0 1 0 1 0 1 0 1 0 1 0 1 0 1 0 1 0 1 0 1 0 1 0 1 0 1 0 1 0 1 0 1 0 1 0 1 0 1 0 1 0 1 0 1 0 1 0 1 0 1 0 1 0 1 0 1 0 1 0 1 0 1 0 1 0 1 0 1 0 1 0 1 0 1 0 1 0 1 0 1 0 1 0 1 0 1 0 1 0 1 0 1 0 1 0 1 0 1 0 1 0 1 0"/>
<path stroke="green" d="M792 208l1 0 1 0 1 0 1 0 1 0 1 0 1 0 1 0 1 0 1 0 1 0 1 0 1 0 1 0 1 0 1 0 1 0 1 0 1 0 1 0 1 0 1 0 1 0 1 0 1 0 1 0 1 0 1 0 1 0 1 0 1 0 1 0 1 0 1 0 1 0 1 0 1 0 1 0 1 0 1 0 1 0 1 0 1 0 1 0 1 0 1 0 1 0 1 0 1 0 1 0 1 0 1 0 1 0"/>
<path stroke="green" d="M845 208l1 0 1 0 1 0 1 0 1 0 1 0 1 0 1 0 1 0 1 0 1 0 1 0 1 0 1 0 1 0 1 0 1 0 1 0 1 0 1 0 1 0 1 0 1 0 1 0 1 0 1 0 1 0 1 0 1 0 1 0 1 0 1 0 1 0 1 0 1 0 1 0 1 0 1 0 1 0 1 0 1 0 1 0 1 0 1 0 1 0 1 0 1 0 1 0 1 0 1 0 1 0 1 0 1 0"/>
<path stroke="green" d="M898 208l1 0 1 0 1 0 1 0 1 0 1 0 1 0 1 0 1 0 1 0 0 -1 1 0 1 0 1 0 1 0 1 0 1 0 1 0 1 0 1 0 1 0 1 0 1 0 1 0 1 0 1 0 1 0 1 0 1 0 1 0 1 0 1 0 1 0 1 0 1 0 1 0 1 0 1 0 1 0 1 0 1 0 1 0 1 0 1 0 1 0 1 0 1 0 1 0 1 0 1 0 1 0 1 0"/>
<path stroke="green" d="M949 207l1 0 1 0 1 0 1 0 1 0 1 0 1 0 1 0 1 0 1 0 1 0 1 0 1 0 1 0 1 0 1 0 1 0 1 0 1 0 1 0 1 0 1 0 1 0 1 0 1 0"/>
<path stroke="#FFC0C5" d="M462 55l46 0"/>
<text stroke="none" fill="white" font-size="16" x="518" y="64">
mir
</text>
<path stroke="#FFC0C5" d="M50 373l1 0 1 0 1 0 1 0 1 0 1 0 1 0 1 0 1 0 1 0 1 0 1 0 1 0 1 0 1 0 1 0 1 0 1 0 1 0 1 0 1 0 1 0 1 0 1 0 1 0 1 0 1 0 1 0 1 0 1 0 1 0 1 0 1 0 1 0 1 0 1 0 1 0 1 0 1 0 1 0 1 0 1 0 1 0 1 0 1 0 1 0 1 0 1 0 1 0 1 0 1 0 1 0"/>
<path stroke="#FFC0C5" d="M102 373l1 0 1 0 1 0 1 0 1 0 1 0 1 0 1 0 1 0 1 0 1 0 1 0 1 0 1 0 1 0 1 0 1 0 1 0 1 0 1 0 1 0 1 0 1 0 1 0 1 0 1 0 1 0 1 0 1 0 1 0 1 0 1 0 1 0 1 0 1 0 1 0 1 0 1 0 1 0 1 0 1 0 1 0 1 0 1 0 1 0 1 0 1 0 1 0 1 0 1 0 1 0 1 0"/>
<path stroke="#FFC0C5" d="M154 373l1 0 1 0 1 0 1 0 1 0 1 0 1 0 1 0 1 0 1 0 1 0 1 0 1 0 1 0 1 0 1 0 1 0 1 0 1 0 1 0 1 0 1 0 1 0 1 0 1 0 1 0 1 0 1 0 1 0 1 0 1 0 1 0 1 0 1 0 1 0 1 0 1 0 1 0 1 0 1 0 1 0 1 0 1 0 1 0 1 0 1 0 1 0 1 0 1 0 1 0 1 0 1 0"/>
<path stroke="#FFC0C5" d="M206 373l1 0 1 0 1 0 1 0 1 0 1 0 1 0 1 0 1 0 1 0 1 0 1 0 1 0 1 0 1 0 1 0 1 0 1 0 1 0 1 0 1 0 1 0 1 0 1 0 1 0 1 0 1 0 1 0 1 0 1 0 1 0 1 0 1 0 1 0 1 0 1 0 1 0 1 0 1 0 1 0 1 0 1 0 1 0 1 0 1 0 1 0 1 0 1 0 1 0 1 0 1 0 1 0"/>
<path stroke="#FFC0C5" d="M258 373l1 0 1 0 1 0 1 0 1 0 1 0 1 0 1 0 1 0 1 0 1 0 1 0 1 0 1 0 1 0 1 0 1 0 1 0 1 0 1 0 1 0 1 0 1 0 1 0 1 0 1 0 1 0 1 0 1 0 1 0 1 0 1 0 1 0 1 0 1 0 1 0 1 0 1 0 1 0 1 0 1 0 1 0 1 0 1 0 1 0 1 0 1 0 1 0 1 0 1 0 1 0 1 0"/>
<path stroke="#FFC0C5" d="M310 373l1 0 1 0 1 0 1 0 1 0 1 0 1 0 1 0 1 0 1 0 1 0 1 0 1 0 1 0 1 0 1 0 1 0 1 0 1 0 1 0 1 0 1 0 1 0 1 0 1 0 1 0 1 0 1 0 1 0 1 0 1 0 1 0 1 0 1 0 1 0 1 0 1 0 1 0 1 0 1 0 1 0 1 0 1 0 1 0 1 0 1 0 1 0 1 0 1 0 1 0 1 0 1 0"/>
<path stroke="#FFC0C5" d="M362 373l1 0 1 0 1 0 1 0 1 0 1 0 1 0 1 0 1 0 1 0 1 0 1 0 1 0 1 0 1 0 1 0 1 0 1 0 1 0 1 0 1 0 1 0 1 0 1 0 1 0 1 0 1 0 1 0 1 0 1 0 1 0 1 0 1 0 1 0 1 0 1 0 1 0 1 0 1 0 1 0 1 0 1 0 1 0 1 0 1 0 1 0 1 0 1 0 1 0 1 0 1 0 1 0"/>
<path stroke="#FFC0C5" d="M414 373l1 0 1 0 1 0 1 0 1 0 1 0 1 0 1 0 1 0 1 0 1 0 1 0 1 0 1 0 1 0 1 0 1 0 1 0 1 0 1 0 1 0 1 0 1 0 1 0 1 0 1 0 1 0 1 0 1 0 1 0 1 0 1 0 1 0 1 0 1 0 1 0 1 0 1 0 1 0 1 0 1 0 1 0 1 0 1 0 1 0 1 0 1 0 1 0 1 0 1 0 1 0 1 0"/>
<path stroke="#FFC0C5" d="M466 373l1 0 1 0 1 0 1 0 1 0 1 0 1 0 1 0 1 0 1 0 1 0 1 0 1 0 1 0 1 0 1 0 1 0 1 0 1 0 1 0 1 0 1 0 1 0 1 0 1 0 1 0 1 0 1 0 1 0 1 0 1 0 1 0 1 0 1 0 1 0 1 0 1 0 1 0 1 0 1 0 1 0 1 0 1 0 1 0 1 0 1 0 1 0 1 0 1 0 1 0 1 0 1 0"/>
<path stroke="#FFC0C5" d="M518 373l1 0 1 0 1 0 1 0 1 0 1 0 1 0 1 0 1 0 1 0 1 0 1 0 1 0 1 0 1 0 1 0 1 0 1 0 1 0 1 0 1 0 1 0 1 0 1 0 1 0 1 0 1 0 1 0 1 0 1 0 1 0 1 0 1 0 1 0 1 0 1 0 1 0 1 0 1 0 1 0 1 0 1 0 1 0 1 0 1 0 1 0 1 0 1 0 1 0 1 0 1 0 1 0"/>
<path stroke="#FFC0C5" d="M570 373l1 0 1 0 1 0 1 0 1 0 1 0 1 0 1 0 1 0 1 0 1 0 1 0 1 0 1 0 1 0 1 0 1 0 1 0 1 0 1 0 1 0 1 0 1 0 1 0 1 0 1 0 1 0 1 0 1 0 1 0 1 0 1 0 1 0 1 0 1 0 1 0 1 0 1 0 1 0 1 0 1 0 1 0 1 0 1 0 1 0 1 0 1 0 1 0 1 0 1 0 1 0 1 0"/>
<path stroke="#FFC0C5" d="M622 373l1 0 1 0 1 0 1 0 1 0 1 0 1 0 1 0 1 0 1 0 1 0 1 0 1 0 1 0 1 0 1 0 1 0 1 0 1 0 1 0 1 0 1 0 1 0 1 0 1 0 1 0 1 0 1 0 1 0 1 0 1 0 1 0 1 0 1 0 1 0 1 0 1 0 1 0 1 0 1 0 1 0 1 0 1 0 1 0 1 0 1 0 1 0 1 0 1 0 1 0 1 0 1 0"/>
<path stroke="#FFC0C5" d="M674 373l1 0 1 0 1 0 1 0 1 0 1 0 1 0 1 0 1 0 1 0 1 0 1 0 1 0 1 0 1 0 1 0 1 0 1 0 1 0 1 0 1 0 1 0 1 0 1 0 1 0 1 0 1 0 1 0 1 0 1 0 1 0 1 0 1 0 1 0 1 0 1 0 1 0 1 0 1 0 1 0 1 0 1 0 1 0 1 0 1 0 1 0 1 0 1 0 1 0 1 0 1 0 1 0"/>
<path stroke="#FFC0C5" d="M726 373l1 0 1 0 1 0 1 0 1 0 1 0 1 0 1 0 1 0 1 0 1 0 1 0 1 0 1 0 1 0 1 0 1 0 1 0 1 0 1 0 1 0 1 0 1 0 1 0 1 0 1 0 1 0 1 0 1 0 1 0 1 0 1 0 1 0 1 0 1 0 1 0 1 0 1 0 1 0 1 0 1 0 1 0 1 0 1 0 1 0 1 0 1 0 1 0 1 0 1 0 1 0 1 0"/>
<path stroke="#FFC0C5" d="M778 373l1 0 1 0 1 0 1 0 1 0 1 0 1 0 1 0 1 0 1 0 1 0 1 0 1 0 1 0 1 0 1 0 1 0 1 0 1 0 1 0 1 0 1 0 1 0 1 0 1 0 1 0 1 0 1 0 1 0 1 0 1 0 1 0 1 0 1 0 1 0 1 0 1 0 1 0 1 0 1 0 1 0 1 0 1 0 1 0 1 0 1 0 1 0 1 0 1 0 1 0 1 0 1 0"/>
<path stroke="#FFC0C5" d="M830 373l1 0 1 0 1 0 1 0 1 0 1 0 1 0 1 0 1 0 1 0 1 0 1 0 1 0 1 0 1 0 1 0 1 0 1 0 1 0 1 0 1 0 1 0 1 0 1 0 1 0 1 0 1 0 1 0 1 0 1 0 1 0 1 0 1 0 1 0 1 0 1 0 1 0 1 0 1 0 1 0 1 0 1 0 1 0 1 0 1 0 1 0 1 0 1 0 1 0 1 0 1 0 1 0"/>
<path stroke="#FFC0C5" d="M882 373l1 0 1 0 1 0 1 0 1 0 1 0 1 0 1 0 1 0 1 0 1 0 1 0 1 0 1 0 1 0 1 0 1 0 1 0 1 0 1 0 1 0 1 0 1 0 1 0 1 0 1 0 1 0 1 0 1 0 1 0 1 0 1 0 1 0 1 0 1 0 1 0 1 0 1 0 1 0 1 0 1 0 1 0 1 0 1 0 1 0 1 0 1 0 1 0 1 0 1 0 1 0 1 0"/>
<path stroke="#FFC0C5" d="M934 373l1 0 1 0 1 0 1 0 1 0 1 0 1 0 1 0 1 0 1 0 1 0 1 0 1 0 1 0 1 0 1 0 1 0 1 0 1 0 1 0 1 0 1 0 1 0 1 0 1 0 1 0 1 0 1 0 1 0 1 0 1 0 1 0 1 0 1 0 1 0 1 0 1 0 1 0 1 0 1 0"/>
<path stroke="#A52A2A" d="M50 55l46 0"/>
<text stroke="none" fill="white" font-size="16" x="106" y="64">
inv
</text>
<path stroke="#A52A2A" d="M50 295l0 312 0 1 0 -2 0 -39 0 -460 0 -5 1 4 0 -4 0 3 0 -2 0 2 0 -2 0 2 0 -2 0 2 1 -2 0 2 0 -2 0 2 1 -2 0 2 0 -2 1 2 0 -2 0 2 0 -2 1 2 0 -2 0 2 0 -2 1 2 0 -2 0 2 0 -2 1 2 0 -2 0 2 1 -2 0 2 0 -2 0 2 1 -2 0 2 0 -2 0 2"/>
<path stroke="#A52A2A" d="M59 105l1 -2 0 2 0 -2 0 2 1 -2 0 2 0 -2 0 2 1 -2 0 2 0 -2 1 2 0 -2 0 2 0 -2 1 2 0 -2 0 2 0 -2 1 2 0 -2 0 2 0 -2 1 2 0 -2 0 2 0 -2 1 2 0 -2 0 2 1 -2 0 2 0 -2 0 2 1 -2 0 2 0 -2 0 2 1 -2 0 2 0 -2 0 2 1 -2 0 2 0 -2 0 2 1 -2"/>
<path stroke="#A52A2A" d="M72 103l0 2 0 -2 1 2 0 -2 0 2 0 -2 1 2 0 -2 0 2 0 -2 1 2 0 -2 0 2 0 -2 1 2 0 -2 0 2 1 -2 0 2 0 -2 0 2 1 -2 0 2 0 -2 0 2 1 -2 0 2 0 -2 0 2 1 -2 0 2 0 -2 0 2 1 -2 0 2 0 -2 1 2 0 -2 0 2 0 -2 1 2 0 -2 0 2 0 -2 1 2 0 -2 0 2"/>
<path stroke="#A52A2A" d="M84 105l0 -2 1 2 0 -2 0 2 0 -2 1 2 0 -2 0 2 1 -2 0 2 0 -2 0 2 1 -2 0 2 0 -2 0 2 1 -2 0 2 0 -2 0 2 1 -2 0 2 0 -2 1 2 0 -2 0 2 0 -2 1 2 0 -2 0 2 0 -2 1 2 0 -2 0 2 0 -2 1 2 0 -2 0 2 0 -2 1 2 0 -2 0 2 1 -2 0 2 0 -2 0 2 1 -2"/>
<path stroke="#A52A2A" d="M97 103l0 2 0 -2 0 2 1 -2 0 2 0 -2 0 2 1 -2 0 2 0 -2 0 2 1 -2 0 2 0 -2 1 2 0 -2 0 2 0 -2 1 2 0 -2 0 2 0 -2 1 2 0 -2 0 2 0 -2 1 2 0 -2 0 2 0 -2 1 2 0 -2 0 2 1 -2 0 2 0 -2 0 2 1 -2 0 2 0 -2 0 2 1 -2 0 2 0 -2 0 2 1 -2 0 2"/>
<path stroke="#A52A2A" d="M109 105l0 -2 1 2 0 -2 0 2 0 -2 1 2 0 -2 0 2 0 -2 1 2 0 -2 0 2 0 -2 1 2 0 -2 0 2 0 -2 1 2 0 -2 0 2 1 -2 0 2 0 -2 0 2 1 -2 0 2 0 -2 0 2 1 -2 0 2 0 -2 0 2 1 -2 0 2 0 -2 0 2 1 -2 0 2 0 -2 1 2 0 -2 0 2 0 -2 1 2 0 -2 0 2"/>
<path stroke="#A52A2A" d="M121 105l0 -2 1 2 0 -2 0 2 0 -2 1 2 0 -2 0 2 1 -2 0 2 0 -2 0 2 1 -2 0 2 0 -2 0 2 1 -2 0 2 0 -2 0 2 1 -2 0 2 0 -2 0 2 1 -2 0 2 0 -2 1 2 0 -2 0 2 0 -2 1 2 0 -2 0 2 0 -2 1 2 0 -2 0 2 0 -2 1 2 0 -2 0 2 0 -2 1 2 0 -2 0 2"/>
<path stroke="#A52A2A" d="M133 105l1 -2 0 2 0 -2 0 2 1 -2 0 2 0 -2 0 2 1 -2 0 2 0 -2 0 2 1 -2 0 2 0 -2 0 2 1 -1 0 1 0 -1 1 1 0 -1 1 0 1 0 1 0 1 0 1 0 1 0 1 0 1 0 1 0 1 0 1 0 1 0 1 0 1 0 1 0 1 0 1 0 1 0 1 0 1 0 1 0 1 0 1 0 1 0 1 0 1 0 1 0 1 0"/>
<path stroke="#A52A2A" d="M167 104l1 0 1 0 1 0 1 0 1 0 1 0 1 0 1 0 1 0 1 0 1 0 1 0 1 0 1 0 1 0 1 0 0 1 0 -1 0 1 1 -1 0 1 0 -1 0 1 1 -1 0 1 0 -1 1 1 0 -1 0 1 0 -1 1 1 0 -1 0 1 0 -1 1 1 0 -1 0 1 0 -1 1 1 0 -1 0 1 1 -1 0 1 0 -1 0 1 1 -1 0 1 0 -1"/>
<path stroke="#A52A2A" d="M191 104l0 1 1 -1 0 1 0 -1 0 1 1 -1 0 1 0 -1 0 1 1 -1 0 1 1 0 1 0 1 0 1 0 1 0 1 0 1 0 0 1 1 -1 0 1 0 -1 0 1 1 -1 0 1 0 -1 0 1 1 0 1 0 1 0 1 0 1 1 0 -1 0 1 1 -1 0 1 1 0 1 0 1 0 0 1 0 -1 0 1 1 -1 0 1 1 0 1 0 1 1 1 0 1 0"/>
<path stroke="#A52A2A" d="M218 109l0 1 1 0 1 0 0 1 1 0 1 0 0 1 0 -1 1 1 1 0 0 1 1 0 1 1 1 1 1 0 0 1 1 0 0 1 1 0 0 1 1 0 0 1 1 0 0 1 1 0 0 1 1 1 1 1 0 1 1 0 0 1 0 1 1 0 0 1 1 0 0 1 0 1 1 0 0 1 0 1 1 0 0 1 0 1 1 1 0 1 1 1 0 1 0 1 1 1 0 1 0 1 1 1"/>
<path stroke="#A52A2A" d="M244 142l0 1 0 1 1 1 0 1 0 1 0 1 1 2 0 1 0 1 1 1 0 2 0 1 0 1 1 2 0 2 0 1 0 2 1 2 0 2 0 2 0 2 1 3 0 2 0 3 0 2 1 3 0 3 0 3 1 3 0 2 0 4 0 2 1 4 0 3 0 3 0 3 1 3 0 3 0 3 0 4 1 3 0 3 0 3 1 4 0 3 0 4 0 3 1 4 0 3 0 4 0 4 1 4"/>
<path stroke="#A52A2A" d="M258 270l0 4 0 5 0 5 1 7 0 12 0 304 0 1 1 -19 0 -483 0 -3 0 2 0 -2 0 2 0 -2 0 2 0 -2 0 2 0 -2 1 2 0 -2 0 2 1 -2 0 2 0 -2 0 2 1 -2 0 2 0 -2 0 2 1 -2 0 2 0 -2 0 2 1 -2 0 2 0 -2 1 2 0 -2 0 2 0 -2 1 2 0 -2 0 2 0 -2 1 2 0 -2"/>
<path stroke="#A52A2A" d="M268 103l0 2 0 -2 1 2 0 -2 0 2 0 -2 1 2 0 -2 0 2 1 -2 0 1 1 0 1 0 1 0 1 0 1 0 1 0 1 0 1 0 1 0 1 0 1 0 1 0 1 0 1 0 1 0 1 0 1 0 1 0 1 0 1 0 1 0 1 0 1 0 1 0 1 0 1 0 1 0 1 0 1 0 1 0 1 0 1 0 1 0 1 0 1 0 1 0 1 0 1 0 1 0 1 0"/>
<path stroke="#A52A2A" d="M311 104l1 0 1 0 1 0 1 0 1 0 1 0 1 0 1 0 1 0 1 0 1 0 1 0 1 0 1 0 1 0 1 0 1 0 1 0 1 0 1 0 1 0 1 0 1 0 1 0 1 0 1 0 1 0 1 0 1 0 1 0 1 0 1 0 1 0 1 0 1 0 1 0 1 0 1 0 1 0 1 0 1 0 1 0 1 0 1 0 1 0 1 0 1 0 1 0 1 0 1 0 1 0 1 0"/>
<path stroke="#A52A2A" d="M363 104l1 0 1 0 1 0 1 0 1 0 1 0 1 0 1 0 1 0 1 0 1 0 1 0 1 0 1 0 1 0 1 0 1 0 1 0 1 0 1 0 1 0 1 0 1 0 1 0 1 0 1 0 1 0 1 0 1 0 1 0 1 0 1 0 1 0 1 0 1 0 1 0 1 0 1 0 1 0 0 1 1 0 1 0 1 0 1 0 1 0 1 0 1 0 1 0 1 0 1 0 1 0 1 0"/>
<path stroke="#A52A2A" d="M414 105l0 1 1 0 1 0 1 0 1 0 1 0 1 0 0 1 1 0 1 0 1 0 1 0 0 1 1 0 1 0 1 0 1 1 1 0 1 0 0 1 1 0 1 0 0 1 1 0 1 0 0 1 1 0 1 1 1 0 0 1 1 0 1 1 1 1 1 0 0 1 1 0 0 1 1 0 0 1 1 0 0 1 1 1 1 1 0 1 1 0 0 1 1 1 0 1 1 0 0 1 0 1 1 0"/>
<path stroke="#A52A2A" d="M450 128l0 1 1 1 0 1 1 1 0 1 0 1 1 0 0 1 0 1 1 1 0 1 0 1 1 1 0 1 1 1 0 1 0 1 0 1 1 1 0 1 0 1 0 1 1 1 0 2 0 1 0 1 1 2 0 1 0 2 1 1 0 2 0 2 0 2 1 2 0 2 0 2 0 3 1 2 0 3 0 2 0 3 1 3 0 3 0 3 0 2 1 3 0 3 0 4 1 3 0 3 0 3 0 3"/>
<path stroke="#A52A2A" d="M465 218l1 3 0 3 0 4 0 3 1 3 0 4 0 3 0 3 1 4 0 3 0 4 0 3 1 4 0 4 0 4 1 5 0 4 0 6 0 7 1 13 0 302 0 1 0 -56 0 -446 1 -3 0 2 0 -2 0 2 0 -2 0 2 0 -2 0 2 0 -2 0 2 0 -2 1 2 0 -2 0 2 1 -2 0 2 0 -2 0 2 1 -2 0 2 0 -2 0 2 1 -2"/>
<path stroke="#A52A2A" d="M476 103l0 2 0 -2 0 2 1 -2 0 2 0 -2 0 2 1 -2 0 2 0 -2 1 2 0 -2 0 2 0 -2 1 2 0 -2 0 2 0 -2 1 2 0 -2 0 2 0 -2 1 2 0 -2 0 2 0 -2 1 2 0 -2 0 2 1 -2 0 2 0 -2 0 2 1 -2 0 2 0 -2 0 2 1 -2 0 2 0 -2 0 2 1 -2 0 2 0 -2 1 2 0 -2"/>
<path stroke="#A52A2A" d="M488 103l0 2 0 -2 1 2 0 -2 0 2 0 -2 1 2 0 -2 0 2 0 -2 1 2 0 -2 0 2 0 -2 1 2 0 -2 0 2 1 -2 0 2 0 -2 0 2 1 -2 0 2 0 -2 0 2 1 -2 0 2 0 -2 0 2 1 -2 0 2 0 -2 0 2 1 -2 0 2 0 -2 1 2 0 -2 0 2 0 -2 1 2 0 -2 0 2 0 -2 1 2 0 -2"/>
<path stroke="#A52A2A" d="M500 103l0 2 0 -2 1 2 0 -2 0 2 1 -2 0 2 0 -2 0 2 1 -2 0 2 0 -2 0 2 1 -2 0 2 0 -2 0 2 1 -2 0 2 0 -2 0 2 1 -2 0 2 0 -2 1 2 0 -2 0 2 0 -2 1 2 0 -2 0 2 0 -2 1 2 0 -2 0 2 0 -2 1 2 0 -2 0 2 0 -2 1 2 0 -2 0 2 1 -2 0 2 0 -2"/>
<path stroke="#A52A2A" d="M512 103l0 2 1 -2 0 2 0 -2 0 2 1 -2 0 2 0 -2 0 2 1 -2 0 2 0 -2 0 2 1 -2 0 2 0 -2 1 2 0 -2 0 2 0 -2 1 2 0 -2 0 2 0 -2 1 2 0 -2 0 2 0 -2 1 2 0 -2 0 2 1 -2 0 2 0 -1 1 0 1 0 1 0 1 0 1 0 1 0 1 0 1 0 1 0 1 0 1 0 1 0 1 0 1 0"/>
<path stroke="#A52A2A" d="M535 104l1 0 1 0 1 0 1 0 1 0 1 0 1 0 1 0 1 0 1 0 1 0 1 0 1 0 1 0 1 0 1 0 1 0 1 0 1 0 1 0 1 0 1 0 1 0 1 0 1 0 1 0 1 0 1 0 1 0 1 0 1 0 1 0 1 0 1 0 1 0 1 0 1 0 1 0 1 0 1 0 1 0 1 0 1 0 1 0 1 0 1 0 1 0 1 0 1 0 1 0 1 0 1 0"/>
<path stroke="#A52A2A" d="M587 104l1 0 1 0 1 0 1 0 1 0 1 0 1 0 1 0 1 0 1 0 1 0 1 0 1 0 1 0 1 0 1 0 1 0 1 0 1 0 1 0 1 0 1 0 1 0 1 0 1 0 1 0 1 0 1 0 0 1 1 -1 0 1 0 -1 0 1 1 -1 0 1 0 -1 0 1 1 -1 0 1 0 -1 0 1 1 -1 0 1 0 -1 1 1 0 -1 0 1 0 -1 1 1 1 0"/>
<path stroke="#A52A2A" d="M622 105l1 0 1 0 1 0 1 0 1 0 1 0 1 0 1 0 0 1 0 -1 1 1 0 -1 0 1 1 0 1 0 1 0 1 0 1 0 0 1 0 -1 0 1 1 -1 0 1 1 0 1 0 1 0 0 1 0 -1 1 1 1 0 1 0 0 1 1 -1 0 1 1 0 1 0 0 1 1 0 1 0 1 1 1 0 0 1 1 0 1 1 1 0 0 1 1 0 1 1 1 0 0 1 1 0"/>
<path stroke="#A52A2A" d="M657 116l0 1 1 0 0 1 1 0 0 1 1 0 0 1 1 1 0 1 1 0 0 1 1 0 0 1 1 1 0 1 1 0 0 1 0 1 1 0 0 1 1 1 0 1 1 1 0 1 1 1 0 1 0 1 1 1 0 1 0 1 1 1 0 1 1 1 0 1 0 1 0 1 1 1 0 1 0 1 0 1 1 1 0 2 0 1 0 1 1 2 0 1 0 2 0 1 1 2 0 2 0 2 1 2"/>
<path stroke="#A52A2A" d="M677 168l0 2 0 2 0 3 1 2 0 3 0 2 0 3 1 3 0 3 0 3 0 3 1 3 0 3 0 3 0 3 1 3 0 3 0 3 1 4 0 3 0 3 0 3 1 4 0 3 0 3 0 4 1 3 0 4 0 3 0 4 1 4 0 4 0 4 1 4 0 5 0 6 0 7 0 2 0 2 1 8 0 3 0 8 0 283 0 10 0 -2 0 2 0 -2 0 1 0 -29 0 -470"/>
<path stroke="#A52A2A" d="M687 109l0 -8 0 6 0 -6 1 6 0 -5 0 4 0 -4 0 4 0 -4 0 4 1 -4 0 4 0 -4 1 4 0 -4 0 4 0 -4 1 4 0 -4 0 4 0 -4 1 4 0 -4 0 4 0 -4 1 4 0 -4 0 4 0 -4 1 4 0 -4 0 4 1 -4 0 4 0 -4 0 4 1 -4 0 4 0 -4 0 4 1 -4 0 4 0 -4 0 4 1 -4 0 4"/>
<path stroke="#A52A2A" d="M698 106l0 -4 0 4 1 -4 0 4 0 -4 1 4 0 -4 0 4 0 -4 1 4 0 -4 0 4 0 -4 1 4 0 -4 0 4 0 -4 1 4 0 -4 0 4 1 -4 0 4 0 -4 0 4 1 -4 0 4 0 -4 0 4 1 -4 0 4 0 -4 0 4 1 -4 0 4 0 -4 0 4 1 -4 0 4 0 -4 1 4 0 -4 0 4 0 -4 1 4 0 -4 0 4"/>
<path stroke="#A52A2A" d="M710 106l0 -4 1 4 0 -4 0 4 0 -4 1 4 0 -4 0 4 0 -4 1 4 0 -4 0 4 1 -4 0 4 0 -4 0 4 1 -4 0 4 0 -4 0 4 1 -4 0 4 0 -4 0 4 1 -4 0 4 0 -4 1 4 0 -4 0 4 0 -4 1 4 0 -4 0 4 0 -4 1 4 0 -4 0 4 0 -4 1 4 0 -4 0 4 0 -4 1 4 0 -4 0 4"/>
<path stroke="#A52A2A" d="M722 106l1 -4 0 4 0 -4 0 4 1 -4 0 4 0 -4 0 4 1 -4 0 4 0 -4 0 4 1 -4 0 4 0 -4 0 4 1 -4 0 4 0 -4 1 4 0 -4 0 4 0 -4 1 4 0 -4 0 4 0 -4 1 4 0 -4 0 4 0 -4 1 4 0 -4 0 4 0 -4 1 4 0 -4 0 4 1 -3 0 3 0 -3 0 2 1 -2 0 2 0 -2 0 2"/>
<path stroke="#A52A2A" d="M734 105l1 -2 0 2 0 -2 0 2 1 -2 0 2 0 -2 1 2 0 -2 0 2 0 -2 1 2 0 -2 0 2 0 -2 1 2 0 -2 0 2 0 -2 1 2 0 -2 0 2 0 -2 1 2 0 -2 0 2 1 -2 0 2 0 -2 0 2 1 -2 0 2 0 -2 0 2 1 -2 0 2 0 -2 0 2 1 -2 0 2 0 -2 0 2 1 -2 0 2 0 -2 1 2"/>
<path stroke="#A52A2A" d="M747 105l0 -2 0 2 0 -2 1 2 0 -2 0 2 0 -2 1 2 0 -2 0 2 0 -2 1 2 0 -2 0 2 1 -2 0 2 0 -2 0 2 1 -2 0 2 0 -2 0 2 1 -2 0 2 0 -2 0 2 1 -2 0 2 0 -2 0 2 1 -2 0 2 0 -2 1 2 0 -2 0 2 0 -2 1 2 0 -2 0 2 0 -2 1 2 0 -2 0 2 0 -2 1 2"/>
<path stroke="#A52A2A" d="M759 105l0 -2 0 2 0 -2 1 2 0 -2 0 2 1 -2 0 2 0 -2 0 2 1 -2 0 2 0 -2 0 2 1 -2 0 2 0 -2 0 2 1 -2 0 2 0 -2 0 2 1 -2 0 2 0 -2 1 2 0 -2 0 2 0 -2 1 2 0 -2 0 2 0 -2 1 2 0 -2 0 2 0 -2 1 2 0 -2 0 2 1 -2 0 2 0 -2 0 2 1 -2 0 2"/>
<path stroke="#A52A2A" d="M771 105l0 -2 0 2 1 -2 0 2 0 -2 0 2 1 -2 0 2 0 -2 0 2 1 -2 0 2 0 -2 1 2 0 -2 0 2 0 -2 1 2 0 -2 0 2 0 -2 1 2 0 -2 0 2 0 -2 1 2 0 -2 0 2 0 -2 1 2 0 -2 0 2 1 -2 0 2 0 -2 0 2 1 -2 0 2 0 -2 0 2 1 -2 0 2 0 -2 0 2 1 -2 0 2"/>
<path stroke="#A52A2A" d="M783 105l0 -2 1 2 0 -2 0 2 0 -2 1 2 0 -2 0 2 0 -2 1 2 0 -2 0 2 0 -2 1 2 0 -2 0 2 0 -2 1 2 0 -2 0 2 1 -2 0 2 0 -2 0 2 1 -2 0 2 0 -2 0 2 1 -2 0 2 0 -2 0 2 1 -2 0 2 0 -2 0 2 1 -2 0 2 0 -2 1 2 0 -2 0 2 0 -2 1 2 0 -2 0 2"/>
<path stroke="#A52A2A" d="M795 105l0 -2 1 2 0 -2 0 2 0 -2 1 2 0 -2 0 2 0 -2 1 2 0 -2 0 2 1 -2 0 2 0 -2 0 2 1 -2 0 2 0 -2 0 2 1 -2 0 2 0 -2 0 2 1 -2 0 2 0 -2 1 2 0 -2 0 2 0 -2 1 2 0 -1 0 1 0 -1 1 1 0 -1 0 1 0 -1 1 1 0 -1 0 1 0 -1 1 1 0 -1 0 1"/>
<path stroke="#A52A2A" d="M807 105l1 -1 0 1 0 -1 0 1 1 -1 0 1 0 -1 0 1 1 -1 0 1 0 -1 0 1 1 -1 0 1 0 -1 0 1 1 -1 0 1 0 -1 1 1 0 -1 0 1 0 -1 1 1 0 -1 0 1 0 -1 1 1 0 -1 0 1 0 -1 1 1 0 -1 0 1 1 -1 0 1 0 -1 0 1 1 -1 0 1 0 -1 0 1 1 -1 0 1 0 -1 0 1"/>
<path stroke="#A52A2A" d="M819 105l1 -1 0 1 0 -1 0 1 1 -1 0 1 0 -1 1 1 0 -1 0 1 0 -1 1 1 0 -1 0 1 0 -1 1 1 0 -1 0 1 0 -1 1 1 0 -1 0 1 0 -1 1 1 0 -1 0 1 1 -1 0 1 0 -1 0 1 1 0 1 0 1 0 0 1 1 -1 0 1 0 -1 1 1 0 -1 0 1 0 -1 1 1 0 -1 0 1 0 -1 1 1 0 -1"/>
<path stroke="#A52A2A" d="M834 105l0 1 0 -1 1 1 0 -1 0 1 1 -1 0 1 1 0 1 0 0 1 0 -1 0 1 1 -1 0 1 0 -1 0 1 1 -1 0 1 0 -1 1 1 1 0 1 1 0 -1 0 1 0 -1 1 1 0 -1 0 1 1 0 1 0 0 1 0 -1 0 1 1 -1 0 1 0 -1 0 1 1 0 1 0 0 1 0 -1 1 1 1 0 0 1 0 -1 1 1 1 1 0 -1"/>
<path stroke="#A52A2A" d="M853 111l0 1 1 0 1 0 0 1 1 0 0 1 1 0 0 1 1 -1 0 1 0 1 1 -1 0 1 1 0 0 1 1 0 0 1 1 0 0 1 1 1 1 1 0 1 1 0 0 1 1 0 0 1 1 1 0 1 1 0 0 1 0 1 1 0 0 1 1 1 0 1 1 1 0 1 0 1 1 0 0 1 0 1 1 1 0 1 0 1 1 1 0 1 0 1 1 1 0 1 0 1 0 1 1 1"/>
<path stroke="#A52A2A" d="M876 147l0 1 0 1 0 1 1 1 0 1 0 2 0 1 1 1 0 2 0 2 1 1 0 2 0 2 0 2 1 2 0 2 0 3 0 2 1 3 0 2 0 3 0 3 1 3 0 2 0 3 0 3 1 3 0 4 0 3 1 3 0 3 0 3 0 3 1 4 0 3 0 3 0 3 1 4 0 3 0 4 0 3 1 3 0 4 0 4 0 3 1 4 0 4 0 5 1 5 0 5 0 7 0 11"/>
<path stroke="#A52A2A" d="M889 302l0 2 0 6 1 16 0 9 0 222 0 48 0 1 0 3 0 -2 0 2 0 -4 0 -22 0 -479 1 0 1 0 1 0 1 0 1 0 1 0 1 0 1 0 1 0 1 0 1 0 1 0 1 0 1 0 1 0 1 0 1 0 1 0 1 0 1 0 1 0 1 0 1 0 1 0 1 0 1 0 1 0 1 0 1 0 1 0 1 0 1 0 1 0 1 0 1 0 1 0"/>
<path stroke="#A52A2A" d="M926 104l1 0 1 0 1 0 1 0 1 0 1 0 1 0 1 0 1 0 1 0 1 0 1 0 1 0 1 0 1 0 1 0 1 0 1 0 1 0 1 0 1 0 1 0 1 0 1 0 1 0 1 0 1 0 1 0 1 0 1 0 1 0 1 0 1 0 1 0 1 0 1 0 1 0 1 0 1 0 1 0 1 0 1 0 1 0 1 0 1 0 1 0 1 0 1 0"/>
</svg>
