<?xml version="1.0" standalone="yes"?>
<!DOCTYPE svg PUBLIC "-//W3C//DTD SVG 1.1//EN"
 "http://www.w3.org/Graphics/SVG/1.1/DTD/svg11.dtd">
<svg xmlns="http://www.w3.org/2000/svg" version="1.1"
  width="100%" height="100%" viewBox="0 0 1024 768"
  style="fill: none; font-family: Helvetica;
 font: Helvetica;
">

<!-- Creator: NGspice -->

<rect x="0" y="0" width="1024" height="768" fill="black" stroke="none"/>
<text stroke="none" fill="white" font-size="16" x="358" y="752">
time
</text>
<text stroke="none" fill="white" font-size="16" x="10" y="16">
tran1: **.subckt axon_hillock
</text>
<path stroke="white" stroke-dasharray="1,2" d="M50 720l0 -672"/>
<text stroke="none" fill="white" font-size="16" x="20" y="728">
1.7280
</text>
<path stroke="white" stroke-dasharray="1,2" d="M182 720l0 -672"/>
<text stroke="none" fill="white" font-size="16" x="152" y="728">
1.7290
</text>
<path stroke="white" stroke-dasharray="1,2" d="M314 720l0 -672"/>
<text stroke="none" fill="white" font-size="16" x="284" y="728">
1.7300
</text>
<path stroke="white" stroke-dasharray="1,2" d="M446 720l0 -672"/>
<text stroke="none" fill="white" font-size="16" x="416" y="728">
1.7310
</text>
<path stroke="white" stroke-dasharray="1,2" d="M578 720l0 -672"/>
<text stroke="none" fill="white" font-size="16" x="548" y="728">
1.7320
</text>
<path stroke="white" stroke-dasharray="1,2" d="M710 720l0 -672"/>
<text stroke="none" fill="white" font-size="16" x="680" y="728">
1.7330
</text>
<path stroke="white" stroke-dasharray="1,2" d="M842 720l0 -672"/>
<text stroke="none" fill="white" font-size="16" x="812" y="728">
1.7340
</text>
<path stroke="white" stroke-dasharray="1,2" d="M974 720l0 -672"/>
<text stroke="none" fill="white" font-size="16" x="944" y="728">
1.7350
</text>
<text stroke="none" fill="white" font-size="16" x="614" y="752">
ms
</text>
<path stroke="white" stroke-dasharray="1,2" d="M50 720l924 0"/>
<text stroke="none" fill="white" font-size="16" x="8" y="728">
-1.0
</text>
<path stroke="white" stroke-dasharray="1,2" d="M50 624l924 0"/>
<text stroke="none" fill="white" font-size="16" x="8" y="632">
-0.5
</text>
<path stroke="white" d="M50 528l924 0"/>
<text stroke="none" fill="white" font-size="16" x="18" y="536">
0.0
</text>
<path stroke="white" stroke-dasharray="1,2" d="M50 432l924 0"/>
<text stroke="none" fill="white" font-size="16" x="18" y="440">
0.5
</text>
<path stroke="white" stroke-dasharray="1,2" d="M50 336l924 0"/>
<text stroke="none" fill="white" font-size="16" x="18" y="344">
1.0
</text>
<path stroke="white" stroke-dasharray="1,2" d="M50 240l924 0"/>
<text stroke="none" fill="white" font-size="16" x="18" y="248">
1.5
</text>
<path stroke="white" stroke-dasharray="1,2" d="M50 144l924 0"/>
<text stroke="none" fill="white" font-size="16" x="18" y="152">
2.0
</text>
<path stroke="white" stroke-dasharray="1,2" d="M50 48l924 0"/>
<text stroke="none" fill="white" font-size="16" x="18" y="56">
2.5
</text>
<text stroke="none" fill="white" font-size="16" x="10" y="32">
V
</text>
<path stroke="red" d="M462 23l46 0"/>
<text stroke="none" fill="white" font-size="16" x="518" y="32">
mem
</text>
<path stroke="red" d="M50 424l2 0 1 0 1 0 2 0 1 -1 1 0 1 0 2 0 1 0 1 0 2 -1 1 0 1 0 2 0 1 0 1 -1 2 0 1 0 1 0 2 0 1 -1 1 0 2 0 1 0 1 0 2 -1 1 0 1 0 2 0 1 0 1 -1 1 0 2 0 1 0 1 0 2 -1 1 0 1 0 2 0 1 0 1 0 2 -1 1 0 1 0 2 0 1 0 1 -1 2 0 1 0 1 0 2 0"/>
<path stroke="red" d="M118 415l1 -1 1 0 2 0 1 0 1 0 1 -1 2 0 1 0 1 0 2 0 1 -1 1 0 2 0 1 0 1 0 2 0 1 -1 1 0 2 0 1 0 1 0 2 -1 1 0 1 0 2 0 1 0 1 -1 2 0 1 0 1 0 1 0 2 -1 1 0 1 0 2 0 1 0 1 0 2 -1 1 0 1 0 2 0 1 0 1 -1 2 0 1 0 1 0 2 0 1 -1 1 0 2 0 1 0"/>
<path stroke="red" d="M185 405l1 0 2 -1 1 0 1 0 1 0 2 0 1 0 1 -1 2 0 1 0 1 0 2 0 1 -1 1 0 2 0 1 0 1 0 2 -1 1 0 1 0 2 0 1 0 1 -1 2 0 1 0 1 0 2 0 1 0 1 -1 1 0 2 0 1 0 1 0 2 -1 1 0 1 0 2 0 1 0 1 -1 2 0 1 0 1 0 2 0 1 -1 1 0 2 0 1 0 1 0 2 0 1 -1 1 0"/>
<path stroke="red" d="M252 395l2 0 1 0 1 0 1 -1 2 0 1 0 1 0 2 0 1 -1 1 0 2 0 1 0 1 0 2 -1 1 0 1 0 2 0 1 0 1 0 2 -1 1 0 1 0 2 0 1 0 1 -1 2 0 1 0 1 0 1 0 2 -1 1 0 1 0 2 0 1 0 1 0 2 -1 1 0 1 0 2 0 1 0 1 -1 2 0 1 0 1 0 2 0 1 -1 1 0 2 0 1 0 1 0 2 0"/>
<path stroke="red" d="M320 386l1 -1 1 0 1 0 2 0 1 0 1 -1 2 0 1 0 1 0 2 0 1 -1 1 0 2 0 1 0 1 0 2 0 1 -1 1 0 2 0 1 0 1 0 2 -1 1 0 1 0 2 0 1 0 1 -1 1 0 2 0 1 0 1 0 2 0 1 -1 1 0 2 0 1 0 1 0 2 -1 1 0 1 0 2 0 1 0 1 -1 2 0 1 0 1 0 2 0 1 0 1 -1 2 0 1 0"/>
<path stroke="red" d="M387 376l1 0 1 0 2 -1 1 0 1 0 2 0 1 0 1 -1 2 0 1 0 1 0 2 0 1 0 1 -1 2 0 1 0 1 0 2 0 1 -1 1 0 2 0 1 0 1 0 2 -1 1 0 1 0 1 0 2 0 1 -1 1 0 2 0 1 0 1 0 2 -1 1 0 1 0 2 -1 1 0 1 -85 1 -13 1 82 1 138 1 52 1 -19 0 8 1 -1 1 0 1 -1"/>
<path stroke="red" d="M446 529l2 0 1 0 1 0 2 0 1 -1 1 0 2 0 1 0 1 -1 2 0 1 0 1 0 1 0 2 -1 1 0 1 0 2 0 1 0 1 -1 2 0 1 0 1 0 2 0 1 -1 1 0 2 0 1 0 1 -1 2 0 1 0 1 0 2 0 1 -1 1 0 2 0 1 0 1 0 1 -1 2 0 1 0 1 0 2 0 1 -1 1 0 2 0 1 0 1 0 2 -1 1 0 1 0 2 0"/>
<path stroke="red" d="M514 519l1 -1 1 0 2 0 1 0 1 0 2 -1 1 0 1 0 2 0 1 0 1 -1 1 0 2 0 1 0 1 0 2 -1 1 0 1 0 2 0 1 0 1 -1 2 0 1 0 1 0 2 -1 1 0 1 0 2 0 1 0 1 -1 2 0 1 0 1 0 2 0 1 -1 1 0 1 0 2 0 1 0 1 -1 2 0 1 0 1 0 2 0 1 -1 1 0 2 0 1 0 1 0 2 -1"/>
<path stroke="red" d="M580 508l1 0 1 0 2 0 1 -1 1 0 2 0 1 0 1 0 2 -1 1 0 1 0 1 0 2 0 1 -1 1 0 2 0 1 0 1 0 2 -1 1 0 1 0 2 0 1 0 1 -1 2 0 1 0 1 0 2 0 1 -1 1 0 2 0 1 0 1 0 2 -1 1 0 1 0 1 0 2 -1 1 0 1 0 2 0 1 0 1 -1 2 0 1 0 1 0 2 0 1 -1 1 0 2 0 1 0"/>
<path stroke="red" d="M647 498l1 0 2 -1 1 0 1 0 2 0 1 0 1 -1 2 0 1 0 1 0 1 0 2 -1 1 0 1 0 2 0 1 0 1 -1 2 0 1 0 1 0 2 0 1 -1 1 0 2 0 1 0 1 -1 2 0 1 0 1 0 2 0 1 -1 1 0 2 0 1 0 1 0 1 -1 2 0 1 0 1 0 2 0 1 -1 1 0 2 0 1 0 1 0 2 -1 1 0 1 0 2 0 1 0 1 -1"/>
<path stroke="red" d="M714 487l2 0 1 0 1 0 2 0 1 -1 1 0 2 0 1 0 1 0 1 -1 2 0 1 0 1 0 2 0 1 -1 1 0 2 0 1 0 1 0 2 -1 1 0 1 0 2 0 1 0 1 -1 2 0 1 0 1 0 2 -1 1 0 1 0 2 0 1 0 1 -1 1 0 2 0 1 0 1 0 2 -1 1 0 1 0 2 0 1 0 1 -1 2 0 1 0 1 0 2 0 1 -1 1 0 2 0"/>
<path stroke="red" d="M782 477l1 0 1 0 2 -1 1 0 1 0 2 0 1 0 1 -1 1 0 2 0 1 0 1 0 2 -1 1 0 1 0 2 0 1 0 1 -1 2 0 1 0 1 0 2 0 1 -1 1 0 2 0 1 0 1 0 2 -1 1 0 1 0 2 0 1 0 1 -1 1 0 2 0 1 0 1 0 2 -1 1 0 1 0 2 0 1 0 1 -1 2 0 1 0 1 0 2 0 1 -1 1 0 2 0 1 0"/>
<path stroke="red" d="M849 467l1 0 2 -1 1 0 1 0 2 0 1 0 1 -1 1 0 2 0 1 0 1 0 2 -1 1 0 1 0 2 0 1 0 1 -1 2 0 1 0 1 0 2 0 1 -1 1 0 2 0 1 0 1 0 2 -1 1 0 1 0 2 0 1 0 1 -1 1 0 2 0 1 0 1 0 2 -1 1 0 1 0 2 0 1 0 1 -1 2 0 1 0 1 0 2 0 1 -1 1 0 2 0 1 0 1 0"/>
<path stroke="red" d="M916 457l2 -1 1 0 1 0 2 0 1 0 1 -1 1 0 2 0 1 0 1 0 2 -1 1 0 1 0 2 0 1 0 1 -1 2 0 1 0 1 0 2 0 1 -1 1 0 2 0 1 0 1 0 2 -1 1 0 1 0 2 0 1 0 1 -1 1 0 2 0 1 0 1 0 2 -1 1 0 1 0 2 0 1 0 1 -1 2 0 1 0 1 0"/>
<path stroke="blue" d="M50 23l46 0"/>
<text stroke="none" fill="white" font-size="16" x="106" y="32">
out
</text>
<path stroke="blue" d="M50 528l2 0 1 0 1 0 2 0 1 0 1 0 1 0 2 0 1 0 1 0 2 0 1 0 1 0 2 0 1 0 1 0 2 0 1 0 1 0 2 0 1 0 1 0 2 0 1 0 1 0 2 0 1 0 1 0 2 0 1 0 1 0 1 0 2 0 1 0 1 0 2 0 1 0 1 0 2 0 1 0 1 0 2 0 1 0 1 0 2 0 1 0 1 0 2 0 1 0 1 0 2 0 1 0 1 0"/>
<path stroke="blue" d="M120 528l2 0 1 0 1 0 1 0 2 0 1 0 1 0 2 0 1 0 1 0 2 0 1 0 1 0 2 0 1 0 1 0 2 0 1 0 1 0 2 0 1 0 1 0 2 0 1 0 1 0 2 0 1 0 1 0 1 0 2 0 1 0 1 0 2 0 1 0 1 0 2 0 1 0 1 0 2 0 1 0 1 0 2 0 1 0 1 0 2 0 1 0 1 0 2 0 1 0 1 0 2 0 1 0 1 0"/>
<path stroke="blue" d="M190 528l1 0 2 0 1 0 1 0 2 0 1 0 1 0 2 0 1 0 1 0 2 0 1 0 1 0 2 0 1 0 1 0 2 0 1 0 1 0 2 0 1 0 1 0 2 0 1 0 1 0 1 0 2 0 1 0 1 0 2 0 1 0 1 0 2 0 1 0 1 0 2 0 1 0 1 0 2 0 1 0 1 0 2 0 1 0 1 0 2 0 1 0 1 0 2 0 1 0 1 0 1 0 2 0 1 0"/>
<path stroke="blue" d="M260 528l1 0 2 0 1 0 1 0 2 0 1 0 1 0 2 0 1 0 1 0 2 0 1 0 1 0 2 0 1 0 1 0 2 0 1 0 1 0 2 0 1 0 1 0 1 0 2 0 1 0 1 0 2 0 1 0 1 0 2 0 1 0 1 0 2 0 1 0 1 0 2 0 1 0 1 0 2 0 1 0 1 0 2 0 1 0 1 0 2 0 1 0 1 0 1 0 2 0 1 0 1 0 2 0 1 0"/>
<path stroke="blue" d="M330 528l1 0 2 0 1 0 1 0 2 0 1 0 1 0 2 0 1 0 1 0 2 0 1 0 1 0 2 0 1 0 1 0 2 0 1 0 1 0 1 0 2 0 1 0 1 0 2 0 1 0 1 0 2 0 1 0 1 0 2 0 1 0 1 0 2 0 1 0 1 0 2 0 1 0 1 0 2 0 1 0 1 0 2 0 1 0 1 0 1 0 2 0 1 0 1 0 2 0 1 0 1 0 2 0 1 0"/>
<path stroke="blue" d="M400 528l1 0 2 0 1 0 1 0 2 0 1 0 1 0 2 0 1 0 1 0 2 0 1 0 1 0 2 0 1 0 1 0 1 0 2 0 1 0 1 0 2 0 1 0 1 -1 2 0 1 0 1 0 2 -1 1 -1 1 -198 1 -123 1 24 1 219 1 104 1 -37 0 17 1 -2 0 -1 1 0 1 0 2 0 1 0 1 0 2 0 1 0 1 0 2 0 1 0 1 0"/>
<path stroke="blue" d="M458 528l2 0 1 0 1 0 1 0 2 0 1 0 1 0 2 0 1 0 1 0 2 0 1 0 1 0 2 0 1 0 1 0 2 0 1 0 1 0 2 0 1 0 1 0 2 0 1 0 1 0 2 0 1 0 1 0 1 0 2 0 1 0 1 0 2 0 1 0 1 0 2 0 1 0 1 0 2 0 1 0 1 0 2 0 1 0 1 0 2 0 1 0 1 0 2 0 1 0 1 0 2 0 1 0 1 0"/>
<path stroke="blue" d="M528 528l1 0 2 0 1 0 1 0 2 0 1 0 1 0 2 0 1 0 1 0 2 0 1 0 1 0 2 0 1 0 1 0 2 0 1 0 1 0 2 0 1 0 1 0 2 0 1 0 1 0 1 0 2 0 1 0 1 0 2 0 1 0 1 0 2 0 1 0 1 0 2 0 1 0 1 0 2 0 1 0 1 0 2 0 1 0 1 0 2 0 1 0 1 0 2 0 1 0 1 0 1 0 2 0 1 0"/>
<path stroke="blue" d="M598 528l1 0 2 0 1 0 1 0 2 0 1 0 1 0 2 0 1 0 1 0 2 0 1 0 1 0 2 0 1 0 1 0 2 0 1 0 1 0 2 0 1 0 1 0 1 0 2 0 1 0 1 0 2 0 1 0 1 0 2 0 1 0 1 0 2 0 1 0 1 0 2 0 1 0 1 0 2 0 1 0 1 0 2 0 1 0 1 0 2 0 1 0 1 0 1 0 2 0 1 0 1 0 2 0 1 0"/>
<path stroke="blue" d="M668 528l1 0 2 0 1 0 1 0 2 0 1 0 1 0 2 0 1 0 1 0 2 0 1 0 1 0 2 0 1 0 1 0 2 0 1 0 1 0 1 0 2 0 1 0 1 0 2 0 1 0 1 0 2 0 1 0 1 0 2 0 1 0 1 0 2 0 1 0 1 0 2 0 1 0 1 0 2 0 1 0 1 0 2 0 1 0 1 0 1 0 2 0 1 0 1 0 2 0 1 0 1 0 2 0 1 0"/>
<path stroke="blue" d="M738 528l1 0 2 0 1 0 1 0 2 0 1 0 1 0 2 0 1 0 1 0 2 0 1 0 1 0 2 0 1 0 1 0 1 0 2 0 1 0 1 0 2 0 1 0 1 0 2 0 1 0 1 0 2 0 1 0 1 0 2 0 1 0 1 0 2 0 1 0 1 0 2 0 1 0 1 0 2 0 1 0 1 0 1 0 2 0 1 0 1 0 2 0 1 0 1 0 2 0 1 0 1 0 2 0 1 0"/>
<path stroke="blue" d="M808 528l1 0 2 0 1 0 1 0 2 0 1 0 1 0 2 0 1 0 1 0 2 0 1 0 1 0 1 0 2 0 1 0 1 0 2 0 1 0 1 0 2 0 1 0 1 0 2 0 1 0 1 0 2 0 1 0 1 0 2 0 1 0 1 0 2 0 1 0 1 0 2 0 1 0 1 0 1 0 2 0 1 0 1 0 2 0 1 0 1 0 2 0 1 0 1 0 2 0 1 0 1 0 2 0 1 0"/>
<path stroke="blue" d="M878 528l1 0 2 0 1 0 1 0 2 0 1 0 1 0 2 0 1 0 1 0 1 0 2 0 1 0 1 0 2 0 1 0 1 0 2 0 1 0 1 0 2 0 1 0 1 0 2 0 1 0 1 0 2 0 1 0 1 0 2 0 1 0 1 0 2 0 1 0 1 0 1 0 2 0 1 0 1 0 2 0 1 0 1 0 2 0 1 0 1 0 2 0 1 0 1 0 2 0 1 0 1 0 2 0 1 0"/>
<path stroke="blue" d="M948 528l1 0 2 0 1 0 1 0 2 0 1 0 1 0 1 0 2 0 1 0 1 0 2 0 1 0 1 0 2 0 1 0 1 0 2 0 1 0 1 0"/>
<path stroke="#FFA500" d="M462 39l46 0"/>
<text stroke="none" fill="white" font-size="16" x="518" y="48">
sens
</text>
<path stroke="#FFA500" d="M50 442l2 0 1 0 1 0 2 0 1 0 1 0 1 0 2 0 1 0 1 0 2 0 1 0 1 0 2 0 1 0 1 0 2 0 1 0 1 0 2 0 1 0 1 0 2 0 1 0 1 0 2 0 1 0 1 0 2 0 1 0 1 0 1 0 2 0 1 0 1 0 2 0 1 0 1 0 2 0 1 0 1 0 2 0 1 0 1 0 2 0 1 0 1 0 2 0 1 0 1 0 2 0 1 0"/>
<path stroke="#FFA500" d="M119 442l1 0 2 0 1 0 1 0 1 0 2 0 1 0 1 0 2 0 1 0 1 0 2 0 1 0 1 0 2 0 1 0 1 0 2 0 1 0 1 0 2 0 1 0 1 0 2 0 1 0 1 0 2 0 1 0 1 0 1 0 2 0 1 0 1 0 2 0 1 0 1 0 2 0 1 0 1 0 2 0 1 0 1 0 2 0 1 0 1 0 2 0 1 0 1 0 2 0 1 0 1 0 2 0"/>
<path stroke="#FFA500" d="M188 442l1 0 1 0 1 0 2 0 1 0 1 0 2 0 1 0 1 0 2 0 1 0 1 0 2 0 1 0 1 0 2 0 1 0 1 0 2 0 1 0 1 0 2 0 1 0 1 0 2 0 1 0 1 0 1 0 2 0 1 0 1 0 2 0 1 0 1 0 2 0 1 0 1 0 2 0 1 0 1 0 2 0 1 0 1 0 2 0 1 0 1 0 2 0 1 0 1 0 2 0 1 0 1 0"/>
<path stroke="#FFA500" d="M256 442l1 0 2 0 1 0 1 0 2 0 1 0 1 0 2 0 1 0 1 0 2 0 1 0 1 0 2 0 1 0 1 0 2 0 1 0 1 0 2 0 1 0 1 0 2 0 1 0 1 0 1 0 2 0 1 0 1 0 2 0 1 0 1 0 2 0 1 0 1 0 2 0 1 0 1 0 2 0 1 0 1 0 2 0 1 0 1 0 2 0 1 0 1 0 2 0 1 0 1 0 1 0 2 0"/>
<path stroke="#FFA500" d="M325 442l1 0 1 0 2 0 1 0 1 0 2 0 1 0 1 0 2 0 1 0 1 0 2 0 1 0 1 0 2 0 1 0 1 0 2 0 1 0 1 0 2 0 1 0 1 0 1 0 2 0 1 0 1 0 2 0 1 0 1 0 2 0 1 0 1 0 2 0 1 0 1 0 2 0 1 0 1 0 2 0 1 0 1 0 2 0 1 0 1 0 2 0 1 0 1 0 1 0 2 0 1 0 1 0"/>
<path stroke="#FFA500" d="M393 442l2 0 1 0 1 0 2 0 1 0 1 0 2 0 1 0 1 0 2 0 1 0 1 0 2 0 1 0 1 0 2 0 1 0 1 0 2 0 1 0 1 0 1 0 2 0 1 0 1 0 2 0 1 0 1 0 2 0 1 0 1 0 2 0 1 0 1 0 1 0 1 0 1 0 1 0 1 0 1 0 1 0 1 0 2 0 1 0 1 0 2 0 1 0 1 0 2 0 1 0 1 0 2 0"/>
<path stroke="#FFA500" d="M460 442l1 0 1 0 1 0 2 0 1 0 1 0 2 0 1 0 1 0 2 0 1 0 1 0 2 0 1 0 1 0 2 0 1 0 1 0 2 0 1 0 1 0 2 0 1 0 1 0 2 0 1 0 1 0 1 0 2 0 1 0 1 0 2 0 1 0 1 0 2 0 1 0 1 0 2 0 1 0 1 0 2 0 1 0 1 0 2 0 1 0 1 0 2 0 1 0 1 0 2 0 1 0 1 0"/>
<path stroke="#FFA500" d="M528 442l1 0 2 0 1 0 1 0 2 0 1 0 1 0 2 0 1 0 1 0 2 0 1 0 1 0 2 0 1 0 1 0 2 0 1 0 1 0 2 0 1 0 1 0 2 0 1 0 1 0 1 0 2 0 1 0 1 0 2 0 1 0 1 0 2 0 1 0 1 0 2 0 1 0 1 0 2 0 1 0 1 0 2 0 1 0 1 0 2 0 1 0 1 0 2 0 1 0 1 0 1 0 2 0"/>
<path stroke="#FFA500" d="M597 442l1 0 1 0 2 0 1 0 1 0 2 0 1 0 1 0 2 0 1 0 1 0 2 0 1 0 1 0 2 0 1 0 1 0 2 0 1 0 1 0 2 0 1 0 1 0 1 0 2 0 1 0 1 0 2 0 1 0 1 0 2 0 1 0 1 0 2 0 1 0 1 0 2 0 1 0 1 0 2 0 1 0 1 0 2 0 1 0 1 0 2 0 1 0 1 0 1 0 2 0 1 0 1 0"/>
<path stroke="#FFA500" d="M665 442l2 0 1 0 1 0 2 0 1 0 1 0 2 0 1 0 1 0 2 0 1 0 1 0 2 0 1 0 1 0 2 0 1 0 1 0 2 0 1 0 1 0 1 0 2 0 1 0 1 0 2 0 1 0 1 0 2 0 1 0 1 0 2 0 1 0 1 0 2 0 1 0 1 0 2 0 1 0 1 0 2 0 1 0 1 0 2 0 1 0 1 0 1 0 2 0 1 0 1 0 2 0 1 0"/>
<path stroke="#FFA500" d="M734 442l1 0 2 0 1 0 1 0 2 0 1 0 1 0 2 0 1 0 1 0 2 0 1 0 1 0 2 0 1 0 1 0 2 0 1 0 1 0 1 0 2 0 1 0 1 0 2 0 1 0 1 0 2 0 1 0 1 0 2 0 1 0 1 0 2 0 1 0 1 0 2 0 1 0 1 0 2 0 1 0 1 0 2 0 1 0 1 0 1 0 2 0 1 0 1 0 2 0 1 0 1 0 2 0"/>
<path stroke="#FFA500" d="M803 442l1 0 1 0 2 0 1 0 1 0 2 0 1 0 1 0 2 0 1 0 1 0 2 0 1 0 1 0 2 0 1 0 1 0 1 0 2 0 1 0 1 0 2 0 1 0 1 0 2 0 1 0 1 0 2 0 1 0 1 0 2 0 1 0 1 0 2 0 1 0 1 0 2 0 1 0 1 0 2 0 1 0 1 0 1 0 2 0 1 0 1 0 2 0 1 0 1 0 2 0 1 0 1 0"/>
<path stroke="#FFA500" d="M871 442l2 0 1 0 1 0 2 0 1 0 1 0 2 0 1 0 1 0 2 0 1 0 1 0 2 0 1 0 1 0 1 0 2 0 1 0 1 0 2 0 1 0 1 0 2 0 1 0 1 0 2 0 1 0 1 0 2 0 1 0 1 0 2 0 1 0 1 0 2 0 1 0 1 0 2 0 1 0 1 0 1 0 2 0 1 0 1 0 2 0 1 0 1 0 2 0 1 0 1 0 2 0 1 0"/>
<path stroke="#FFA500" d="M940 442l1 0 2 0 1 0 1 0 2 0 1 0 1 0 2 0 1 0 1 0 2 0 1 0 1 0 1 0 2 0 1 0 1 0 2 0 1 0 1 0 2 0 1 0 1 0 2 0 1 0 1 0"/>
<path stroke="green" d="M50 39l46 0"/>
<text stroke="none" fill="white" font-size="16" x="106" y="48">
gcasc
</text>
<path stroke="green" d="M50 254l2 0 1 0 1 0 2 0 1 0 1 0 1 0 2 0 1 0 1 0 2 0 1 0 1 0 2 0 1 0 1 0 2 0 1 0 1 0 2 0 1 0 1 0 2 0 1 0 1 0 2 0 1 0 1 0 2 0 1 0 1 0 1 0 2 0 1 0 1 0 2 0 1 0 1 0 2 0 1 0 1 0 2 0 1 0 1 0 2 0 1 0 1 0 2 0 1 0 1 0 2 0 1 0 1 0"/>
<path stroke="green" d="M120 254l2 0 1 0 1 0 1 0 2 0 1 0 1 0 2 0 1 0 1 0 2 0 1 0 1 0 2 0 1 0 1 0 2 0 1 0 1 0 2 0 1 0 1 0 2 0 1 0 1 0 2 0 1 0 1 0 1 0 2 0 1 0 1 0 2 0 1 0 1 0 2 0 1 0 1 0 2 0 1 0 1 0 2 0 1 0 1 0 2 0 1 0 1 0 2 0 1 0 1 0 2 0 1 0 1 0"/>
<path stroke="green" d="M190 254l1 0 2 0 1 0 1 0 2 0 1 0 1 0 2 0 1 0 1 0 2 0 1 0 1 0 2 0 1 0 1 0 2 0 1 0 1 0 2 0 1 0 1 0 2 0 1 0 1 0 1 0 2 0 1 0 1 0 2 0 1 0 1 0 2 0 1 0 1 0 2 0 1 0 1 0 2 0 1 0 1 0 2 0 1 0 1 0 2 0 1 0 1 0 2 0 1 0 1 0 1 0 2 0 1 0"/>
<path stroke="green" d="M260 254l1 0 2 0 1 0 1 0 2 0 1 0 1 0 2 0 1 0 1 0 2 0 1 0 1 0 2 0 1 0 1 0 2 0 1 0 1 0 2 0 1 0 1 0 1 0 2 0 1 0 1 0 2 0 1 0 1 0 2 0 1 0 1 0 2 0 1 0 1 0 2 0 1 0 1 0 2 0 1 0 1 0 2 0 1 0 1 0 2 0 1 0 1 0 1 0 2 0 1 0 1 0 2 0 1 0"/>
<path stroke="green" d="M330 254l1 0 2 0 1 0 1 0 2 0 1 0 1 0 2 0 1 0 1 0 2 0 1 0 1 0 2 0 1 0 1 0 2 0 1 0 1 0 1 0 2 0 1 0 1 0 2 0 1 0 1 0 2 0 1 0 1 0 2 0 1 0 1 0 2 0 1 0 1 0 2 0 1 0 1 0 2 0 1 0 1 0 2 0 1 0 1 0 1 0 2 0 1 0 1 0 2 0 1 0 1 0 2 0 1 0"/>
<path stroke="green" d="M400 254l1 0 2 0 1 0 1 0 2 0 1 0 1 0 2 0 1 0 1 0 2 0 1 0 1 0 2 0 1 0 1 0 1 0 2 0 1 0 1 0 2 0 1 0 1 0 2 0 1 0 1 0 2 0 1 0 1 0 1 0 1 0 1 0 1 0 1 0 1 0 1 0 1 0 2 0 1 0 1 0 2 0 1 0 1 0 2 0 1 0 1 0 2 0 1 0 1 0 1 0 2 0 1 0 1 0"/>
<path stroke="green" d="M467 254l2 0 1 0 1 0 2 0 1 0 1 0 2 0 1 0 1 0 2 0 1 0 1 0 2 0 1 0 1 0 2 0 1 0 1 0 2 0 1 0 1 0 1 0 2 0 1 0 1 0 2 0 1 0 1 0 2 0 1 0 1 0 2 0 1 0 1 0 2 0 1 0 1 0 2 0 1 0 1 0 2 0 1 0 1 0 2 0 1 0 1 0 1 0 2 0 1 0 1 0 2 0 1 0 1 0"/>
<path stroke="green" d="M537 254l2 0 1 0 1 0 2 0 1 0 1 0 2 0 1 0 1 0 2 0 1 0 1 0 2 0 1 0 1 0 2 0 1 0 1 0 1 0 2 0 1 0 1 0 2 0 1 0 1 0 2 0 1 0 1 0 2 0 1 0 1 0 2 0 1 0 1 0 2 0 1 0 1 0 2 0 1 0 1 0 2 0 1 0 1 0 1 0 2 0 1 0 1 0 2 0 1 0 1 0 2 0 1 0 1 0"/>
<path stroke="green" d="M607 254l2 0 1 0 1 0 2 0 1 0 1 0 2 0 1 0 1 0 2 0 1 0 1 0 2 0 1 0 1 0 1 0 2 0 1 0 1 0 2 0 1 0 1 0 2 0 1 0 1 0 2 0 1 0 1 0 2 0 1 0 1 0 2 0 1 0 1 0 2 0 1 0 1 0 2 0 1 0 1 0 1 0 2 0 1 0 1 0 2 0 1 0 1 0 2 0 1 0 1 0 2 0 1 0 1 0"/>
<path stroke="green" d="M677 254l2 0 1 0 1 0 2 0 1 0 1 0 2 0 1 0 1 0 2 0 1 0 1 0 1 0 2 0 1 0 1 0 2 0 1 0 1 0 2 0 1 0 1 0 2 0 1 0 1 0 2 0 1 0 1 0 2 0 1 0 1 0 2 0 1 0 1 0 2 0 1 0 1 0 1 0 2 0 1 0 1 0 2 0 1 0 1 0 2 0 1 0 1 0 2 0 1 0 1 0 2 0 1 0 1 0"/>
<path stroke="green" d="M747 254l2 0 1 0 1 0 2 0 1 0 1 0 2 0 1 0 1 0 1 0 2 0 1 0 1 0 2 0 1 0 1 0 2 0 1 0 1 0 2 0 1 0 1 0 2 0 1 0 1 0 2 0 1 0 1 0 2 0 1 0 1 0 2 0 1 0 1 0 1 0 2 0 1 0 1 0 2 0 1 0 1 0 2 0 1 0 1 0 2 0 1 0 1 0 2 0 1 0 1 0 2 0 1 0 1 0"/>
<path stroke="green" d="M817 254l2 0 1 0 1 0 2 0 1 0 1 0 1 0 2 0 1 0 1 0 2 0 1 0 1 0 2 0 1 0 1 0 2 0 1 0 1 0 2 0 1 0 1 0 2 0 1 0 1 0 2 0 1 0 1 0 2 0 1 0 1 0 1 0 2 0 1 0 1 0 2 0 1 0 1 0 2 0 1 0 1 0 2 0 1 0 1 0 2 0 1 0 1 0 2 0 1 0 1 0 2 0 1 0 1 0"/>
<path stroke="green" d="M887 254l2 0 1 0 1 0 1 0 2 0 1 0 1 0 2 0 1 0 1 0 2 0 1 0 1 0 2 0 1 0 1 0 2 0 1 0 1 0 2 0 1 0 1 0 2 0 1 0 1 0 2 0 1 0 1 0 1 0 2 0 1 0 1 0 2 0 1 0 1 0 2 0 1 0 1 0 2 0 1 0 1 0 2 0 1 0 1 0 2 0 1 0 1 0 2 0 1 0 1 0 2 0 1 0 1 0"/>
<path stroke="green" d="M957 254l1 0 2 0 1 0 1 0 2 0 1 0 1 0 2 0 1 0 1 0 2 0 1 0 1 0"/>
<path stroke="#FFC0C5" d="M462 55l46 0"/>
<text stroke="none" fill="white" font-size="16" x="518" y="64">
mir
</text>
<path stroke="#FFC0C5" d="M50 367l2 0 1 0 1 0 2 0 1 0 1 0 1 0 2 0 1 0 1 0 2 0 1 0 1 0 2 0 1 0 1 0 2 0 1 0 1 0 2 0 1 0 1 0 2 0 1 0 1 0 2 0 1 0 1 0 2 0 1 0 1 0 1 0 2 0 1 0 1 0 2 0 1 0 1 0 2 0 1 0 1 0 2 0 1 0 1 0 2 0 1 0 1 0 2 0 1 0 1 0 2 0 1 0"/>
<path stroke="#FFC0C5" d="M119 367l1 0 2 0 1 0 1 0 1 0 2 0 1 0 1 0 2 0 1 0 1 0 2 0 1 0 1 0 2 0 1 0 1 0 2 0 1 0 1 0 2 0 1 0 1 0 2 0 1 0 1 0 2 0 1 0 1 0 1 0 2 0 1 0 1 0 2 0 1 0 1 0 2 0 1 0 1 0 2 0 1 0 1 0 2 0 1 0 1 0 2 0 1 0 1 0 2 0 1 0 1 0 2 0"/>
<path stroke="#FFC0C5" d="M188 367l1 0 1 0 1 0 2 0 1 0 1 0 2 0 1 0 1 0 2 0 1 0 1 0 2 0 1 0 1 0 2 0 1 0 1 0 2 0 1 0 1 0 2 0 1 0 1 0 2 0 1 0 1 0 1 0 2 0 1 0 1 0 2 0 1 0 1 0 2 0 1 0 1 0 2 0 1 0 1 0 2 0 1 0 1 0 2 0 1 0 1 0 2 0 1 0 1 0 2 0 1 0 1 0"/>
<path stroke="#FFC0C5" d="M256 367l1 0 2 0 1 0 1 0 2 0 1 0 1 0 2 0 1 0 1 0 2 0 1 0 1 0 2 0 1 0 1 0 2 0 1 0 1 0 2 0 1 0 1 0 2 0 1 0 1 0 1 0 2 0 1 0 1 0 2 0 1 0 1 0 2 0 1 0 1 0 2 0 1 0 1 0 2 0 1 0 1 0 2 0 1 0 1 0 2 0 1 0 1 0 2 0 1 0 1 0 1 0 2 0"/>
<path stroke="#FFC0C5" d="M325 367l1 0 1 0 2 0 1 0 1 0 2 0 1 0 1 0 2 0 1 0 1 0 2 0 1 0 1 0 2 0 1 0 1 0 2 0 1 0 1 0 2 0 1 0 1 0 1 0 2 0 1 0 1 0 2 0 1 0 1 0 2 0 1 0 1 0 2 0 1 0 1 0 2 0 1 0 1 0 2 0 1 0 1 0 2 0 1 0 1 0 2 0 1 0 1 0 1 0 2 0 1 0 1 0"/>
<path stroke="#FFC0C5" d="M393 367l2 0 1 0 1 0 2 0 1 0 1 0 2 0 1 0 1 0 2 0 1 0 1 0 2 0 1 0 1 0 2 0 1 0 1 0 2 0 1 0 1 0 1 0 2 0 1 0 1 0 2 0 1 0 1 0 2 0 1 0 1 0 2 0 1 0 1 0 1 0 1 0 1 0 1 0 1 0 1 0 1 0 1 0 2 0 1 0 1 0 2 0 1 0 1 0 2 0 1 0 1 0 2 0"/>
<path stroke="#FFC0C5" d="M460 367l1 0 1 0 1 0 2 0 1 0 1 0 2 0 1 0 1 0 2 0 1 0 1 0 2 0 1 0 1 0 2 0 1 0 1 0 2 0 1 0 1 0 2 0 1 0 1 0 2 0 1 0 1 0 1 0 2 0 1 0 1 0 2 0 1 0 1 0 2 0 1 0 1 0 2 0 1 0 1 0 2 0 1 0 1 0 2 0 1 0 1 0 2 0 1 0 1 0 2 0 1 0 1 0"/>
<path stroke="#FFC0C5" d="M528 367l1 0 2 0 1 0 1 0 2 0 1 0 1 0 2 0 1 0 1 0 2 0 1 0 1 0 2 0 1 0 1 0 2 0 1 0 1 0 2 0 1 0 1 0 2 0 1 0 1 0 1 0 2 0 1 0 1 0 2 0 1 0 1 0 2 0 1 0 1 0 2 0 1 0 1 0 2 0 1 0 1 0 2 0 1 0 1 0 2 0 1 0 1 0 2 0 1 0 1 0 1 0 2 0"/>
<path stroke="#FFC0C5" d="M597 367l1 0 1 0 2 0 1 0 1 0 2 0 1 0 1 0 2 0 1 0 1 0 2 0 1 0 1 0 2 0 1 0 1 0 2 0 1 0 1 0 2 0 1 0 1 0 1 0 2 0 1 0 1 0 2 0 1 0 1 0 2 0 1 0 1 0 2 0 1 0 1 0 2 0 1 0 1 0 2 0 1 0 1 0 2 0 1 0 1 0 2 0 1 0 1 0 1 0 2 0 1 0 1 0"/>
<path stroke="#FFC0C5" d="M665 367l2 0 1 0 1 0 2 0 1 0 1 0 2 0 1 0 1 0 2 0 1 0 1 0 2 0 1 0 1 0 2 0 1 0 1 0 2 0 1 0 1 0 1 0 2 0 1 0 1 0 2 0 1 0 1 0 2 0 1 0 1 0 2 0 1 0 1 0 2 0 1 0 1 0 2 0 1 0 1 0 2 0 1 0 1 0 2 0 1 0 1 0 1 0 2 0 1 0 1 0 2 0 1 0"/>
<path stroke="#FFC0C5" d="M734 367l1 0 2 0 1 0 1 0 2 0 1 0 1 0 2 0 1 0 1 0 2 0 1 0 1 0 2 0 1 0 1 0 2 0 1 0 1 0 1 0 2 0 1 0 1 0 2 0 1 0 1 0 2 0 1 0 1 0 2 0 1 0 1 0 2 0 1 0 1 0 2 0 1 0 1 0 2 0 1 0 1 0 2 0 1 0 1 0 1 0 2 0 1 0 1 0 2 0 1 0 1 0 2 0"/>
<path stroke="#FFC0C5" d="M803 367l1 0 1 0 2 0 1 0 1 0 2 0 1 0 1 0 2 0 1 0 1 0 2 0 1 0 1 0 2 0 1 0 1 0 1 0 2 0 1 0 1 0 2 0 1 0 1 0 2 0 1 0 1 0 2 0 1 0 1 0 2 0 1 0 1 0 2 0 1 0 1 0 2 0 1 0 1 0 2 0 1 0 1 0 1 0 2 0 1 0 1 0 2 0 1 0 1 0 2 0 1 0 1 0"/>
<path stroke="#FFC0C5" d="M871 367l2 0 1 0 1 0 2 0 1 0 1 0 2 0 1 0 1 0 2 0 1 0 1 0 2 0 1 0 1 0 1 0 2 0 1 0 1 0 2 0 1 0 1 0 2 0 1 0 1 0 2 0 1 0 1 0 2 0 1 0 1 0 2 0 1 0 1 0 2 0 1 0 1 0 2 0 1 0 1 0 1 0 2 0 1 0 1 0 2 0 1 0 1 0 2 0 1 0 1 0 2 0 1 0"/>
<path stroke="#FFC0C5" d="M940 367l1 0 2 0 1 0 1 0 2 0 1 0 1 0 2 0 1 0 1 0 2 0 1 0 1 0 1 0 2 0 1 0 1 0 2 0 1 0 1 0 2 0 1 0 1 0 2 0 1 0 1 0"/>
<path stroke="#A52A2A" d="M50 55l46 0"/>
<text stroke="none" fill="white" font-size="16" x="106" y="64">
inv
</text>
<path stroke="#A52A2A" d="M50 183l2 0 1 0 1 0 2 0 1 0 1 0 1 0 2 0 1 0 1 0 2 0 1 0 1 0 2 0 1 0 1 0 2 0 1 0 1 0 2 0 1 0 1 0 2 0 1 0 1 0 2 0 1 0 1 0 2 0 1 0 1 0 1 0 2 0 1 0 1 0 2 0 1 0 1 0 2 0 1 0 1 0 2 0 1 0 1 0 2 0 1 0 1 0 2 0 1 0 1 0 2 0 1 0"/>
<path stroke="#A52A2A" d="M119 183l1 0 2 0 1 0 1 0 1 0 2 0 1 0 1 0 2 0 1 0 1 0 2 0 1 0 1 0 2 0 1 0 1 0 2 0 1 0 1 0 2 0 1 0 1 0 2 0 1 0 1 0 2 0 1 0 1 0 1 0 2 1 1 0 1 0 2 0 1 0 1 0 2 0 1 0 1 0 2 0 1 0 1 0 2 0 1 0 1 0 2 0 1 0 1 0 2 0 1 0 1 0 2 0"/>
<path stroke="#A52A2A" d="M188 184l1 0 1 0 1 0 2 0 1 0 1 0 2 0 1 1 1 0 2 0 1 0 1 0 2 0 1 0 1 0 2 0 1 0 1 0 2 0 1 0 1 0 2 0 1 0 1 0 2 0 1 1 1 0 1 0 2 0 1 0 1 0 2 0 1 0 1 0 2 0 1 0 1 0 2 0 1 1 1 0 2 0 1 0 1 0 2 0 1 0 1 0 2 0 1 0 1 0 2 1 1 0 1 0"/>
<path stroke="#A52A2A" d="M256 188l1 0 2 0 1 0 1 0 2 0 1 0 1 1 2 0 1 0 1 0 2 0 1 0 1 0 2 0 1 1 1 0 2 0 1 0 1 0 2 0 1 0 1 1 2 0 1 0 1 0 1 0 2 0 1 1 1 0 2 0 1 0 1 0 2 1 1 0 1 0 2 0 1 0 1 1 2 0 1 0 1 0 2 1 1 0 1 0 2 0 1 0 1 1 2 0 1 0 1 1 1 0 2 0"/>
<path stroke="#A52A2A" d="M325 197l1 0 1 1 2 0 1 0 1 1 2 0 1 0 1 1 2 0 1 0 1 1 2 0 1 0 1 1 2 0 1 1 1 0 2 1 1 0 1 0 2 1 1 0 1 1 1 0 2 1 1 1 1 0 2 1 1 0 1 1 2 1 1 0 1 1 2 1 1 0 1 1 2 1 1 1 1 1 2 1 1 1 1 1 2 1 1 1 1 1 2 2 1 1 1 2 1 1 2 2 1 2 1 1"/>
<path stroke="#A52A2A" d="M393 234l2 2 1 2 1 2 2 2 1 2 1 2 2 2 1 2 1 2 2 2 1 2 1 2 2 3 1 2 1 2 2 2 1 2 1 3 2 2 1 2 1 3 1 2 2 2 1 3 1 2 2 3 1 3 1 2 2 3 1 4 1 3 2 5 1 9 1 208 1 0 1 -39 1 -306 1 -1 1 1 0 -1 1 1 0 -1 0 1 0 -1 0 1 0 -1 1 1 1 -1 2 1"/>
<path stroke="#A52A2A" d="M448 183l1 -1 1 1 2 -1 1 1 1 -1 2 1 1 -1 1 1 2 -1 1 1 1 -1 1 1 2 -1 1 1 1 -1 2 1 1 -1 1 1 2 -1 1 1 1 -1 2 1 1 -1 1 1 2 -1 1 1 1 -1 2 1 1 -1 1 1 2 -1 1 1 1 -1 2 1 1 -1 1 1 1 -1 2 1 1 -1 1 1 2 -1 1 1 1 -1 2 1 1 -1 1 1"/>
<path stroke="#A52A2A" d="M508 183l2 -1 1 1 1 -1 2 1 1 -1 1 1 2 -1 1 1 1 -1 2 1 1 -1 1 1 2 -1 1 1 1 -1 1 1 2 -1 1 1 1 -1 2 1 1 -1 1 1 2 -1 1 1 1 -1 2 1 1 -1 1 1 2 -1 1 1 1 -1 2 1 1 -1 1 1 2 -1 1 1 1 -1 2 1 1 -1 1 1 1 -1 2 1 1 -1 1 1 2 -1 1 1"/>
<path stroke="#A52A2A" d="M569 183l1 -1 2 1 1 -1 1 1 2 -1 1 1 1 -1 2 1 1 -1 1 1 2 -1 1 1 1 -1 2 1 1 -1 1 1 2 -1 1 1 1 -1 1 1 2 -1 1 1 1 -1 2 1 1 -1 1 1 2 -1 1 1 1 -1 2 1 1 -1 1 1 2 -1 1 1 1 -1 2 1 1 -1 1 1 2 -1 1 1 1 -1 2 1 1 -1 1 1 1 -1 2 1"/>
<path stroke="#A52A2A" d="M630 183l1 -1 1 1 2 -1 1 1 1 -1 2 1 1 -1 1 1 2 -1 1 1 1 -1 2 1 1 -1 1 1 2 -1 1 1 1 -1 2 1 1 -1 1 1 2 -1 1 1 1 -1 1 1 2 -1 1 1 1 -1 2 1 1 -1 1 1 2 -1 1 1 1 -1 2 1 1 -1 1 1 2 -1 1 1 1 -1 2 1 1 -1 1 1 2 -1 1 1 1 -1 2 1"/>
<path stroke="#A52A2A" d="M691 183l1 -1 1 1 1 -1 2 1 1 -1 1 1 2 -1 1 1 1 -1 2 1 1 -1 1 1 2 -1 1 1 1 -1 2 1 1 -1 1 1 2 -1 1 1 1 -1 2 1 1 -1 1 1 2 -1 1 1 1 -1 1 1 2 -1 1 1 1 -1 2 1 1 -1 1 1 2 -1 1 1 1 -1 2 1 1 -1 1 1 2 -1 1 1 1 -1 2 1 1 -1 1 1"/>
<path stroke="#A52A2A" d="M751 183l2 -1 1 1 1 -1 2 1 1 -1 1 1 1 -1 2 1 1 -1 1 1 2 -1 1 1 1 -1 2 1 1 -1 1 1 2 -1 1 1 1 -1 2 1 1 -1 1 1 2 -1 1 1 1 -1 2 1 1 -1 1 1 2 -1 1 1 1 -1 1 1 2 -1 1 1 1 -1 2 1 1 -1 1 1 2 -1 1 1 1 -1 2 1 1 -1 1 1 2 -1 1 1"/>
<path stroke="#A52A2A" d="M812 183l1 -1 2 1 1 -1 1 1 2 -1 1 1 1 -1 2 1 1 -1 1 1 1 -1 2 1 1 -1 1 1 2 -1 1 1 1 -1 2 1 1 -1 1 1 2 -1 1 1 1 -1 2 1 1 -1 1 1 2 -1 1 1 1 -1 2 1 1 -1 1 1 2 -1 1 1 1 -1 1 1 2 -1 1 1 1 -1 2 1 1 -1 1 1 2 -1 1 1 1 -1 2 1"/>
<path stroke="#A52A2A" d="M873 183l1 -1 1 1 2 -1 1 1 1 -1 2 1 1 -1 1 1 2 -1 1 1 1 -1 2 1 1 -1 1 1 1 -1 2 1 1 -1 1 1 2 -1 1 1 1 -1 2 1 1 -1 1 1 2 -1 1 1 1 -1 2 1 1 -1 1 1 2 -1 1 1 1 -1 2 1 1 -1 1 1 2 -1 1 1 1 -1 1 1 2 -1 1 1 1 -1 2 1 1 -1 1 1"/>
<path stroke="#A52A2A" d="M933 183l2 -1 1 1 1 -1 2 1 1 -1 1 1 2 -1 1 1 1 -1 2 1 1 -1 1 1 2 -1 1 1 1 -1 2 1 1 -1 1 1 1 -1 2 1 1 -1 1 1 2 -1 1 1 1 -1 2 1 1 -1 1 1 2 -1 1 1 1 -1"/>
</svg>
