<?xml version="1.0" standalone="yes"?>
<!DOCTYPE svg PUBLIC "-//W3C//DTD SVG 1.1//EN"
 "http://www.w3.org/Graphics/SVG/1.1/DTD/svg11.dtd">
<svg xmlns="http://www.w3.org/2000/svg" version="1.1"
  width="100%" height="100%" viewBox="0 0 1024 768"
  style="fill: none; font-family: Helvetica;
 font: Helvetica;
">

<!-- Creator: NGspice -->

<rect x="0" y="0" width="1024" height="768" fill="black" stroke="none"/>
<text stroke="none" fill="white" font-size="16" x="358" y="752">
time
</text>
<text stroke="none" fill="white" font-size="16" x="10" y="16">
tran1: **.subckt axon_hillock
</text>
<path stroke="white" d="M60 720l0 -671"/>
<text stroke="none" fill="white" font-size="16" x="45" y="728">
0.0
</text>
<path stroke="white" stroke-dasharray="1,2" d="M150 720l0 -671"/>
<text stroke="none" fill="white" font-size="16" x="135" y="728">
0.5
</text>
<path stroke="white" stroke-dasharray="1,2" d="M240 720l0 -671"/>
<text stroke="none" fill="white" font-size="16" x="225" y="728">
1.0
</text>
<path stroke="white" stroke-dasharray="1,2" d="M330 720l0 -671"/>
<text stroke="none" fill="white" font-size="16" x="315" y="728">
1.5
</text>
<path stroke="white" stroke-dasharray="1,2" d="M420 720l0 -671"/>
<text stroke="none" fill="white" font-size="16" x="405" y="728">
2.0
</text>
<path stroke="white" stroke-dasharray="1,2" d="M510 720l0 -671"/>
<text stroke="none" fill="white" font-size="16" x="495" y="728">
2.5
</text>
<path stroke="white" stroke-dasharray="1,2" d="M600 720l0 -671"/>
<text stroke="none" fill="white" font-size="16" x="585" y="728">
3.0
</text>
<path stroke="white" stroke-dasharray="1,2" d="M690 720l0 -671"/>
<text stroke="none" fill="white" font-size="16" x="675" y="728">
3.5
</text>
<path stroke="white" stroke-dasharray="1,2" d="M780 720l0 -671"/>
<text stroke="none" fill="white" font-size="16" x="765" y="728">
4.0
</text>
<path stroke="white" stroke-dasharray="1,2" d="M870 720l0 -671"/>
<text stroke="none" fill="white" font-size="16" x="855" y="728">
4.5
</text>
<path stroke="white" stroke-dasharray="1,2" d="M960 720l0 -671"/>
<text stroke="none" fill="white" font-size="16" x="945" y="728">
5.0
</text>
<text stroke="none" fill="white" font-size="16" x="614" y="752">
ms
</text>
<path stroke="white" d="M60 720l900 0"/>
<text stroke="none" fill="white" font-size="16" x="28" y="728">
0.0
</text>
<path stroke="white" stroke-dasharray="1,2" d="M60 659l900 0"/>
<text stroke="none" fill="white" font-size="16" x="28" y="667">
2.0
</text>
<path stroke="white" stroke-dasharray="1,2" d="M60 598l900 0"/>
<text stroke="none" fill="white" font-size="16" x="28" y="606">
4.0
</text>
<path stroke="white" stroke-dasharray="1,2" d="M60 537l900 0"/>
<text stroke="none" fill="white" font-size="16" x="28" y="545">
6.0
</text>
<path stroke="white" stroke-dasharray="1,2" d="M60 476l900 0"/>
<text stroke="none" fill="white" font-size="16" x="28" y="484">
8.0
</text>
<path stroke="white" stroke-dasharray="1,2" d="M60 415l900 0"/>
<text stroke="none" fill="white" font-size="16" x="18" y="423">
10.0
</text>
<path stroke="white" stroke-dasharray="1,2" d="M60 354l900 0"/>
<text stroke="none" fill="white" font-size="16" x="18" y="362">
12.0
</text>
<path stroke="white" stroke-dasharray="1,2" d="M60 293l900 0"/>
<text stroke="none" fill="white" font-size="16" x="18" y="301">
14.0
</text>
<path stroke="white" stroke-dasharray="1,2" d="M60 232l900 0"/>
<text stroke="none" fill="white" font-size="16" x="18" y="240">
16.0
</text>
<path stroke="white" stroke-dasharray="1,2" d="M60 171l900 0"/>
<text stroke="none" fill="white" font-size="16" x="18" y="179">
18.0
</text>
<path stroke="white" stroke-dasharray="1,2" d="M60 110l900 0"/>
<text stroke="none" fill="white" font-size="16" x="18" y="118">
20.0
</text>
<path stroke="white" stroke-dasharray="1,2" d="M60 49l900 0"/>
<text stroke="none" fill="white" font-size="16" x="18" y="57">
22.0
</text>
<text stroke="none" fill="white" font-size="16" x="10" y="32">
mA
</text>
<path stroke="red" d="M450 23l45 0"/>
<text stroke="none" fill="white" font-size="16" x="505" y="32">
vsens#branch
</text>
<path stroke="red" d="M60 716l1 0 0 -1 1 0 0 -1 1 0 1 0 0 -1 1 0 0 -1 1 0 0 -1 1 0 1 0 0 -1 1 0 0 -1 1 0 0 -1 1 0 0 -1 1 0 0 -1 1 0 0 -1 1 0 1 0 0 -1 1 0 0 -1 1 0 0 -1 1 0 0 -1 1 0 0 -1 1 0 0 -1 1 0 0 -1 1 0 0 -1 1 0 0 -1 1 0 0 -1 1 0 1 0 0 -1"/>
<path stroke="red" d="M86 694l1 0 0 -1 1 0 0 -1 1 0 0 -1 1 0 0 -1 1 0 0 -1 1 0 0 -1 1 0 0 -1 1 0 0 -1 0 -1 1 0 0 -1 1 0 0 -1 1 0 0 -1 1 0 0 -1 1 0 0 -1 1 0 0 -1 1 0 0 -1 1 0 0 -1 1 0 0 -1 1 0 0 -1 0 -1 1 0 0 -1 1 0 0 -1 1 0 0 -1 1 0 0 -1 1 0"/>
<path stroke="red" d="M109 670l0 -1 1 0 0 -1 0 -1 1 0 0 -1 1 0 0 -1 1 0 0 -1 1 0 0 -1 0 -1 1 0 0 -1 1 0 0 -1 1 0 0 -1 1 0 0 -1 0 -1 1 0 0 -1 1 0 0 -1 1 0 0 -1 0 -1 1 0 0 -1 1 0 0 -1 1 0 0 -1 0 -1 1 0 0 -1 1 0 0 -1 1 0 0 -1 0 -1 1 0 0 -1 1 0 0 -1"/>
<path stroke="red" d="M129 643l0 -1 1 0 0 -1 1 0 0 -1 1 0 0 -1 0 -1 1 0 0 -1 1 0 0 -1 0 -1 1 0 0 -1 1 0 0 -1 0 -1 1 0 0 -1 1 0 0 -1 0 -1 1 0 0 -1 1 0 0 -1 0 -1 1 0 0 -1 1 0 0 -1 0 -1 1 0 0 -1 1 0 0 -1 0 -1 1 0 0 -1 1 0 0 -1 0 -1 1 0 0 -1 0 -1"/>
<path stroke="red" d="M147 615l1 0 0 -1 1 0 0 -1 0 -1 1 0 0 -1 1 0 0 -1 0 -1 1 0 0 -1 0 -1 1 0 0 -1 1 0 0 -1 0 -1 1 0 0 -1 1 0 0 -1 0 -1 1 0 0 -1 0 -1 1 0 0 -1 1 0 0 -1 0 -1 1 0 0 -1 0 -1 1 0 0 -1 1 0 0 -1 0 -1 1 0 0 -1 0 -1 1 0 0 -1 0 -1 1 0"/>
<path stroke="red" d="M165 587l0 -1 1 0 0 -1 0 -1 1 0 0 -1 0 -1 1 0 0 -1 0 -1 1 0 0 -1 1 0 0 -1 0 -1 1 0 0 -1 0 -1 1 0 0 -1 0 -1 1 0 0 -1 1 0 0 -1 0 -1 1 0 0 -1 0 -1 1 0 0 -1 0 -1 1 0 0 -1 0 -1 1 0 0 -1 0 -1 1 0 0 -1 1 0 0 -1 0 -1 1 0 0 -1 0 -1"/>
<path stroke="red" d="M181 557l1 0 0 -1 0 -1 1 0 0 -1 0 -1 1 0 0 -1 0 -1 1 0 0 -1 0 -1 1 0 0 -1 1 0 0 -1 0 -1 1 0 0 -1 0 -1 1 0 0 -1 0 -1 1 0 0 -1 0 -1 1 0 0 -1 0 -1 1 0 0 -1 0 -1 1 0 0 -1 0 -1 1 0 0 -1 0 -1 1 0 0 -1 0 -1 1 0 0 -1 0 -1 1 0 0 -1"/>
<path stroke="red" d="M197 527l0 -1 1 0 0 -1 1 0 0 -1 0 -1 1 0 0 -1 0 -1 1 0 0 -1 0 -1 1 0 0 -1 0 -1 1 0 0 -1 0 -1 1 0 0 -1 0 -1 1 0 0 -1 0 -1 1 0 0 -1 0 -1 1 0 0 -1 0 -1 1 0 0 -1 0 -1 1 0 0 -1 0 -1 1 0 0 -1 0 -1 1 0 0 -1 0 -1 1 0 0 -1 0 -1 1 0"/>
<path stroke="red" d="M213 497l0 -1 0 -1 1 0 0 -1 0 -1 1 0 0 -1 0 -1 1 0 0 -1 0 -1 0 -1 1 0 0 -1 0 -1 1 0 0 -1 0 -1 1 0 0 -1 0 -1 1 0 0 -1 0 -1 1 0 0 -1 0 -1 1 0 0 -1 0 -1 1 0 0 -1 0 -1 1 0 0 -1 0 -1 1 0 0 -1 0 -1 1 0 0 -1 0 -1 1 0 0 -1 0 -1"/>
<path stroke="red" d="M227 466l1 0 0 -1 0 -1 1 0 0 -1 0 -1 1 0 0 -1 0 -1 1 0 0 -1 0 -1 1 0 0 -1 0 -1 0 -1 1 0 0 -1 0 -1 1 0 0 -1 0 -1 1 0 0 -1 0 -1 1 0 0 -1 0 -1 1 0 0 -1 0 -1 1 0 0 -1 0 -1 1 0 0 -1 0 -1 1 0 0 -1 0 -1 1 0 0 -1 0 -1 1 0 0 -1 0 -1"/>
<path stroke="red" d="M242 435l0 -1 1 0 0 -1 0 -1 1 0 0 -1 0 -1 1 0 0 -1 0 -1 1 0 0 -1 0 -1 1 0 0 -1 0 -1 1 0 0 -1 0 -1 1 0 0 -1 0 -1 1 0 0 -1 0 -1 1 0 0 -1 0 -1 1 0 0 -1 0 -1 0 -1 1 0 0 -1 0 -1 1 0 0 -1 0 -1 1 0 0 -1 0 -1 1 0 0 -1 0 -1 1 0 0 -1"/>
<path stroke="red" d="M257 404l0 -1 1 0 0 -1 0 -1 1 0 0 -1 0 -1 1 0 0 -1 0 -1 0 -1 1 0 0 -1 0 -1 1 0 0 -1 0 -1 1 0 0 -1 0 -1 1 0 0 -1 0 -1 1 0 0 -1 0 -1 1 0 0 -1 0 -1 1 0 0 -1 0 -1 1 0 0 -1 0 -1 1 0 0 -1 0 -1 0 -1 1 0 0 -1 0 -1 1 0 0 -1 0 -1"/>
<path stroke="red" d="M271 373l1 0 0 -1 0 -1 1 0 0 -1 0 -1 1 0 0 -1 0 -1 1 0 0 -1 0 -1 1 0 0 -1 0 -1 1 0 0 -1 0 -1 1 0 0 -1 0 -1 1 0 0 -1 0 -1 0 -1 1 0 0 -1 0 -1 1 0 0 -1 0 -1 1 0 0 -1 0 -1 1 0 0 -1 0 -1 1 0 0 -1 0 -1 1 0 0 -1 0 -1 1 0 0 -1 0 -1"/>
<path stroke="red" d="M286 342l1 0 0 -1 0 -1 1 0 0 -1 0 -1 1 0 0 -1 0 -1 1 0 0 -1 0 -1 0 -1 1 0 0 -1 0 -1 1 0 0 -1 0 -1 1 0 0 -1 0 -1 1 0 0 -1 0 -1 1 0 0 -1 0 -1 1 0 0 -1 0 -1 1 0 0 -1 0 -1 1 0 0 -1 0 -1 1 0 0 -1 0 -1 1 0 0 -1 0 -1 1 0 0 -1 0 -1"/>
<path stroke="red" d="M301 311l1 0 0 -1 0 -1 1 0 0 -1 0 -1 1 0 0 -1 0 -1 1 0 0 -1 0 -1 1 0 0 -1 0 -1 1 0 0 -1 0 -1 1 0 0 -1 0 -1 1 0 0 -1 0 -1 1 0 0 -1 0 -1 1 0 0 -1 0 -1 1 0 0 -1 0 -1 1 0 0 -1 0 -1 1 0 0 -1 0 -1 1 0 0 -1 0 -1 1 0 0 -1 0 -1 1 0"/>
<path stroke="red" d="M317 281l0 -1 0 -1 1 0 0 -1 0 -1 1 0 0 -1 0 -1 1 0 0 -1 0 -1 1 0 0 -1 0 -1 1 0 0 -1 0 -1 1 0 0 -1 0 -1 1 0 0 -1 0 -1 1 0 0 -1 0 -1 1 0 0 -1 0 -1 1 0 0 -1 0 -1 1 0 0 -1 0 -1 1 0 0 -1 0 -1 1 0 0 -1 0 -1 1 0 0 -1 0 -1 1 0 0 -1"/>
<path stroke="red" d="M332 250l0 -1 1 0 0 -1 0 -1 1 0 0 -1 1 0 0 -1 0 -1 1 0 0 -1 0 -1 1 0 0 -1 0 -1 1 0 0 -1 0 -1 1 0 0 -1 0 -1 1 0 0 -1 0 -1 1 0 0 -1 0 -1 1 0 0 -1 0 -1 1 0 0 -1 1 0 0 -1 0 -1 1 0 0 -1 0 -1 1 0 0 -1 0 -1 1 0 0 -1 0 -1 1 0 0 -1"/>
<path stroke="red" d="M348 220l0 -1 1 0 0 -1 1 -1 0 -1 1 0 0 -1 0 -1 1 0 0 -1 0 -1 1 0 0 -1 0 -1 1 0 0 -1 0 -1 1 0 0 -1 1 0 0 -1 0 -1 1 0 0 -1 0 -1 1 0 0 -1 0 -1 1 0 0 -1 0 -1 1 0 0 -1 1 0 0 -1 0 -1 1 0 0 -1 0 -1 1 0 0 -1 0 -1 1 0 0 -1 1 0 0 -1"/>
<path stroke="red" d="M365 190l0 -1 1 0 0 -1 0 -1 1 0 0 -1 0 -1 1 0 0 -1 1 0 0 -1 0 -1 1 0 0 -1 0 -1 1 0 0 -1 1 0 0 -1 0 -1 1 0 0 -1 0 -1 1 0 0 -1 0 -1 1 0 0 -1 1 0 0 -1 0 -1 1 0 0 -1 0 -1 1 0 0 -1 1 0 0 -1 0 -1 1 0 0 -1 0 -1 1 0 0 -1 1 0 0 -1"/>
<path stroke="red" d="M382 161l0 -1 1 0 0 -1 0 -1 1 0 0 -1 1 0 0 -1 0 -1 1 0 0 -1 1 0 0 -1 0 -1 1 0 0 -1 0 -1 1 0 0 -1 1 0 0 -1 0 -1 1 0 0 -1 0 -1 1 0 0 -1 1 0 0 -1 0 -1 1 0 0 -1 1 0 0 -1 0 -1 1 0 0 -1 1 0 0 -1 0 -1 1 0 0 -1 0 -1 1 0 0 -1 1 0"/>
<path stroke="red" d="M400 133l0 -1 0 -1 1 0 0 -1 1 0 0 -1 0 -1 1 0 0 -1 1 0 0 -1 0 -1 1 0 0 -1 1 0 0 -1 0 -1 1 0 0 -1 1 0 0 -1 0 -1 1 0 0 -1 1 0 0 -1 0 -1 1 0 0 -1 1 0 0 -1 0 -1 1 0 0 -1 1 0 0 -1 0 -1 1 0 0 -1 1 0 0 -1 0 -1 1 0 0 -1 1 0 0 -1"/>
<path stroke="red" d="M418 105l1 0 0 -1 0 -1 1 0 0 -1 0 1 1 0 1 0 0 1 1 0 0 1 1 0 0 1 1 0 0 1 1 0 0 1 1 0 0 1 1 0 0 1 0 1 1 0 0 1 1 0 0 1 1 0 0 1 0 1 1 0 0 1 1 0 0 1 0 1 1 0 0 1 1 0 0 1 0 1 1 0 0 1 1 0 0 1 0 1 1 0 0 1 1 0 0 1 0 1 1 0 0 1 1 0"/>
<path stroke="red" d="M441 128l0 1 0 1 1 0 0 1 1 0 0 1 0 1 1 0 0 1 1 0 0 1 0 1 1 0 0 1 0 1 1 0 0 1 1 0 0 1 0 1 1 0 0 1 1 0 0 1 0 1 1 0 0 1 1 0 0 1 0 1 1 0 0 1 0 1 1 0 0 1 1 0 0 1 0 1 1 0 0 1 0 1 1 0 0 1 1 0 0 1 0 1 1 0 0 1 1 0 0 1 0 1 1 0 0 1"/>
<path stroke="red" d="M461 161l0 1 1 0 0 1 1 0 0 1 0 1 1 0 0 1 0 1 1 0 0 1 1 0 0 1 0 1 1 0 0 1 0 1 1 0 0 1 0 1 1 0 0 1 1 0 0 1 0 1 1 0 0 1 0 1 1 0 0 1 1 0 0 1 0 1 1 0 0 1 0 1 1 0 0 1 0 1 1 0 0 1 1 0 0 1 0 1 1 0 0 1 0 1 1 0 0 1 0 1 1 0 0 1 1 0"/>
<path stroke="red" d="M481 194l0 1 0 1 1 0 0 1 0 1 1 0 0 1 0 1 1 0 0 1 0 1 1 0 0 1 1 0 0 1 0 1 1 0 0 1 0 1 1 0 0 1 0 1 1 0 0 1 0 1 1 0 0 1 0 1 1 0 0 1 1 0 0 1 0 1 1 0 0 1 0 1 1 0 0 1 0 1 1 0 0 1 0 1 1 0 0 1 0 1 1 0 0 1 1 0 0 1 0 1 1 0 0 1 0 1"/>
<path stroke="red" d="M499 229l1 0 0 1 0 1 1 0 0 1 0 1 1 0 0 1 0 1 1 0 0 1 0 1 1 0 0 1 0 1 1 0 0 1 0 1 1 0 0 1 1 0 0 1 0 1 1 0 0 1 0 1 1 0 0 1 0 1 1 0 0 1 0 1 1 0 0 1 0 1 1 0 0 1 0 1 1 0 0 1 0 1 1 0 0 1 0 1 1 0 0 1 0 1 1 0 0 1 0 1 1 0 0 1 0 1"/>
<path stroke="red" d="M517 264l1 0 0 1 0 1 1 0 0 1 0 1 1 0 0 1 0 1 1 0 0 1 0 1 1 0 0 1 0 1 1 0 0 1 0 1 1 0 0 1 0 1 1 0 0 1 0 1 1 0 0 1 0 1 1 0 0 1 0 1 1 0 0 1 0 1 1 0 0 1 0 1 1 0 0 1 0 1 1 0 0 1 0 1 1 0 0 1 0 1 1 0 0 1 0 1 1 0 0 1 0 1 1 0 0 1"/>
<path stroke="red" d="M535 299l0 1 1 0 0 1 0 1 1 0 0 1 0 1 1 0 0 1 0 1 1 0 0 1 0 1 1 0 0 1 0 1 1 0 0 1 0 1 1 0 0 1 0 1 1 0 0 1 0 1 1 0 0 1 0 1 1 0 0 1 0 1 1 0 0 1 0 1 0 1 1 0 0 1 0 1 1 0 0 1 0 1 1 0 0 1 0 1 1 0 0 1 0 1 1 0 0 1 0 1 1 0 0 1 0 1"/>
<path stroke="red" d="M552 335l1 0 0 1 0 1 1 0 0 1 0 1 1 0 0 1 0 1 1 0 0 1 0 1 1 0 0 1 0 1 0 1 1 0 0 1 0 1 1 0 0 1 0 1 1 0 0 1 0 1 1 0 0 1 0 1 1 0 0 1 0 1 1 0 0 1 0 1 1 0 0 1 0 1 1 0 0 1 0 1 1 0 0 1 0 1 0 1 1 0 0 1 0 1 1 0 0 1 0 1 1 0 0 1 0 1"/>
<path stroke="red" d="M569 371l1 0 0 1 0 1 1 0 0 1 0 1 1 0 0 1 0 1 1 0 0 1 0 1 1 0 0 1 0 1 0 1 1 0 0 1 0 1 1 0 0 1 0 1 1 0 0 1 0 1 1 0 0 1 0 1 1 0 0 1 0 1 1 0 0 1 0 1 1 0 0 1 0 1 1 0 0 1 0 1 0 1 1 0 0 1 0 1 1 0 0 1 0 1 1 0 0 1 0 1 1 0 0 1 0 1"/>
<path stroke="red" d="M586 407l1 0 0 1 0 1 1 0 0 1 0 1 1 0 0 1 0 1 1 0 0 1 0 1 0 1 1 0 0 1 0 1 1 0 0 1 0 1 1 0 0 1 0 1 1 0 0 1 0 1 1 0 0 1 0 1 1 0 0 1 0 1 1 0 0 1 0 1 1 0 0 1 0 1 0 1 1 0 0 1 0 1 1 0 0 1 0 1 1 0 0 1 0 1 1 0 0 1 0 1 1 0 0 1 0 1"/>
<path stroke="red" d="M603 443l1 0 0 1 0 1 1 0 0 1 0 1 1 0 0 1 0 1 0 1 1 0 0 1 0 1 1 0 0 1 0 1 1 0 0 1 0 1 1 0 0 1 0 1 1 0 0 1 0 1 1 0 0 1 0 1 1 0 0 1 0 1 1 0 0 1 0 1 1 0 0 1 0 1 1 0 0 1 0 1 1 1 0 1 0 1 1 0 0 1 0 1 1 0 0 1 0 1 1 0 0 1 0 1 1 0"/>
<path stroke="red" d="M621 479l0 1 0 1 1 0 0 1 0 1 1 0 0 1 0 1 1 0 0 1 0 1 1 0 0 1 0 1 1 0 0 1 0 1 1 0 0 1 0 1 1 0 0 1 0 1 1 0 0 1 0 1 1 0 0 1 0 1 1 0 0 1 0 1 1 0 0 1 0 1 1 0 0 1 0 1 1 0 0 1 0 1 1 0 0 1 0 1 1 0 0 1 0 1 1 0 0 1 0 1 1 0 0 1 0 1"/>
<path stroke="red" d="M638 515l1 0 0 1 0 1 1 0 0 1 0 1 1 0 0 1 0 1 1 0 0 1 0 1 1 0 0 1 0 1 1 0 0 1 0 1 1 0 0 1 0 1 1 0 0 1 0 1 1 0 0 1 0 1 1 0 0 1 0 1 1 0 0 1 0 1 1 0 0 1 0 1 1 0 0 1 0 1 1 0 0 1 0 1 1 0 0 1 0 1 1 0 0 1 0 1 1 0 0 1 1 1 0 1 1 0"/>
<path stroke="red" d="M657 550l0 1 0 1 1 0 0 1 0 1 1 0 0 1 0 1 1 0 0 1 0 1 1 0 0 1 0 1 1 0 0 1 0 1 1 0 0 1 1 0 0 1 0 1 1 0 0 1 0 1 1 0 0 1 0 1 1 0 0 1 0 1 1 0 0 1 0 1 1 0 0 1 1 0 0 1 0 1 1 0 0 1 0 1 1 0 0 1 0 1 1 0 0 1 1 0 0 1 0 1 1 0 0 1 0 1"/>
<path stroke="red" d="M675 585l1 0 0 1 0 1 1 0 0 1 1 0 0 1 0 1 1 0 0 1 0 1 1 0 0 1 0 1 1 0 0 1 1 0 0 1 0 1 1 0 0 1 0 1 1 0 0 1 1 0 0 1 0 1 1 0 0 1 0 1 1 0 0 1 1 0 0 1 0 1 1 0 0 1 0 1 1 0 0 1 1 0 0 1 0 1 1 0 0 1 1 0 0 1 0 1 1 0 0 1 0 1 1 0 0 1"/>
<path stroke="red" d="M695 618l1 0 0 1 0 1 1 0 0 1 1 0 0 1 0 1 1 0 0 1 1 0 0 1 0 1 1 0 0 1 1 0 0 1 0 1 1 0 0 1 1 0 0 1 0 1 1 0 0 1 1 0 0 1 0 1 1 0 0 1 1 0 0 1 0 1 1 0 0 1 1 0 0 1 0 1 1 0 0 1 1 0 0 1 0 1 1 0 0 1 1 0 0 1 1 0 0 1 0 1 1 0 0 1 1 0"/>
<path stroke="red" d="M717 649l0 1 1 0 0 1 0 1 1 0 0 1 1 0 0 1 1 0 0 1 0 1 1 0 0 1 1 0 0 1 1 0 0 1 0 1 1 0 0 1 1 0 0 1 1 0 0 1 1 0 0 1 0 1 1 0 0 1 1 0 0 1 1 0 0 1 1 0 0 1 0 1 1 0 0 1 1 0 0 1 1 0 0 1 1 0 0 1 1 0 0 1 1 0 0 1 0 1 1 0 0 1 1 0 0 1"/>
<path stroke="red" d="M740 679l1 0 0 1 1 0 0 1 1 0 0 1 1 0 0 1 1 0 0 1 1 0 0 1 1 0 0 1 1 0 0 1 1 1 0 1 1 0 0 1 1 0 0 1 1 0 0 1 1 0 0 1 1 0 0 1 1 0 0 1 1 0 1 0 0 1 1 0 0 1 1 0 0 1 1 0 0 1 1 0 0 1 1 0 0 1 1 0 0 1 1 0 0 1 1 0 0 1 1 0 0 1 1 0 1 0"/>
<path stroke="red" d="M768 705l0 1 1 0 0 1 1 0 0 1 1 0 0 1 1 0 0 1 1 0 0 1 1 0 1 0 0 1 1 0 0 1 1 0 0 1 1 0 0 1 1 0 0 1 1 0 1 0 1 0 1 0 1 0 1 0 1 0 1 0 1 0 1 0 1 0 1 0 1 0 1 0 1 0 1 0 1 0 1 0 1 0 1 0 1 0 1 0 1 0 1 0 1 0 1 0 1 0 1 0 1 0 1 0 1 0"/>
<path stroke="red" d="M810 716l1 0 1 0 1 0 1 0 1 0 1 0 1 0 1 0 1 0 1 0 1 0 1 0 1 0 1 0 1 0 1 0 1 0 1 0 1 0 1 0 1 0 1 0 1 0 1 0 1 0 1 0 1 0 1 0 1 0 1 0 1 0 1 0 1 0 1 0 1 0 1 0 1 0 1 0 1 0 1 0 1 0 1 0 1 0 1 0 1 0 1 0 1 0 1 0 1 0 1 0 1 0 1 0 1 0"/>
<path stroke="red" d="M863 716l1 0 1 0 1 0 1 0 1 0 1 0 1 0 1 0 1 0 1 0 1 0 1 0 1 0 1 0 1 0 1 0 1 0 1 0 1 0 1 0 1 0 1 0 1 0 1 0 1 0 1 0 1 0 1 0 1 0 1 0 1 0 1 0 1 0 1 0 1 0 1 0 1 0 1 0 1 0 1 0 1 0 1 0 1 0 1 0 1 0 1 0 1 0 1 0 1 0 1 0 1 0 1 0 1 0"/>
<path stroke="red" d="M916 716l1 0 1 0 1 0 1 0 1 0 1 0 1 0 1 0 1 0 1 0 1 0 1 0 1 0 1 0 1 0 1 0 1 0 1 0 1 0 1 0 1 0 1 0 1 0 1 0 1 0 1 0 1 0 1 0 1 0 1 0 1 0 1 0 1 0 1 0 1 0 1 0 1 0 1 0 1 0 1 0 1 0 1 0 1 0 1 0"/>
</svg>
