<?xml version="1.0" encoding="UTF-8" standalone="no"?>
<!-- Created with Inkscape (http://www.inkscape.org/) -->

<svg
   xmlns:dc="http://purl.org/dc/elements/1.1/"
   xmlns:cc="http://creativecommons.org/ns#"
   xmlns:rdf="http://www.w3.org/1999/02/22-rdf-syntax-ns#"
   xmlns:svg="http://www.w3.org/2000/svg"
   xmlns="http://www.w3.org/2000/svg"
   xmlns:sodipodi="http://sodipodi.sourceforge.net/DTD/sodipodi-0.dtd"
   xmlns:inkscape="http://www.inkscape.org/namespaces/inkscape"
   id="svg5070"
   version="1.1"
   inkscape:version="0.91 r13725"
   xml:space="preserve"
   width="654.08752"
   height="674.33752"
   viewBox="0 0 654.08752 674.33752"
   sodipodi:docname="RegulatedCascodeBias.SensorCurrent.svg"
   inkscape:export-filename="/home/cmaier/Telluride/2021/tac/sky130_TAC3/simulation/RegulatedCascodeBias.SensorCurrent.png"
   inkscape:export-xdpi="179"
   inkscape:export-ydpi="179"><metadata
     id="metadata5076"><rdf:RDF><cc:Work
         rdf:about=""><dc:format>image/svg+xml</dc:format><dc:type
           rdf:resource="http://purl.org/dc/dcmitype/StillImage" /><dc:title></dc:title></cc:Work></rdf:RDF></metadata><defs
     id="defs5074" /><sodipodi:namedview
     pagecolor="#ffffff"
     bordercolor="#666666"
     borderopacity="1"
     objecttolerance="10"
     gridtolerance="10"
     guidetolerance="10"
     inkscape:pageopacity="0"
     inkscape:pageshadow="2"
     inkscape:window-width="1109"
     inkscape:window-height="856"
     id="namedview5072"
     showgrid="false"
     inkscape:zoom="0.66128266"
     inkscape:cx="304.05"
     inkscape:cy="446.475"
     inkscape:window-x="0"
     inkscape:window-y="24"
     inkscape:window-maximized="0"
     inkscape:current-layer="g5078"
     fit-margin-top="0"
     fit-margin-left="0"
     fit-margin-right="0"
     fit-margin-bottom="0" /><g
     id="g5078"
     inkscape:groupmode="layer"
     inkscape:label="ink_ext_XXXXXX"
     transform="matrix(1.25,0,0,-1.25,-67.825,754.1125)"><g
       id="g5084"><text
         id="text5086"
         style="font-variant:normal;font-weight:normal;font-size:10px;font-family:Helvetica;-inkscape-font-specification:Helvetica;writing-mode:lr-tb;fill:#000000;fill-opacity:1;fill-rule:nonzero;stroke:none"
         transform="matrix(1,0,0,-1,243,66)"><tspan
           id="tspan5088"
           sodipodi:role="line"
           x="0"
           y="0">pressure [kPa]</tspan><tspan
           id="tspan5090"
           sodipodi:role="line"
           y="-530"
           x="-189 -183.44 -178.44 -172.88 -170.10001 -167.32001 -163.42999 -159.53999 -156.75999 -151.75999 -146.2 -140.64 -135.64 -130.64 -127.86 -125.08 -121.75 -116.19 -110.63 -105.07 -102.85 -97.290001 -94.510002 -88.949997 -83.389999 -78.389999 -72.830002 -67.830002 -62.830002 -57.27 -51.709999 -46.150002 -40.59 -38.369999 -32.810001">dc1: **.subckt regulatedcascodebias</tspan></text>
</g><path
       inkscape:connector-curvature="0"
       id="path5092"
       style="fill:none;stroke:#000000;stroke-width:1;stroke-linecap:butt;stroke-linejoin:miter;stroke-miterlimit:10;stroke-dasharray:none;stroke-opacity:1"
       d="m 84,104 0,444" /><g
       id="g5094"><text
         id="text5096"
         style="font-variant:normal;font-weight:normal;font-size:10px;font-family:Helvetica;-inkscape-font-specification:Helvetica;writing-mode:lr-tb;fill:#000000;fill-opacity:1;fill-rule:nonzero;stroke:none"
         transform="matrix(1,0,0,-1,75,87)"><tspan
           id="tspan5098"
           sodipodi:role="line"
           y="0"
           x="0 5.5599999 8.3400002">0.0</tspan></text>
</g><path
       inkscape:connector-curvature="0"
       id="path5100"
       style="fill:none;stroke:#606060;stroke-width:1;stroke-linecap:butt;stroke-linejoin:miter;stroke-miterlimit:10;stroke-dasharray:none;stroke-opacity:1"
       d="m 205,104 0,444" /><g
       id="g5102"><text
         id="text5104"
         style="font-variant:normal;font-weight:normal;font-size:10px;font-family:Helvetica;-inkscape-font-specification:Helvetica;writing-mode:lr-tb;fill:#000000;fill-opacity:1;fill-rule:nonzero;stroke:none"
         transform="matrix(1,0,0,-1,193,87)"><tspan
           id="tspan5106"
           sodipodi:role="line"
           y="0"
           x="0 5.5599999 11.12 13.9">50.0</tspan></text>
</g><path
       inkscape:connector-curvature="0"
       id="path5108"
       style="fill:none;stroke:#606060;stroke-width:1;stroke-linecap:butt;stroke-linejoin:miter;stroke-miterlimit:10;stroke-dasharray:none;stroke-opacity:1"
       d="m 326,104 0,444" /><g
       id="g5110"><text
         id="text5112"
         style="font-variant:normal;font-weight:normal;font-size:10px;font-family:Helvetica;-inkscape-font-specification:Helvetica;writing-mode:lr-tb;fill:#000000;fill-opacity:1;fill-rule:nonzero;stroke:none"
         transform="matrix(1,0,0,-1,311,87)"><tspan
           id="tspan5114"
           sodipodi:role="line"
           y="0"
           x="0 5.5599999 11.12 16.68 19.459999">100.0</tspan></text>
</g><path
       inkscape:connector-curvature="0"
       id="path5116"
       style="fill:none;stroke:#606060;stroke-width:1;stroke-linecap:butt;stroke-linejoin:miter;stroke-miterlimit:10;stroke-dasharray:none;stroke-opacity:1"
       d="m 447,104 0,444" /><g
       id="g5118"><text
         id="text5120"
         style="font-variant:normal;font-weight:normal;font-size:10px;font-family:Helvetica;-inkscape-font-specification:Helvetica;writing-mode:lr-tb;fill:#000000;fill-opacity:1;fill-rule:nonzero;stroke:none"
         transform="matrix(1,0,0,-1,432,87)"><tspan
           id="tspan5122"
           sodipodi:role="line"
           y="0"
           x="0 5.5599999 11.12 16.68 19.459999">150.0</tspan></text>
</g><path
       inkscape:connector-curvature="0"
       id="path5124"
       style="fill:none;stroke:#606060;stroke-width:1;stroke-linecap:butt;stroke-linejoin:miter;stroke-miterlimit:10;stroke-dasharray:none;stroke-opacity:1"
       d="m 568,104 0,444" /><g
       id="g5126"><text
         id="text5128"
         style="font-variant:normal;font-weight:normal;font-size:10px;font-family:Helvetica;-inkscape-font-specification:Helvetica;writing-mode:lr-tb;fill:#000000;fill-opacity:1;fill-rule:nonzero;stroke:none"
         transform="matrix(1,0,0,-1,553,87)"><tspan
           id="tspan5130"
           sodipodi:role="line"
           y="0"
           x="0 5.5599999 11.12 16.68 19.459999">200.0</tspan><tspan
           id="tspan5132"
           y="21"
           x="-171" /></text>
</g><path
       inkscape:connector-curvature="0"
       id="path5134"
       style="fill:none;stroke:#000000;stroke-width:1;stroke-linecap:butt;stroke-linejoin:miter;stroke-miterlimit:10;stroke-dasharray:none;stroke-opacity:1"
       d="m 84,104 484,0" /><g
       id="g5136"><text
         id="text5138"
         style="font-variant:normal;font-weight:normal;font-size:10px;font-family:Helvetica;-inkscape-font-specification:Helvetica;writing-mode:lr-tb;fill:#000000;fill-opacity:1;fill-rule:nonzero;stroke:none"
         transform="matrix(1,0,0,-1,64,101)"><tspan
           id="tspan5140"
           sodipodi:role="line"
           y="0"
           x="0 5.5599999 8.3400002">0.0</tspan></text>
</g><path
       inkscape:connector-curvature="0"
       id="path5142"
       style="fill:none;stroke:#606060;stroke-width:1;stroke-linecap:butt;stroke-linejoin:miter;stroke-miterlimit:10;stroke-dasharray:none;stroke-opacity:1"
       d="m 84,178 484,0" /><g
       id="g5144"><text
         id="text5146"
         style="font-variant:normal;font-weight:normal;font-size:10px;font-family:Helvetica;-inkscape-font-specification:Helvetica;writing-mode:lr-tb;fill:#000000;fill-opacity:1;fill-rule:nonzero;stroke:none"
         transform="matrix(1,0,0,-1,64,175)"><tspan
           id="tspan5148"
           sodipodi:role="line"
           y="0"
           x="0 5.5599999 8.3400002">5.0</tspan></text>
</g><path
       inkscape:connector-curvature="0"
       id="path5150"
       style="fill:none;stroke:#606060;stroke-width:1;stroke-linecap:butt;stroke-linejoin:miter;stroke-miterlimit:10;stroke-dasharray:none;stroke-opacity:1"
       d="m 84,252 484,0" /><g
       id="g5152"><text
         id="text5154"
         style="font-variant:normal;font-weight:normal;font-size:10px;font-family:Helvetica;-inkscape-font-specification:Helvetica;writing-mode:lr-tb;fill:#000000;fill-opacity:1;fill-rule:nonzero;stroke:none"
         transform="matrix(1,0,0,-1,58,249)"><tspan
           id="tspan5156"
           sodipodi:role="line"
           y="0"
           x="0 5.5599999 11.12 13.9">10.0</tspan></text>
</g><path
       inkscape:connector-curvature="0"
       id="path5158"
       style="fill:none;stroke:#606060;stroke-width:1;stroke-linecap:butt;stroke-linejoin:miter;stroke-miterlimit:10;stroke-dasharray:none;stroke-opacity:1"
       d="m 84,326 484,0" /><g
       id="g5160"><text
         id="text5162"
         style="font-variant:normal;font-weight:normal;font-size:10px;font-family:Helvetica;-inkscape-font-specification:Helvetica;writing-mode:lr-tb;fill:#000000;fill-opacity:1;fill-rule:nonzero;stroke:none"
         transform="matrix(1,0,0,-1,58,323)"><tspan
           id="tspan5164"
           sodipodi:role="line"
           y="0"
           x="0 5.5599999 11.12 13.9">15.0</tspan></text>
</g><path
       inkscape:connector-curvature="0"
       id="path5166"
       style="fill:none;stroke:#606060;stroke-width:1;stroke-linecap:butt;stroke-linejoin:miter;stroke-miterlimit:10;stroke-dasharray:none;stroke-opacity:1"
       d="m 84,400 484,0" /><g
       id="g5168"><text
         id="text5170"
         style="font-variant:normal;font-weight:normal;font-size:10px;font-family:Helvetica;-inkscape-font-specification:Helvetica;writing-mode:lr-tb;fill:#000000;fill-opacity:1;fill-rule:nonzero;stroke:none"
         transform="matrix(1,0,0,-1,58,397)"><tspan
           id="tspan5172"
           sodipodi:role="line"
           y="0"
           x="0 5.5599999 11.12 13.9">20.0</tspan></text>
</g><path
       inkscape:connector-curvature="0"
       id="path5174"
       style="fill:none;stroke:#606060;stroke-width:1;stroke-linecap:butt;stroke-linejoin:miter;stroke-miterlimit:10;stroke-dasharray:none;stroke-opacity:1"
       d="m 84,474 484,0" /><g
       id="g5176"><text
         id="text5178"
         style="font-variant:normal;font-weight:normal;font-size:10px;font-family:Helvetica;-inkscape-font-specification:Helvetica;writing-mode:lr-tb;fill:#000000;fill-opacity:1;fill-rule:nonzero;stroke:none"
         transform="matrix(1,0,0,-1,58,471)"><tspan
           id="tspan5180"
           sodipodi:role="line"
           y="0"
           x="0 5.5599999 11.12 13.9">25.0</tspan></text>
</g><path
       inkscape:connector-curvature="0"
       id="path5182"
       style="fill:none;stroke:#606060;stroke-width:1;stroke-linecap:butt;stroke-linejoin:miter;stroke-miterlimit:10;stroke-dasharray:none;stroke-opacity:1"
       d="m 84,548 484,0" /><g
       id="g5184"><text
         id="text5186"
         style="font-variant:normal;font-weight:normal;font-size:10px;font-family:Helvetica;-inkscape-font-specification:Helvetica;writing-mode:lr-tb;fill:#000000;fill-opacity:1;fill-rule:nonzero;stroke:none"
         transform="matrix(1,0,0,-1,58,545)"><tspan
           id="tspan5188"
           sodipodi:role="line"
           y="0"
           x="0 5.5599999 11.12 13.9">30.0</tspan><tspan
           id="tspan5190"
           sodipodi:role="line"
           y="-37"
           x="-4 4.3299999">mA</tspan></text>
</g><path
       inkscape:connector-curvature="0"
       id="path5192"
       style="fill:none;stroke:#ff0000;stroke-width:1;stroke-linecap:butt;stroke-linejoin:miter;stroke-miterlimit:10;stroke-dasharray:none;stroke-opacity:1"
       d="m 290,586 24,0" /><g
       id="g5194"><text
         id="text5196"
         style="font-variant:normal;font-weight:normal;font-size:10px;font-family:Helvetica;-inkscape-font-specification:Helvetica;writing-mode:lr-tb;fill:#000000;fill-opacity:1;fill-rule:nonzero;stroke:none"
         transform="matrix(1,0,0,-1,320,582)"><tspan
           id="tspan5198"
           sodipodi:role="line"
           y="0"
           x="0 5 10 15.56 21.120001 26.120001 31.68 37.240002 40.57 46.130001 51.689999 56.689999">vsens#branch</tspan></text>
</g><path
       inkscape:connector-curvature="0"
       id="path5200"
       style="fill:none;stroke:#ff0000;stroke-width:1;stroke-linecap:butt;stroke-linejoin:miter;stroke-miterlimit:10;stroke-dasharray:none;stroke-opacity:1"
       d="m 86,106 3,1 2,1 3,1 2,1 3,1 2,1 2,1 3,1 2,2 3,1 2,1 2,1 3,2 2,1 3,1 2,2 3,1 2,2 2,1 3,2 2,1 3,2 2,2 3,1 2,2 2,2 3,1 2,2 3,2 2,2 2,2 3,2 2,2 3,2 2,2 3,2 2,2 2,2 3,2 2,2 3,2 2,3 2,2 3,2 2,2 3,3 2,2 3,2 2,3 2,2 3,3 2,2 3,2 2,3 3,2 2,3 2,2 3,3 2,3 3,2 2,3 2,2 3,3 2,2 3,3 2,3 3,2 2,3 2,3 3,2 2,3 3,3 2,2 3,3 2,3 2,2 3,3 2,3 3,2 2,3 2,3 3,2 2,3 3,3 2,2 3,3 2,2 2,3 3,3 2,2 3,3 2,3 2,2 3,3 2,2 3,3 2,2 3,3 2,2 2,3 3,2 2,3 3,2 2,3 3,2 2,3 2,2 3,2 2,3 3,2 2,2 2,3 3,2 2,2 3,2 2,3 3,2 2,2 2,2 3,2 2,3 3,2 2,2 3,2 2,2 2,2 3,2 2,2 3,2 2,2 2,2 3,2 2,2 3,2 2,2 3,1 2,2 2,2 3,2 2,2 3,1 2,2 2,2 3,1 2,2 3,2 2,1 3,2 2,2 2,1 3,2 2,1 3,2 2,1 3,2 2,1 2,2 3,1 2,2 3,1 2,1 2,2 3,1 2,2 3,1 2,1 3,1 2,2 2,1 3,1 2,1 3,2 2,1 3,1 2,1 2,1 3,1 2,2 3,1 2,1 2,1 3,1 2,1 3,1 2,1 3,1 2,1 2,1 3,1 2,1 3,1 2,1 2,1 3,1 2,0 3,1 2,1 3,1 2,1" /><path
       inkscape:connector-curvature="0"
       id="path5202"
       style="fill:none;stroke:#ff0000;stroke-width:1;stroke-linecap:butt;stroke-linejoin:miter;stroke-miterlimit:10;stroke-dasharray:none;stroke-opacity:1"
       d="m 86,106 3,1 2,1 3,1 2,1 3,1 2,1 2,1 3,1 2,2 3,1 2,1 2,1 3,2 2,1 3,1 2,2 3,1 2,2 2,1 3,2 2,1 3,2 2,2 3,1 2,2 2,2 3,1 2,2 3,2 2,2 2,2 3,2 2,2 3,2 2,2 3,2 2,2 2,2 3,2 2,2 3,2 2,3 2,2 3,2 2,2 3,3 2,2 3,2 2,3 2,2 3,3 2,2 3,2 2,3 3,2 2,3 2,2 3,3 2,3 3,2 2,3 2,2 3,3 2,2 3,3 2,3 3,2 2,3 2,3 3,2 2,3 3,3 2,2 3,3 2,3 2,2 3,3 2,3 3,2 2,3 2,3 3,2 2,3 3,3 2,2 3,3 2,2 2,3 3,3 2,2 3,3 2,3 2,2 3,3 2,2 3,3 2,2 3,3 2,2 2,3 3,2 2,3 3,2 2,3 3,2 2,3 2,2 3,2 2,3 3,2 2,2 2,3 3,2 2,2 3,2 2,3 3,2 2,2 2,2 3,2 2,3 3,2 2,2 3,2 2,2 2,2 3,2 2,2 3,2 2,2 2,2 3,2 2,2 3,2 2,2 3,1 2,2 2,2 3,2 2,2 3,1 2,2 2,2 3,1 2,2 3,2 2,1 3,2 2,2 2,1 3,2 2,1 3,2 2,1 3,2 2,1 2,2 3,1 2,2 3,1 2,1 2,2 3,1 2,2 3,1 2,1 3,1 2,2 2,1 3,1 2,1 3,2 2,1 3,1 2,1 2,1 3,1 2,2 3,1 2,1 2,1 3,1 2,1 3,1 2,1 3,1 2,1 2,1 3,1 2,1 3,1 2,1 2,1 3,1 2,0 3,1 2,1 3,1 2,1" /><path
       inkscape:connector-curvature="0"
       id="path5204"
       style="fill:none;stroke:#ff0000;stroke-width:1;stroke-linecap:butt;stroke-linejoin:miter;stroke-miterlimit:10;stroke-dasharray:none;stroke-opacity:1"
       d="m 86,106 3,1 2,1 3,1 2,1 3,1 2,1 2,1 3,1 2,2 3,1 2,1 2,1 3,2 2,1 3,1 2,2 3,1 2,2 2,1 3,2 2,1 3,2 2,2 3,1 2,2 2,2 3,1 2,2 3,2 2,2 2,2 3,2 2,2 3,2 2,2 3,2 2,2 2,2 3,2 2,2 3,2 2,3 2,2 3,2 2,2 3,3 2,2 3,2 2,3 2,2 3,3 2,2 3,2 2,3 3,2 2,3 2,2 3,3 2,3 3,2 2,3 2,2 3,3 2,2 3,3 2,3 3,2 2,3 2,3 3,2 2,3 3,3 2,2 3,3 2,3 2,2 3,3 2,3 3,2 2,3 2,3 3,2 2,3 3,3 2,2 3,3 2,2 2,3 3,3 2,2 3,3 2,3 2,2 3,3 2,2 3,3 2,2 3,3 2,2 2,3 3,2 2,3 3,2 2,3 3,2 2,3 2,2 3,2 2,3 3,2 2,2 2,3 3,2 2,2 3,2 2,3 3,2 2,2 2,2 3,2 2,3 3,2 2,2 3,2 2,2 2,2 3,2 2,2 3,2 2,2 2,2 3,2 2,2 3,2 2,2 3,1 2,2 2,2 3,2 2,2 3,1 2,2 2,2 3,1 2,2 3,2 2,1 3,2 2,2 2,1 3,2 2,1 3,2 2,1 3,2 2,1 2,2 3,1 2,2 3,1 2,1 2,2 3,1 2,2 3,1 2,1 3,1 2,2 2,1 3,1 2,1 3,2 2,1 3,1 2,1 2,1 3,1 2,2 3,1 2,1 2,1 3,1 2,1 3,1 2,1 3,1 2,1 2,1 3,1 2,1 3,1 2,1 2,1 3,1 2,0 3,1 2,1 3,1 2,1" /><path
       inkscape:connector-curvature="0"
       id="path5206"
       style="fill:none;stroke:#ff0000;stroke-width:1;stroke-linecap:butt;stroke-linejoin:miter;stroke-miterlimit:10;stroke-dasharray:none;stroke-opacity:1"
       d="m 86,106 3,1 2,1 3,1 2,1 3,1 2,1 2,1 3,1 2,2 3,1 2,1 2,1 3,2 2,1 3,1 2,2 3,1 2,2 2,1 3,2 2,1 3,2 2,2 3,1 2,2 2,2 3,1 2,2 3,2 2,2 2,2 3,2 2,2 3,2 2,2 3,2 2,2 2,2 3,2 2,2 3,2 2,3 2,2 3,2 2,2 3,3 2,2 3,2 2,3 2,2 3,3 2,2 3,2 2,3 3,2 2,3 2,2 3,3 2,3 3,2 2,3 2,2 3,3 2,2 3,3 2,3 3,2 2,3 2,3 3,2 2,3 3,3 2,2 3,3 2,3 2,2 3,3 2,3 3,2 2,3 2,3 3,2 2,3 3,3 2,2 3,3 2,2 2,3 3,3 2,2 3,3 2,3 2,2 3,3 2,2 3,3 2,2 3,3 2,2 2,3 3,2 2,3 3,2 2,3 3,2 2,3 2,2 3,2 2,3 3,2 2,2 2,3 3,2 2,2 3,2 2,3 3,2 2,2 2,2 3,2 2,3 3,2 2,2 3,2 2,2 2,2 3,2 2,2 3,2 2,2 2,2 3,2 2,2 3,2 2,2 3,1 2,2 2,2 3,2 2,2 3,1 2,2 2,2 3,1 2,2 3,2 2,1 3,2 2,2 2,1 3,2 2,1 3,2 2,1 3,2 2,1 2,2 3,1 2,2 3,1 2,1 2,2 3,1 2,2 3,1 2,1 3,1 2,2 2,1 3,1 2,1 3,2 2,1 3,1 2,1 2,1 3,1 2,2 3,1 2,1 2,1 3,1 2,1 3,1 2,1 3,1 2,1 2,1 3,1 2,1 3,1 2,1 2,1 3,1 2,0 3,1 2,1 3,1 2,1" /><path
       inkscape:connector-curvature="0"
       id="path5208"
       style="fill:none;stroke:#ff0000;stroke-width:1;stroke-linecap:butt;stroke-linejoin:miter;stroke-miterlimit:10;stroke-dasharray:none;stroke-opacity:1"
       d="m 86,106 3,1 2,1 3,1 2,1 3,1 2,1 2,1 3,1 2,2 3,1 2,1 2,1 3,2 2,1 3,1 2,2 3,1 2,2 2,1 3,2 2,1 3,2 2,2 3,1 2,2 2,2 3,1 2,2 3,2 2,2 2,2 3,2 2,2 3,2 2,2 3,2 2,2 2,2 3,2 2,2 3,2 2,3 2,2 3,2 2,2 3,3 2,2 3,2 2,3 2,2 3,3 2,2 3,2 2,3 3,2 2,3 2,2 3,3 2,3 3,2 2,3 2,2 3,3 2,2 3,3 2,3 3,2 2,3 2,3 3,2 2,3 3,3 2,2 3,3 2,3 2,2 3,3 2,3 3,2 2,3 2,3 3,2 2,3 3,3 2,2 3,3 2,2 2,3 3,3 2,2 3,3 2,3 2,2 3,3 2,2 3,3 2,2 3,3 2,2 2,3 3,2 2,3 3,2 2,3 3,2 2,3 2,2 3,2 2,3 3,2 2,2 2,3 3,2 2,2 3,2 2,3 3,2 2,2 2,2 3,2 2,3 3,2 2,2 3,2 2,2 2,2 3,2 2,2 3,2 2,2 2,2 3,2 2,2 3,2 2,2 3,1 2,2 2,2 3,2 2,2 3,1 2,2 2,2 3,1 2,2 3,2 2,1 3,2 2,2 2,1 3,2 2,1 3,2 2,1 3,2 2,1 2,2 3,1 2,2 3,1 2,1 2,2 3,1 2,2 3,1 2,1 3,1 2,2 2,1 3,1 2,1 3,2 2,1 3,1 2,1 2,1 3,1 2,2 3,1 2,1 2,1 3,1 2,1 3,1 2,1 3,1 2,1 2,1 3,1 2,1 3,1 2,1 2,1 3,1 2,0 3,1 2,1 3,1 2,1" /></g></svg>