<?xml version="1.0" encoding="UTF-8" standalone="no"?>
<!-- Created with Inkscape (http://www.inkscape.org/) -->

<svg
   xmlns:dc="http://purl.org/dc/elements/1.1/"
   xmlns:cc="http://creativecommons.org/ns#"
   xmlns:rdf="http://www.w3.org/1999/02/22-rdf-syntax-ns#"
   xmlns:svg="http://www.w3.org/2000/svg"
   xmlns="http://www.w3.org/2000/svg"
   xmlns:sodipodi="http://sodipodi.sourceforge.net/DTD/sodipodi-0.dtd"
   xmlns:inkscape="http://www.inkscape.org/namespaces/inkscape"
   id="svg5070"
   version="1.1"
   inkscape:version="0.91 r13725"
   xml:space="preserve"
   width="743.75"
   height="1052.5"
   viewBox="0 0 743.75 1052.5"
   sodipodi:docname="RegulatedCascodeBias.SensorCurrent.svg"><metadata
     id="metadata5076"><rdf:RDF><cc:Work
         rdf:about=""><dc:format>image/svg+xml</dc:format><dc:type
           rdf:resource="http://purl.org/dc/dcmitype/StillImage" /><dc:title></dc:title></cc:Work></rdf:RDF></metadata><defs
     id="defs5074" /><sodipodi:namedview
     pagecolor="#ffffff"
     bordercolor="#666666"
     borderopacity="1"
     objecttolerance="10"
     gridtolerance="10"
     guidetolerance="10"
     inkscape:pageopacity="0"
     inkscape:pageshadow="2"
     inkscape:window-width="1109"
     inkscape:window-height="856"
     id="namedview5072"
     showgrid="false"
     inkscape:zoom="0.66128266"
     inkscape:cx="371.875"
     inkscape:cy="526.25"
     inkscape:window-x="0"
     inkscape:window-y="24"
     inkscape:window-maximized="0"
     inkscape:current-layer="g5078" /><g
     id="g5078"
     inkscape:groupmode="layer"
     inkscape:label="ink_ext_XXXXXX"
     transform="matrix(1.25,0,0,-1.25,0,1052.5)"><g
       id="g5080"
       transform="scale(0.1,0.1)"><path
         d="m 220,220 5720,0 0,5900 -5720,0 0,-5900 z"
         style="fill:#ffffff;fill-opacity:1;fill-rule:nonzero;stroke:none"
         id="path5082"
         inkscape:connector-curvature="0" /><g
         id="g5084"
         transform="scale(10,10)"><text
           transform="matrix(1,0,0,-1,243,66)"
           style="font-variant:normal;font-weight:normal;font-size:10px;font-family:Helvetica;-inkscape-font-specification:Helvetica;writing-mode:lr-tb;fill:#000000;fill-opacity:1;fill-rule:nonzero;stroke:none"
           id="text5086"><tspan
             x="0 5 10.84 15.84 23.059999 28.620001 34.18"
             y="0"
             sodipodi:role="line"
             id="tspan5088">v−sweep</tspan><tspan
             x="-189 -183.44 -178.44 -172.88 -170.10001 -167.32001 -163.42999 -159.53999 -156.75999 -151.75999 -146.2 -140.64 -135.64 -130.64 -127.86 -125.08 -121.75 -116.19 -110.63 -105.07 -102.85 -97.290001 -94.510002 -88.949997 -83.389999 -78.389999 -72.830002 -67.830002 -62.830002 -57.27 -51.709999 -46.150002 -40.59 -38.369999 -32.810001"
             y="-530"
             sodipodi:role="line"
             id="tspan5090">dc1: **.subckt regulatedcascodebias</tspan></text>
</g><path
         d="m 840,1040 0,4440"
         style="fill:none;stroke:#000000;stroke-width:10;stroke-linecap:butt;stroke-linejoin:miter;stroke-miterlimit:10;stroke-dasharray:none;stroke-opacity:1"
         id="path5092"
         inkscape:connector-curvature="0" /><g
         id="g5094"
         transform="scale(10,10)"><text
           transform="matrix(1,0,0,-1,75,87)"
           style="font-variant:normal;font-weight:normal;font-size:10px;font-family:Helvetica;-inkscape-font-specification:Helvetica;writing-mode:lr-tb;fill:#000000;fill-opacity:1;fill-rule:nonzero;stroke:none"
           id="text5096"><tspan
             x="0 5.5599999 8.3400002"
             y="0"
             sodipodi:role="line"
             id="tspan5098">0.0</tspan></text>
</g><path
         d="m 2050,1040 0,4440"
         style="fill:none;stroke:#606060;stroke-width:10;stroke-linecap:butt;stroke-linejoin:miter;stroke-miterlimit:10;stroke-dasharray:none;stroke-opacity:1"
         id="path5100"
         inkscape:connector-curvature="0" /><g
         id="g5102"
         transform="scale(10,10)"><text
           transform="matrix(1,0,0,-1,193,87)"
           style="font-variant:normal;font-weight:normal;font-size:10px;font-family:Helvetica;-inkscape-font-specification:Helvetica;writing-mode:lr-tb;fill:#000000;fill-opacity:1;fill-rule:nonzero;stroke:none"
           id="text5104"><tspan
             x="0 5.5599999 11.12 13.9"
             y="0"
             sodipodi:role="line"
             id="tspan5106">50.0</tspan></text>
</g><path
         d="m 3260,1040 0,4440"
         style="fill:none;stroke:#606060;stroke-width:10;stroke-linecap:butt;stroke-linejoin:miter;stroke-miterlimit:10;stroke-dasharray:none;stroke-opacity:1"
         id="path5108"
         inkscape:connector-curvature="0" /><g
         id="g5110"
         transform="scale(10,10)"><text
           transform="matrix(1,0,0,-1,311,87)"
           style="font-variant:normal;font-weight:normal;font-size:10px;font-family:Helvetica;-inkscape-font-specification:Helvetica;writing-mode:lr-tb;fill:#000000;fill-opacity:1;fill-rule:nonzero;stroke:none"
           id="text5112"><tspan
             x="0 5.5599999 11.12 16.68 19.459999"
             y="0"
             sodipodi:role="line"
             id="tspan5114">100.0</tspan></text>
</g><path
         d="m 4470,1040 0,4440"
         style="fill:none;stroke:#606060;stroke-width:10;stroke-linecap:butt;stroke-linejoin:miter;stroke-miterlimit:10;stroke-dasharray:none;stroke-opacity:1"
         id="path5116"
         inkscape:connector-curvature="0" /><g
         id="g5118"
         transform="scale(10,10)"><text
           transform="matrix(1,0,0,-1,432,87)"
           style="font-variant:normal;font-weight:normal;font-size:10px;font-family:Helvetica;-inkscape-font-specification:Helvetica;writing-mode:lr-tb;fill:#000000;fill-opacity:1;fill-rule:nonzero;stroke:none"
           id="text5120"><tspan
             x="0 5.5599999 11.12 16.68 19.459999"
             y="0"
             sodipodi:role="line"
             id="tspan5122">150.0</tspan></text>
</g><path
         d="m 5680,1040 0,4440"
         style="fill:none;stroke:#606060;stroke-width:10;stroke-linecap:butt;stroke-linejoin:miter;stroke-miterlimit:10;stroke-dasharray:none;stroke-opacity:1"
         id="path5124"
         inkscape:connector-curvature="0" /><g
         id="g5126"
         transform="scale(10,10)"><text
           transform="matrix(1,0,0,-1,553,87)"
           style="font-variant:normal;font-weight:normal;font-size:10px;font-family:Helvetica;-inkscape-font-specification:Helvetica;writing-mode:lr-tb;fill:#000000;fill-opacity:1;fill-rule:nonzero;stroke:none"
           id="text5128"><tspan
             x="0 5.5599999 11.12 16.68 19.459999"
             y="0"
             sodipodi:role="line"
             id="tspan5130">200.0</tspan><tspan
             x="-171"
             y="21"
             id="tspan5132">V</tspan></text>
</g><path
         d="m 840,1040 4840,0"
         style="fill:none;stroke:#000000;stroke-width:10;stroke-linecap:butt;stroke-linejoin:miter;stroke-miterlimit:10;stroke-dasharray:none;stroke-opacity:1"
         id="path5134"
         inkscape:connector-curvature="0" /><g
         id="g5136"
         transform="scale(10,10)"><text
           transform="matrix(1,0,0,-1,64,101)"
           style="font-variant:normal;font-weight:normal;font-size:10px;font-family:Helvetica;-inkscape-font-specification:Helvetica;writing-mode:lr-tb;fill:#000000;fill-opacity:1;fill-rule:nonzero;stroke:none"
           id="text5138"><tspan
             x="0 5.5599999 8.3400002"
             y="0"
             sodipodi:role="line"
             id="tspan5140">0.0</tspan></text>
</g><path
         d="m 840,1780 4840,0"
         style="fill:none;stroke:#606060;stroke-width:10;stroke-linecap:butt;stroke-linejoin:miter;stroke-miterlimit:10;stroke-dasharray:none;stroke-opacity:1"
         id="path5142"
         inkscape:connector-curvature="0" /><g
         id="g5144"
         transform="scale(10,10)"><text
           transform="matrix(1,0,0,-1,64,175)"
           style="font-variant:normal;font-weight:normal;font-size:10px;font-family:Helvetica;-inkscape-font-specification:Helvetica;writing-mode:lr-tb;fill:#000000;fill-opacity:1;fill-rule:nonzero;stroke:none"
           id="text5146"><tspan
             x="0 5.5599999 8.3400002"
             y="0"
             sodipodi:role="line"
             id="tspan5148">5.0</tspan></text>
</g><path
         d="m 840,2520 4840,0"
         style="fill:none;stroke:#606060;stroke-width:10;stroke-linecap:butt;stroke-linejoin:miter;stroke-miterlimit:10;stroke-dasharray:none;stroke-opacity:1"
         id="path5150"
         inkscape:connector-curvature="0" /><g
         id="g5152"
         transform="scale(10,10)"><text
           transform="matrix(1,0,0,-1,58,249)"
           style="font-variant:normal;font-weight:normal;font-size:10px;font-family:Helvetica;-inkscape-font-specification:Helvetica;writing-mode:lr-tb;fill:#000000;fill-opacity:1;fill-rule:nonzero;stroke:none"
           id="text5154"><tspan
             x="0 5.5599999 11.12 13.9"
             y="0"
             sodipodi:role="line"
             id="tspan5156">10.0</tspan></text>
</g><path
         d="m 840,3260 4840,0"
         style="fill:none;stroke:#606060;stroke-width:10;stroke-linecap:butt;stroke-linejoin:miter;stroke-miterlimit:10;stroke-dasharray:none;stroke-opacity:1"
         id="path5158"
         inkscape:connector-curvature="0" /><g
         id="g5160"
         transform="scale(10,10)"><text
           transform="matrix(1,0,0,-1,58,323)"
           style="font-variant:normal;font-weight:normal;font-size:10px;font-family:Helvetica;-inkscape-font-specification:Helvetica;writing-mode:lr-tb;fill:#000000;fill-opacity:1;fill-rule:nonzero;stroke:none"
           id="text5162"><tspan
             x="0 5.5599999 11.12 13.9"
             y="0"
             sodipodi:role="line"
             id="tspan5164">15.0</tspan></text>
</g><path
         d="m 840,4000 4840,0"
         style="fill:none;stroke:#606060;stroke-width:10;stroke-linecap:butt;stroke-linejoin:miter;stroke-miterlimit:10;stroke-dasharray:none;stroke-opacity:1"
         id="path5166"
         inkscape:connector-curvature="0" /><g
         id="g5168"
         transform="scale(10,10)"><text
           transform="matrix(1,0,0,-1,58,397)"
           style="font-variant:normal;font-weight:normal;font-size:10px;font-family:Helvetica;-inkscape-font-specification:Helvetica;writing-mode:lr-tb;fill:#000000;fill-opacity:1;fill-rule:nonzero;stroke:none"
           id="text5170"><tspan
             x="0 5.5599999 11.12 13.9"
             y="0"
             sodipodi:role="line"
             id="tspan5172">20.0</tspan></text>
</g><path
         d="m 840,4740 4840,0"
         style="fill:none;stroke:#606060;stroke-width:10;stroke-linecap:butt;stroke-linejoin:miter;stroke-miterlimit:10;stroke-dasharray:none;stroke-opacity:1"
         id="path5174"
         inkscape:connector-curvature="0" /><g
         id="g5176"
         transform="scale(10,10)"><text
           transform="matrix(1,0,0,-1,58,471)"
           style="font-variant:normal;font-weight:normal;font-size:10px;font-family:Helvetica;-inkscape-font-specification:Helvetica;writing-mode:lr-tb;fill:#000000;fill-opacity:1;fill-rule:nonzero;stroke:none"
           id="text5178"><tspan
             x="0 5.5599999 11.12 13.9"
             y="0"
             sodipodi:role="line"
             id="tspan5180">25.0</tspan></text>
</g><path
         d="m 840,5480 4840,0"
         style="fill:none;stroke:#606060;stroke-width:10;stroke-linecap:butt;stroke-linejoin:miter;stroke-miterlimit:10;stroke-dasharray:none;stroke-opacity:1"
         id="path5182"
         inkscape:connector-curvature="0" /><g
         id="g5184"
         transform="scale(10,10)"><text
           transform="matrix(1,0,0,-1,58,545)"
           style="font-variant:normal;font-weight:normal;font-size:10px;font-family:Helvetica;-inkscape-font-specification:Helvetica;writing-mode:lr-tb;fill:#000000;fill-opacity:1;fill-rule:nonzero;stroke:none"
           id="text5186"><tspan
             x="0 5.5599999 11.12 13.9"
             y="0"
             sodipodi:role="line"
             id="tspan5188">30.0</tspan><tspan
             x="-4 4.3299999"
             y="-37"
             sodipodi:role="line"
             id="tspan5190">mA</tspan></text>
</g><path
         d="m 2900,5860 240,0"
         style="fill:none;stroke:#ff0000;stroke-width:10;stroke-linecap:butt;stroke-linejoin:miter;stroke-miterlimit:10;stroke-dasharray:none;stroke-opacity:1"
         id="path5192"
         inkscape:connector-curvature="0" /><g
         id="g5194"
         transform="scale(10,10)"><text
           transform="matrix(1,0,0,-1,320,582)"
           style="font-variant:normal;font-weight:normal;font-size:10px;font-family:Helvetica;-inkscape-font-specification:Helvetica;writing-mode:lr-tb;fill:#000000;fill-opacity:1;fill-rule:nonzero;stroke:none"
           id="text5196"><tspan
             x="0 5 10 15.56 21.120001 26.120001 31.68 37.240002 40.57 46.130001 51.689999 56.689999"
             y="0"
             sodipodi:role="line"
             id="tspan5198">vsens#branch</tspan></text>
</g><path
         d="m 860,1060 30,10 20,10 30,10 20,10 30,10 20,10 20,10 30,10 20,20 30,10 20,10 20,10 30,20 20,10 30,10 20,20 30,10 20,20 20,10 30,20 20,10 30,20 20,20 30,10 20,20 20,20 30,10 20,20 30,20 20,20 20,20 30,20 20,20 30,20 20,20 30,20 20,20 20,20 30,20 20,20 30,20 20,30 20,20 30,20 20,20 30,30 20,20 30,20 20,30 20,20 30,30 20,20 30,20 20,30 30,20 20,30 20,20 30,30 20,30 30,20 20,30 20,20 30,30 20,20 30,30 20,30 30,20 20,30 20,30 30,20 20,30 30,30 20,20 30,30 20,30 20,20 30,30 20,30 30,20 20,30 20,30 30,20 20,30 30,30 20,20 30,30 20,20 20,30 30,30 20,20 30,30 20,30 20,20 30,30 20,20 30,30 20,20 30,30 20,20 20,30 30,20 20,30 30,20 20,30 30,20 20,30 20,20 30,20 20,30 30,20 20,20 20,30 30,20 20,20 30,20 20,30 30,20 20,20 20,20 30,20 20,30 30,20 20,20 30,20 20,20 20,20 30,20 20,20 30,20 20,20 20,20 30,20 20,20 30,20 20,20 30,10 20,20 20,20 30,20 20,20 30,10 20,20 20,20 30,10 20,20 30,20 20,10 30,20 20,20 20,10 30,20 20,10 30,20 20,10 30,20 20,10 20,20 30,10 20,20 30,10 20,10 20,20 30,10 20,20 30,10 20,10 30,10 20,20 20,10 30,10 20,10 30,20 20,10 30,10 20,10 20,10 30,10 20,20 30,10 20,10 20,10 30,10 20,10 30,10 20,10 30,10 20,10 20,10 30,10 20,10 30,10 20,10 20,10 30,10 20,0 30,10 20,10 30,10 20,10"
         style="fill:none;stroke:#ff0000;stroke-width:10;stroke-linecap:butt;stroke-linejoin:miter;stroke-miterlimit:10;stroke-dasharray:none;stroke-opacity:1"
         id="path5200"
         inkscape:connector-curvature="0" /><path
         d="m 860,1060 30,10 20,10 30,10 20,10 30,10 20,10 20,10 30,10 20,20 30,10 20,10 20,10 30,20 20,10 30,10 20,20 30,10 20,20 20,10 30,20 20,10 30,20 20,20 30,10 20,20 20,20 30,10 20,20 30,20 20,20 20,20 30,20 20,20 30,20 20,20 30,20 20,20 20,20 30,20 20,20 30,20 20,30 20,20 30,20 20,20 30,30 20,20 30,20 20,30 20,20 30,30 20,20 30,20 20,30 30,20 20,30 20,20 30,30 20,30 30,20 20,30 20,20 30,30 20,20 30,30 20,30 30,20 20,30 20,30 30,20 20,30 30,30 20,20 30,30 20,30 20,20 30,30 20,30 30,20 20,30 20,30 30,20 20,30 30,30 20,20 30,30 20,20 20,30 30,30 20,20 30,30 20,30 20,20 30,30 20,20 30,30 20,20 30,30 20,20 20,30 30,20 20,30 30,20 20,30 30,20 20,30 20,20 30,20 20,30 30,20 20,20 20,30 30,20 20,20 30,20 20,30 30,20 20,20 20,20 30,20 20,30 30,20 20,20 30,20 20,20 20,20 30,20 20,20 30,20 20,20 20,20 30,20 20,20 30,20 20,20 30,10 20,20 20,20 30,20 20,20 30,10 20,20 20,20 30,10 20,20 30,20 20,10 30,20 20,20 20,10 30,20 20,10 30,20 20,10 30,20 20,10 20,20 30,10 20,20 30,10 20,10 20,20 30,10 20,20 30,10 20,10 30,10 20,20 20,10 30,10 20,10 30,20 20,10 30,10 20,10 20,10 30,10 20,20 30,10 20,10 20,10 30,10 20,10 30,10 20,10 30,10 20,10 20,10 30,10 20,10 30,10 20,10 20,10 30,10 20,0 30,10 20,10 30,10 20,10"
         style="fill:none;stroke:#ff0000;stroke-width:10;stroke-linecap:butt;stroke-linejoin:miter;stroke-miterlimit:10;stroke-dasharray:none;stroke-opacity:1"
         id="path5202"
         inkscape:connector-curvature="0" /><path
         d="m 860,1060 30,10 20,10 30,10 20,10 30,10 20,10 20,10 30,10 20,20 30,10 20,10 20,10 30,20 20,10 30,10 20,20 30,10 20,20 20,10 30,20 20,10 30,20 20,20 30,10 20,20 20,20 30,10 20,20 30,20 20,20 20,20 30,20 20,20 30,20 20,20 30,20 20,20 20,20 30,20 20,20 30,20 20,30 20,20 30,20 20,20 30,30 20,20 30,20 20,30 20,20 30,30 20,20 30,20 20,30 30,20 20,30 20,20 30,30 20,30 30,20 20,30 20,20 30,30 20,20 30,30 20,30 30,20 20,30 20,30 30,20 20,30 30,30 20,20 30,30 20,30 20,20 30,30 20,30 30,20 20,30 20,30 30,20 20,30 30,30 20,20 30,30 20,20 20,30 30,30 20,20 30,30 20,30 20,20 30,30 20,20 30,30 20,20 30,30 20,20 20,30 30,20 20,30 30,20 20,30 30,20 20,30 20,20 30,20 20,30 30,20 20,20 20,30 30,20 20,20 30,20 20,30 30,20 20,20 20,20 30,20 20,30 30,20 20,20 30,20 20,20 20,20 30,20 20,20 30,20 20,20 20,20 30,20 20,20 30,20 20,20 30,10 20,20 20,20 30,20 20,20 30,10 20,20 20,20 30,10 20,20 30,20 20,10 30,20 20,20 20,10 30,20 20,10 30,20 20,10 30,20 20,10 20,20 30,10 20,20 30,10 20,10 20,20 30,10 20,20 30,10 20,10 30,10 20,20 20,10 30,10 20,10 30,20 20,10 30,10 20,10 20,10 30,10 20,20 30,10 20,10 20,10 30,10 20,10 30,10 20,10 30,10 20,10 20,10 30,10 20,10 30,10 20,10 20,10 30,10 20,0 30,10 20,10 30,10 20,10"
         style="fill:none;stroke:#ff0000;stroke-width:10;stroke-linecap:butt;stroke-linejoin:miter;stroke-miterlimit:10;stroke-dasharray:none;stroke-opacity:1"
         id="path5204"
         inkscape:connector-curvature="0" /><path
         d="m 860,1060 30,10 20,10 30,10 20,10 30,10 20,10 20,10 30,10 20,20 30,10 20,10 20,10 30,20 20,10 30,10 20,20 30,10 20,20 20,10 30,20 20,10 30,20 20,20 30,10 20,20 20,20 30,10 20,20 30,20 20,20 20,20 30,20 20,20 30,20 20,20 30,20 20,20 20,20 30,20 20,20 30,20 20,30 20,20 30,20 20,20 30,30 20,20 30,20 20,30 20,20 30,30 20,20 30,20 20,30 30,20 20,30 20,20 30,30 20,30 30,20 20,30 20,20 30,30 20,20 30,30 20,30 30,20 20,30 20,30 30,20 20,30 30,30 20,20 30,30 20,30 20,20 30,30 20,30 30,20 20,30 20,30 30,20 20,30 30,30 20,20 30,30 20,20 20,30 30,30 20,20 30,30 20,30 20,20 30,30 20,20 30,30 20,20 30,30 20,20 20,30 30,20 20,30 30,20 20,30 30,20 20,30 20,20 30,20 20,30 30,20 20,20 20,30 30,20 20,20 30,20 20,30 30,20 20,20 20,20 30,20 20,30 30,20 20,20 30,20 20,20 20,20 30,20 20,20 30,20 20,20 20,20 30,20 20,20 30,20 20,20 30,10 20,20 20,20 30,20 20,20 30,10 20,20 20,20 30,10 20,20 30,20 20,10 30,20 20,20 20,10 30,20 20,10 30,20 20,10 30,20 20,10 20,20 30,10 20,20 30,10 20,10 20,20 30,10 20,20 30,10 20,10 30,10 20,20 20,10 30,10 20,10 30,20 20,10 30,10 20,10 20,10 30,10 20,20 30,10 20,10 20,10 30,10 20,10 30,10 20,10 30,10 20,10 20,10 30,10 20,10 30,10 20,10 20,10 30,10 20,0 30,10 20,10 30,10 20,10"
         style="fill:none;stroke:#ff0000;stroke-width:10;stroke-linecap:butt;stroke-linejoin:miter;stroke-miterlimit:10;stroke-dasharray:none;stroke-opacity:1"
         id="path5206"
         inkscape:connector-curvature="0" /><path
         d="m 860,1060 30,10 20,10 30,10 20,10 30,10 20,10 20,10 30,10 20,20 30,10 20,10 20,10 30,20 20,10 30,10 20,20 30,10 20,20 20,10 30,20 20,10 30,20 20,20 30,10 20,20 20,20 30,10 20,20 30,20 20,20 20,20 30,20 20,20 30,20 20,20 30,20 20,20 20,20 30,20 20,20 30,20 20,30 20,20 30,20 20,20 30,30 20,20 30,20 20,30 20,20 30,30 20,20 30,20 20,30 30,20 20,30 20,20 30,30 20,30 30,20 20,30 20,20 30,30 20,20 30,30 20,30 30,20 20,30 20,30 30,20 20,30 30,30 20,20 30,30 20,30 20,20 30,30 20,30 30,20 20,30 20,30 30,20 20,30 30,30 20,20 30,30 20,20 20,30 30,30 20,20 30,30 20,30 20,20 30,30 20,20 30,30 20,20 30,30 20,20 20,30 30,20 20,30 30,20 20,30 30,20 20,30 20,20 30,20 20,30 30,20 20,20 20,30 30,20 20,20 30,20 20,30 30,20 20,20 20,20 30,20 20,30 30,20 20,20 30,20 20,20 20,20 30,20 20,20 30,20 20,20 20,20 30,20 20,20 30,20 20,20 30,10 20,20 20,20 30,20 20,20 30,10 20,20 20,20 30,10 20,20 30,20 20,10 30,20 20,20 20,10 30,20 20,10 30,20 20,10 30,20 20,10 20,20 30,10 20,20 30,10 20,10 20,20 30,10 20,20 30,10 20,10 30,10 20,20 20,10 30,10 20,10 30,20 20,10 30,10 20,10 20,10 30,10 20,20 30,10 20,10 20,10 30,10 20,10 30,10 20,10 30,10 20,10 20,10 30,10 20,10 30,10 20,10 20,10 30,10 20,0 30,10 20,10 30,10 20,10"
         style="fill:none;stroke:#ff0000;stroke-width:10;stroke-linecap:butt;stroke-linejoin:miter;stroke-miterlimit:10;stroke-dasharray:none;stroke-opacity:1"
         id="path5208"
         inkscape:connector-curvature="0" /></g></g></svg>