<?xml version="1.0" encoding="UTF-8" standalone="no"?>
<!-- Created with Inkscape (http://www.inkscape.org/) -->

<svg
   xmlns:dc="http://purl.org/dc/elements/1.1/"
   xmlns:cc="http://creativecommons.org/ns#"
   xmlns:rdf="http://www.w3.org/1999/02/22-rdf-syntax-ns#"
   xmlns:svg="http://www.w3.org/2000/svg"
   xmlns="http://www.w3.org/2000/svg"
   xmlns:sodipodi="http://sodipodi.sourceforge.net/DTD/sodipodi-0.dtd"
   xmlns:inkscape="http://www.inkscape.org/namespaces/inkscape"
   id="svg5229"
   version="1.1"
   inkscape:version="0.91 r13725"
   xml:space="preserve"
   width="743.75"
   height="1052.5"
   viewBox="0 0 743.75 1052.5"
   sodipodi:docname="RegulatedCascodeBiasNeuronCurrent.svg"><metadata
     id="metadata5235"><rdf:RDF><cc:Work
         rdf:about=""><dc:format>image/svg+xml</dc:format><dc:type
           rdf:resource="http://purl.org/dc/dcmitype/StillImage" /><dc:title></dc:title></cc:Work></rdf:RDF></metadata><defs
     id="defs5233" /><sodipodi:namedview
     pagecolor="#ffffff"
     bordercolor="#666666"
     borderopacity="1"
     objecttolerance="10"
     gridtolerance="10"
     guidetolerance="10"
     inkscape:pageopacity="0"
     inkscape:pageshadow="2"
     inkscape:window-width="1126"
     inkscape:window-height="963"
     id="namedview5231"
     showgrid="false"
     inkscape:zoom="0.76294537"
     inkscape:cx="371.875"
     inkscape:cy="526.25"
     inkscape:window-x="2048"
     inkscape:window-y="7"
     inkscape:window-maximized="0"
     inkscape:current-layer="g5237" /><g
     id="g5237"
     inkscape:groupmode="layer"
     inkscape:label="ink_ext_XXXXXX"
     transform="matrix(1.25,0,0,-1.25,0,1052.5)"><g
       id="g5239"
       transform="scale(0.1,0.1)"><path
         d="m 220,220 5720,0 0,5900 -5720,0 0,-5900 z"
         style="fill:#ffffff;fill-opacity:1;fill-rule:nonzero;stroke:none"
         id="path5241"
         inkscape:connector-curvature="0" /><g
         id="g5243"
         transform="scale(10,10)"><text
           transform="matrix(1,0,0,-1,243,66)"
           style="font-variant:normal;font-weight:normal;font-size:10px;font-family:Helvetica;-inkscape-font-specification:Helvetica;writing-mode:lr-tb;fill:#000000;fill-opacity:1;fill-rule:nonzero;stroke:none"
           id="text5245"><tspan
             x="0 5 10.84 15.84 23.059999 28.620001 34.18"
             y="0"
             sodipodi:role="line"
             id="tspan5247">v−sweep</tspan><tspan
             x="-189 -183.44 -178.44 -172.88 -170.10001 -167.32001 -163.42999 -159.53999 -156.75999 -151.75999 -146.2 -140.64 -135.64 -130.64 -127.86 -125.08 -121.75 -116.19 -110.63 -105.07 -102.85 -97.290001 -94.510002 -88.949997 -83.389999 -78.389999 -72.830002 -67.830002 -62.830002 -57.27 -51.709999 -46.150002 -40.59 -38.369999 -32.810001"
             y="-530"
             sodipodi:role="line"
             id="tspan5249">dc1: **.subckt regulatedcascodebias</tspan></text>
</g><path
         d="m 780,1040 0,4400"
         style="fill:none;stroke:#000000;stroke-width:10;stroke-linecap:butt;stroke-linejoin:miter;stroke-miterlimit:10;stroke-dasharray:none;stroke-opacity:1"
         id="path5251"
         inkscape:connector-curvature="0" /><g
         id="g5253"
         transform="scale(10,10)"><text
           transform="matrix(1,0,0,-1,69,87)"
           style="font-variant:normal;font-weight:normal;font-size:10px;font-family:Helvetica;-inkscape-font-specification:Helvetica;writing-mode:lr-tb;fill:#000000;fill-opacity:1;fill-rule:nonzero;stroke:none"
           id="text5255"><tspan
             x="0 5.5599999 8.3400002"
             y="0"
             sodipodi:role="line"
             id="tspan5257">0.0</tspan></text>
</g><path
         d="m 2020,1040 0,4400"
         style="fill:none;stroke:#606060;stroke-width:10;stroke-linecap:butt;stroke-linejoin:miter;stroke-miterlimit:10;stroke-dasharray:none;stroke-opacity:1"
         id="path5259"
         inkscape:connector-curvature="0" /><g
         id="g5261"
         transform="scale(10,10)"><text
           transform="matrix(1,0,0,-1,190,87)"
           style="font-variant:normal;font-weight:normal;font-size:10px;font-family:Helvetica;-inkscape-font-specification:Helvetica;writing-mode:lr-tb;fill:#000000;fill-opacity:1;fill-rule:nonzero;stroke:none"
           id="text5263"><tspan
             x="0 5.5599999 11.12 13.9"
             y="0"
             sodipodi:role="line"
             id="tspan5265">50.0</tspan></text>
</g><path
         d="m 3260,1040 0,4400"
         style="fill:none;stroke:#606060;stroke-width:10;stroke-linecap:butt;stroke-linejoin:miter;stroke-miterlimit:10;stroke-dasharray:none;stroke-opacity:1"
         id="path5267"
         inkscape:connector-curvature="0" /><g
         id="g5269"
         transform="scale(10,10)"><text
           transform="matrix(1,0,0,-1,311,87)"
           style="font-variant:normal;font-weight:normal;font-size:10px;font-family:Helvetica;-inkscape-font-specification:Helvetica;writing-mode:lr-tb;fill:#000000;fill-opacity:1;fill-rule:nonzero;stroke:none"
           id="text5271"><tspan
             x="0 5.5599999 11.12 16.68 19.459999"
             y="0"
             sodipodi:role="line"
             id="tspan5273">100.0</tspan></text>
</g><path
         d="m 4500,1040 0,4400"
         style="fill:none;stroke:#606060;stroke-width:10;stroke-linecap:butt;stroke-linejoin:miter;stroke-miterlimit:10;stroke-dasharray:none;stroke-opacity:1"
         id="path5275"
         inkscape:connector-curvature="0" /><g
         id="g5277"
         transform="scale(10,10)"><text
           transform="matrix(1,0,0,-1,435,87)"
           style="font-variant:normal;font-weight:normal;font-size:10px;font-family:Helvetica;-inkscape-font-specification:Helvetica;writing-mode:lr-tb;fill:#000000;fill-opacity:1;fill-rule:nonzero;stroke:none"
           id="text5279"><tspan
             x="0 5.5599999 11.12 16.68 19.459999"
             y="0"
             sodipodi:role="line"
             id="tspan5281">150.0</tspan></text>
</g><path
         d="m 5740,1040 0,4400"
         style="fill:none;stroke:#606060;stroke-width:10;stroke-linecap:butt;stroke-linejoin:miter;stroke-miterlimit:10;stroke-dasharray:none;stroke-opacity:1"
         id="path5283"
         inkscape:connector-curvature="0" /><g
         id="g5285"
         transform="scale(10,10)"><text
           transform="matrix(1,0,0,-1,559,87)"
           style="font-variant:normal;font-weight:normal;font-size:10px;font-family:Helvetica;-inkscape-font-specification:Helvetica;writing-mode:lr-tb;fill:#000000;fill-opacity:1;fill-rule:nonzero;stroke:none"
           id="text5287"><tspan
             x="0 5.5599999 11.12 16.68 19.459999"
             y="0"
             sodipodi:role="line"
             id="tspan5289">200.0</tspan><tspan
             x="-177"
             y="21"
             id="tspan5291">V</tspan></text>
</g><path
         d="m 780,1040 4960,0"
         style="fill:none;stroke:#000000;stroke-width:10;stroke-linecap:butt;stroke-linejoin:miter;stroke-miterlimit:10;stroke-dasharray:none;stroke-opacity:1"
         id="path5293"
         inkscape:connector-curvature="0" /><g
         id="g5295"
         transform="scale(10,10)"><text
           transform="matrix(1,0,0,-1,58,101)"
           style="font-variant:normal;font-weight:normal;font-size:10px;font-family:Helvetica;-inkscape-font-specification:Helvetica;writing-mode:lr-tb;fill:#000000;fill-opacity:1;fill-rule:nonzero;stroke:none"
           id="text5297"><tspan
             x="0 5.5599999 8.3400002"
             y="0"
             sodipodi:role="line"
             id="tspan5299">0.0</tspan></text>
</g><path
         d="m 780,1590 4960,0"
         style="fill:none;stroke:#606060;stroke-width:10;stroke-linecap:butt;stroke-linejoin:miter;stroke-miterlimit:10;stroke-dasharray:none;stroke-opacity:1"
         id="path5301"
         inkscape:connector-curvature="0" /><g
         id="g5303"
         transform="scale(10,10)"><text
           transform="matrix(1,0,0,-1,58,156)"
           style="font-variant:normal;font-weight:normal;font-size:10px;font-family:Helvetica;-inkscape-font-specification:Helvetica;writing-mode:lr-tb;fill:#000000;fill-opacity:1;fill-rule:nonzero;stroke:none"
           id="text5305"><tspan
             x="0 5.5599999 8.3400002"
             y="0"
             sodipodi:role="line"
             id="tspan5307">0.2</tspan></text>
</g><path
         d="m 780,2140 4960,0"
         style="fill:none;stroke:#606060;stroke-width:10;stroke-linecap:butt;stroke-linejoin:miter;stroke-miterlimit:10;stroke-dasharray:none;stroke-opacity:1"
         id="path5309"
         inkscape:connector-curvature="0" /><g
         id="g5311"
         transform="scale(10,10)"><text
           transform="matrix(1,0,0,-1,58,211)"
           style="font-variant:normal;font-weight:normal;font-size:10px;font-family:Helvetica;-inkscape-font-specification:Helvetica;writing-mode:lr-tb;fill:#000000;fill-opacity:1;fill-rule:nonzero;stroke:none"
           id="text5313"><tspan
             x="0 5.5599999 8.3400002"
             y="0"
             sodipodi:role="line"
             id="tspan5315">0.4</tspan></text>
</g><path
         d="m 780,2690 4960,0"
         style="fill:none;stroke:#606060;stroke-width:10;stroke-linecap:butt;stroke-linejoin:miter;stroke-miterlimit:10;stroke-dasharray:none;stroke-opacity:1"
         id="path5317"
         inkscape:connector-curvature="0" /><g
         id="g5319"
         transform="scale(10,10)"><text
           transform="matrix(1,0,0,-1,58,266)"
           style="font-variant:normal;font-weight:normal;font-size:10px;font-family:Helvetica;-inkscape-font-specification:Helvetica;writing-mode:lr-tb;fill:#000000;fill-opacity:1;fill-rule:nonzero;stroke:none"
           id="text5321"><tspan
             x="0 5.5599999 8.3400002"
             y="0"
             sodipodi:role="line"
             id="tspan5323">0.6</tspan></text>
</g><path
         d="m 780,3240 4960,0"
         style="fill:none;stroke:#606060;stroke-width:10;stroke-linecap:butt;stroke-linejoin:miter;stroke-miterlimit:10;stroke-dasharray:none;stroke-opacity:1"
         id="path5325"
         inkscape:connector-curvature="0" /><g
         id="g5327"
         transform="scale(10,10)"><text
           transform="matrix(1,0,0,-1,58,321)"
           style="font-variant:normal;font-weight:normal;font-size:10px;font-family:Helvetica;-inkscape-font-specification:Helvetica;writing-mode:lr-tb;fill:#000000;fill-opacity:1;fill-rule:nonzero;stroke:none"
           id="text5329"><tspan
             x="0 5.5599999 8.3400002"
             y="0"
             sodipodi:role="line"
             id="tspan5331">0.8</tspan></text>
</g><path
         d="m 780,3790 4960,0"
         style="fill:none;stroke:#606060;stroke-width:10;stroke-linecap:butt;stroke-linejoin:miter;stroke-miterlimit:10;stroke-dasharray:none;stroke-opacity:1"
         id="path5333"
         inkscape:connector-curvature="0" /><g
         id="g5335"
         transform="scale(10,10)"><text
           transform="matrix(1,0,0,-1,58,376)"
           style="font-variant:normal;font-weight:normal;font-size:10px;font-family:Helvetica;-inkscape-font-specification:Helvetica;writing-mode:lr-tb;fill:#000000;fill-opacity:1;fill-rule:nonzero;stroke:none"
           id="text5337"><tspan
             x="0 5.5599999 8.3400002"
             y="0"
             sodipodi:role="line"
             id="tspan5339">1.0</tspan></text>
</g><path
         d="m 780,4340 4960,0"
         style="fill:none;stroke:#606060;stroke-width:10;stroke-linecap:butt;stroke-linejoin:miter;stroke-miterlimit:10;stroke-dasharray:none;stroke-opacity:1"
         id="path5341"
         inkscape:connector-curvature="0" /><g
         id="g5343"
         transform="scale(10,10)"><text
           transform="matrix(1,0,0,-1,58,431)"
           style="font-variant:normal;font-weight:normal;font-size:10px;font-family:Helvetica;-inkscape-font-specification:Helvetica;writing-mode:lr-tb;fill:#000000;fill-opacity:1;fill-rule:nonzero;stroke:none"
           id="text5345"><tspan
             x="0 5.5599999 8.3400002"
             y="0"
             sodipodi:role="line"
             id="tspan5347">1.2</tspan></text>
</g><path
         d="m 780,4890 4960,0"
         style="fill:none;stroke:#606060;stroke-width:10;stroke-linecap:butt;stroke-linejoin:miter;stroke-miterlimit:10;stroke-dasharray:none;stroke-opacity:1"
         id="path5349"
         inkscape:connector-curvature="0" /><g
         id="g5351"
         transform="scale(10,10)"><text
           transform="matrix(1,0,0,-1,58,486)"
           style="font-variant:normal;font-weight:normal;font-size:10px;font-family:Helvetica;-inkscape-font-specification:Helvetica;writing-mode:lr-tb;fill:#000000;fill-opacity:1;fill-rule:nonzero;stroke:none"
           id="text5353"><tspan
             x="0 5.5599999 8.3400002"
             y="0"
             sodipodi:role="line"
             id="tspan5355">1.4</tspan></text>
</g><path
         d="m 780,5440 4960,0"
         style="fill:none;stroke:#606060;stroke-width:10;stroke-linecap:butt;stroke-linejoin:miter;stroke-miterlimit:10;stroke-dasharray:none;stroke-opacity:1"
         id="path5357"
         inkscape:connector-curvature="0" /><g
         id="g5359"
         transform="scale(10,10)"><text
           transform="matrix(1,0,0,-1,58,541)"
           style="font-variant:normal;font-weight:normal;font-size:10px;font-family:Helvetica;-inkscape-font-specification:Helvetica;writing-mode:lr-tb;fill:#000000;fill-opacity:1;fill-rule:nonzero;stroke:none"
           id="text5361"><tspan
             x="0 5.5599999 8.3400002"
             y="0"
             sodipodi:role="line"
             id="tspan5363">1.6</tspan><tspan
             x="-4 1.5599999"
             y="-41"
             sodipodi:role="line"
             id="tspan5365">uA</tspan></text>
</g><path
         d="m 2960,5860 240,0"
         style="fill:none;stroke:#ff0000;stroke-width:10;stroke-linecap:butt;stroke-linejoin:miter;stroke-miterlimit:10;stroke-dasharray:none;stroke-opacity:1"
         id="path5367"
         inkscape:connector-curvature="0" /><g
         id="g5369"
         transform="scale(10,10)"><text
           transform="matrix(1,0,0,-1,326,582)"
           style="font-variant:normal;font-weight:normal;font-size:10px;font-family:Helvetica;-inkscape-font-specification:Helvetica;writing-mode:lr-tb;fill:#000000;fill-opacity:1;fill-rule:nonzero;stroke:none"
           id="text5371"><tspan
             x="0 5 7.2199998 12.78 18.34 23.9 27.23 32.790001 38.349998 43.349998"
             y="0"
             sodipodi:role="line"
             id="tspan5373">vin#branch</tspan></text>
</g><path
         d="m 800,1070 30,20 20,10 30,10 20,20 30,10 20,10 30,20 20,10 30,10 20,20 30,10 20,20 30,10 20,20 30,20 20,10 30,20 20,20 30,20 20,10 30,20 20,20 30,20 20,20 20,20 30,20 20,20 30,20 20,30 30,20 20,20 30,20 20,30 30,20 20,20 30,30 20,20 30,30 20,20 30,30 20,30 30,20 20,30 30,20 20,30 30,30 20,30 30,20 20,30 20,30 30,30 20,30 30,20 20,30 30,30 20,30 30,30 20,30 30,30 20,30 30,30 20,30 30,30 20,30 30,30 20,30 30,30 20,30 30,30 20,30 30,30 20,30 30,30 20,30 20,30 30,30 20,30 30,30 20,30 30,30 20,30 30,30 20,30 30,30 20,30 30,30 20,30 30,20 20,30 30,30 20,30 30,30 20,30 30,30 20,20 30,30 20,30 30,30 20,20 20,30 30,30 20,20 30,30 20,30 30,20 20,30 30,30 20,20 30,30 20,20 30,30 20,20 30,30 20,20 30,20 20,30 30,20 20,20 30,30 20,20 30,20 20,30 30,20 20,20 20,20 30,20 20,20 30,30 20,20 30,20 20,20 30,20 20,20 30,20 20,20 30,20 20,10 30,20 20,20 30,20 20,20 30,20 20,10 30,20 20,20 30,20 20,10 30,20 20,20 20,10 30,20 20,20 30,10 20,20 30,10 20,20 30,10 20,20 30,10 20,20 30,10 20,10 30,20 20,10 30,10 20,20 30,10 20,10 30,20 20,10 30,10 20,10 30,20 20,10 20,10 30,10 20,10 30,10 20,20 30,10 20,10 30,10 20,10 30,10 20,10 30,10 20,10 30,10 20,10 30,10 20,10 30,10 20,10 30,10 20,0 30,10 20,10 30,10 20,10"
         style="fill:none;stroke:#ff0000;stroke-width:10;stroke-linecap:butt;stroke-linejoin:miter;stroke-miterlimit:10;stroke-dasharray:none;stroke-opacity:1"
         id="path5375"
         inkscape:connector-curvature="0" /><path
         d="m 800,1070 30,10 20,20 30,10 20,10 30,10 20,10 30,20 20,10 30,10 20,20 30,10 20,10 30,20 20,10 30,20 20,20 30,10 20,20 30,10 20,20 30,20 20,20 30,10 20,20 20,20 30,20 20,20 30,20 20,20 30,20 20,20 30,30 20,20 30,20 20,20 30,30 20,20 30,20 20,30 30,20 20,20 30,30 20,20 30,30 20,20 30,30 20,30 30,20 20,30 20,20 30,30 20,30 30,20 20,30 30,30 20,30 30,20 20,30 30,30 20,30 30,30 20,20 30,30 20,30 30,30 20,30 30,30 20,20 30,30 20,30 30,30 20,30 30,30 20,30 20,20 30,30 20,30 30,30 20,30 30,30 20,20 30,30 20,30 30,30 20,30 30,20 20,30 30,30 20,30 30,20 20,30 30,30 20,30 30,20 20,30 30,30 20,20 30,30 20,20 20,30 30,30 20,20 30,30 20,20 30,30 20,20 30,30 20,20 30,20 20,30 30,20 20,20 30,30 20,20 30,20 20,30 30,20 20,20 30,20 20,30 30,20 20,20 30,20 20,20 20,20 30,20 20,20 30,20 20,20 30,20 20,20 30,20 20,20 30,20 20,20 30,20 20,10 30,20 20,20 30,20 20,10 30,20 20,20 30,20 20,10 30,20 20,10 30,20 20,20 20,10 30,20 20,10 30,20 20,10 30,20 20,10 30,20 20,10 30,10 20,20 30,10 20,10 30,20 20,10 30,10 20,20 30,10 20,10 30,10 20,20 30,10 20,10 30,10 20,10 20,10 30,10 20,20 30,10 20,10 30,10 20,10 30,10 20,10 30,10 20,10 30,10 20,10 30,10 20,10 30,10 20,0 30,10 20,10 30,10 20,10 30,10 20,10 30,0 20,10"
         style="fill:none;stroke:#ff0000;stroke-width:10;stroke-linecap:butt;stroke-linejoin:miter;stroke-miterlimit:10;stroke-dasharray:none;stroke-opacity:1"
         id="path5377"
         inkscape:connector-curvature="0" /><path
         d="m 800,1070 30,10 20,10 30,10 20,10 30,20 20,10 30,10 20,10 30,10 20,20 30,10 20,10 30,10 20,20 30,10 20,20 30,10 20,20 30,10 20,20 30,20 20,10 30,20 20,20 20,10 30,20 20,20 30,20 20,20 30,20 20,20 30,20 20,20 30,20 20,20 30,20 20,20 30,20 20,30 30,20 20,20 30,30 20,20 30,20 20,30 30,20 20,20 30,30 20,20 20,30 30,20 20,30 30,20 20,30 30,20 20,30 30,30 20,20 30,30 20,30 30,20 20,30 30,30 20,20 30,30 20,30 30,20 20,30 30,30 20,20 30,30 20,30 30,20 20,30 20,30 30,20 20,30 30,30 20,20 30,30 20,30 30,20 20,30 30,30 20,20 30,30 20,30 30,20 20,30 30,20 20,30 30,30 20,20 30,30 20,20 30,30 20,20 30,30 20,20 20,30 30,20 20,20 30,30 20,20 30,30 20,20 30,20 20,20 30,30 20,20 30,20 20,20 30,30 20,20 30,20 20,20 30,20 20,20 30,30 20,20 30,20 20,20 30,20 20,20 20,20 30,20 20,20 30,10 20,20 30,20 20,20 30,20 20,20 30,20 20,10 30,20 20,20 30,10 20,20 30,20 20,20 30,10 20,20 30,10 20,20 30,10 20,20 30,20 20,10 20,20 30,10 20,10 30,20 20,10 30,20 20,10 30,10 20,20 30,10 20,10 30,20 20,10 30,10 20,10 30,20 20,10 30,10 20,10 30,10 20,20 30,10 20,10 30,10 20,10 20,10 30,10 20,10 30,10 20,10 30,10 20,10 30,10 20,10 30,10 20,10 30,10 20,10 30,10 20,10 30,10 20,0 30,10 20,10 30,10 20,10 30,10 20,0 30,10 20,10"
         style="fill:none;stroke:#ff0000;stroke-width:10;stroke-linecap:butt;stroke-linejoin:miter;stroke-miterlimit:10;stroke-dasharray:none;stroke-opacity:1"
         id="path5379"
         inkscape:connector-curvature="0" /><path
         d="m 800,1060 30,20 20,10 30,10 20,10 30,10 20,10 30,10 20,10 30,10 20,10 30,20 20,10 30,10 20,10 30,20 20,10 30,10 20,20 30,10 20,20 30,10 20,20 30,10 20,20 20,10 30,20 20,20 30,20 20,10 30,20 20,20 30,20 20,20 30,20 20,20 30,20 20,20 30,20 20,20 30,20 20,20 30,20 20,20 30,20 20,30 30,20 20,20 30,20 20,30 20,20 30,20 20,30 30,20 20,20 30,30 20,20 30,30 20,20 30,20 20,30 30,20 20,30 30,20 20,30 30,20 20,30 30,20 20,30 30,20 20,30 30,20 20,30 30,20 20,30 20,30 30,20 20,30 30,20 20,30 30,20 20,30 30,20 20,30 30,20 20,30 30,20 20,20 30,30 20,20 30,30 20,20 30,30 20,20 30,20 20,30 30,20 20,20 30,30 20,20 20,20 30,30 20,20 30,20 20,20 30,30 20,20 30,20 20,20 30,20 20,20 30,20 20,30 30,20 20,20 30,20 20,20 30,20 20,20 30,20 20,20 30,20 20,10 30,20 20,20 20,20 30,20 20,20 30,20 20,10 30,20 20,20 30,20 20,10 30,20 20,20 30,10 20,20 30,20 20,10 30,20 20,10 30,20 20,10 30,20 20,10 30,20 20,10 30,20 20,10 20,10 30,20 20,10 30,20 20,10 30,10 20,20 30,10 20,10 30,10 20,20 30,10 20,10 30,10 20,10 30,10 20,20 30,10 20,10 30,10 20,10 30,10 20,10 30,10 20,10 20,10 30,10 20,10 30,10 20,10 30,10 20,10 30,10 20,10 30,10 20,10 30,10 20,0 30,10 20,10 30,10 20,10 30,10 20,0 30,10 20,10 30,10 20,0 30,10 20,10"
         style="fill:none;stroke:#ff0000;stroke-width:10;stroke-linecap:butt;stroke-linejoin:miter;stroke-miterlimit:10;stroke-dasharray:none;stroke-opacity:1"
         id="path5381"
         inkscape:connector-curvature="0" /><path
         d="m 800,1060 30,10 20,10 30,10 20,10 30,10 20,10 30,10 20,10 30,10 20,10 30,10 20,10 30,10 20,10 30,20 20,10 30,10 20,10 30,20 20,10 30,10 20,20 30,10 20,20 20,10 30,20 20,10 30,20 20,10 30,20 20,20 30,10 20,20 30,20 20,20 30,10 20,20 30,20 20,20 30,20 20,20 30,20 20,20 30,20 20,20 30,20 20,20 30,20 20,20 20,20 30,20 20,20 30,20 20,30 30,20 20,20 30,20 20,20 30,30 20,20 30,20 20,20 30,30 20,20 30,20 20,20 30,30 20,20 30,20 20,30 30,20 20,20 30,20 20,30 20,20 30,20 20,30 30,20 20,20 30,30 20,20 30,20 20,20 30,30 20,20 30,20 20,20 30,30 20,20 30,20 20,20 30,20 20,30 30,20 20,20 30,20 20,20 30,20 20,20 20,30 30,20 20,20 30,20 20,20 30,20 20,20 30,20 20,20 30,20 20,20 30,20 20,20 30,20 20,10 30,20 20,20 30,20 20,20 30,20 20,10 30,20 20,20 30,20 20,10 20,20 30,20 20,10 30,20 20,20 30,10 20,20 30,10 20,20 30,20 20,10 30,20 20,10 30,20 20,10 30,10 20,20 30,10 20,20 30,10 20,10 30,20 20,10 30,10 20,20 20,10 30,10 20,20 30,10 20,10 30,10 20,10 30,20 20,10 30,10 20,10 30,10 20,10 30,10 20,10 30,10 20,10 30,10 20,10 30,10 20,10 30,10 20,10 30,10 20,10 20,10 30,10 20,10 30,10 20,10 30,10 20,10 30,0 20,10 30,10 20,10 30,10 20,0 30,10 20,10 30,10 20,10 30,0 20,10 30,10 20,0 30,10 20,10 30,0 20,10"
         style="fill:none;stroke:#ff0000;stroke-width:10;stroke-linecap:butt;stroke-linejoin:miter;stroke-miterlimit:10;stroke-dasharray:none;stroke-opacity:1"
         id="path5383"
         inkscape:connector-curvature="0" /></g></g></svg>