<?xml version="1.0" encoding="UTF-8" standalone="no"?>
<!-- Created with Inkscape (http://www.inkscape.org/) -->

<svg
   xmlns:dc="http://purl.org/dc/elements/1.1/"
   xmlns:cc="http://creativecommons.org/ns#"
   xmlns:rdf="http://www.w3.org/1999/02/22-rdf-syntax-ns#"
   xmlns:svg="http://www.w3.org/2000/svg"
   xmlns="http://www.w3.org/2000/svg"
   xmlns:sodipodi="http://sodipodi.sourceforge.net/DTD/sodipodi-0.dtd"
   xmlns:inkscape="http://www.inkscape.org/namespaces/inkscape"
   id="svg5229"
   version="1.1"
   inkscape:version="0.91 r13725"
   xml:space="preserve"
   width="661.58752"
   height="674.33752"
   viewBox="0 0 661.58752 674.33752"
   sodipodi:docname="RegulatedCascodeBiasNeuronCurrent.svg"
   inkscape:export-filename="/home/cmaier/Telluride/2021/tac/sky130_TAC3/simulation/RegulatedCascodeBiasNeuronCurrent.png"
   inkscape:export-xdpi="179"
   inkscape:export-ydpi="179"><metadata
     id="metadata5235"><rdf:RDF><cc:Work
         rdf:about=""><dc:format>image/svg+xml</dc:format><dc:type
           rdf:resource="http://purl.org/dc/dcmitype/StillImage" /><dc:title></dc:title></cc:Work></rdf:RDF></metadata><defs
     id="defs5233" /><sodipodi:namedview
     pagecolor="#ffffff"
     bordercolor="#666666"
     borderopacity="1"
     objecttolerance="10"
     gridtolerance="10"
     guidetolerance="10"
     inkscape:pageopacity="0"
     inkscape:pageshadow="2"
     inkscape:window-width="1126"
     inkscape:window-height="963"
     id="namedview5231"
     showgrid="false"
     inkscape:zoom="0.76294537"
     inkscape:cx="304.05"
     inkscape:cy="446.475"
     inkscape:window-x="2048"
     inkscape:window-y="7"
     inkscape:window-maximized="0"
     inkscape:current-layer="g5237"
     fit-margin-top="0"
     fit-margin-left="0"
     fit-margin-right="0"
     fit-margin-bottom="0" /><g
     id="g5237"
     inkscape:groupmode="layer"
     inkscape:label="ink_ext_XXXXXX"
     transform="matrix(1.25,0,0,-1.25,-67.825,754.1125)"><g
       id="g5243"><text
         id="text5245"
         style="font-variant:normal;font-weight:normal;font-size:10px;font-family:Helvetica;-inkscape-font-specification:Helvetica;writing-mode:lr-tb;fill:#000000;fill-opacity:1;fill-rule:nonzero;stroke:none"
         transform="matrix(1,0,0,-1,243,66)"><tspan
           id="tspan5247"
           sodipodi:role="line"
           x="0"
           y="0">pressure [kPa]</tspan><tspan
           id="tspan5249"
           sodipodi:role="line"
           y="-530"
           x="-189 -183.44 -178.44 -172.88 -170.10001 -167.32001 -163.42999 -159.53999 -156.75999 -151.75999 -146.2 -140.64 -135.64 -130.64 -127.86 -125.08 -121.75 -116.19 -110.63 -105.07 -102.85 -97.290001 -94.510002 -88.949997 -83.389999 -78.389999 -72.830002 -67.830002 -62.830002 -57.27 -51.709999 -46.150002 -40.59 -38.369999 -32.810001">dc1: **.subckt regulatedcascodebias</tspan></text>
</g><path
       inkscape:connector-curvature="0"
       id="path5251"
       style="fill:none;stroke:#000000;stroke-width:1;stroke-linecap:butt;stroke-linejoin:miter;stroke-miterlimit:10;stroke-dasharray:none;stroke-opacity:1"
       d="m 78,104 0,440" /><g
       id="g5253"><text
         id="text5255"
         style="font-variant:normal;font-weight:normal;font-size:10px;font-family:Helvetica;-inkscape-font-specification:Helvetica;writing-mode:lr-tb;fill:#000000;fill-opacity:1;fill-rule:nonzero;stroke:none"
         transform="matrix(1,0,0,-1,69,87)"><tspan
           id="tspan5257"
           sodipodi:role="line"
           y="0"
           x="0 5.5599999 8.3400002">0.0</tspan></text>
</g><path
       inkscape:connector-curvature="0"
       id="path5259"
       style="fill:none;stroke:#606060;stroke-width:1;stroke-linecap:butt;stroke-linejoin:miter;stroke-miterlimit:10;stroke-dasharray:none;stroke-opacity:1"
       d="m 202,104 0,440" /><g
       id="g5261"><text
         id="text5263"
         style="font-variant:normal;font-weight:normal;font-size:10px;font-family:Helvetica;-inkscape-font-specification:Helvetica;writing-mode:lr-tb;fill:#000000;fill-opacity:1;fill-rule:nonzero;stroke:none"
         transform="matrix(1,0,0,-1,190,87)"><tspan
           id="tspan5265"
           sodipodi:role="line"
           y="0"
           x="0 5.5599999 11.12 13.9">50.0</tspan></text>
</g><path
       inkscape:connector-curvature="0"
       id="path5267"
       style="fill:none;stroke:#606060;stroke-width:1;stroke-linecap:butt;stroke-linejoin:miter;stroke-miterlimit:10;stroke-dasharray:none;stroke-opacity:1"
       d="m 326,104 0,440" /><g
       id="g5269"><text
         id="text5271"
         style="font-variant:normal;font-weight:normal;font-size:10px;font-family:Helvetica;-inkscape-font-specification:Helvetica;writing-mode:lr-tb;fill:#000000;fill-opacity:1;fill-rule:nonzero;stroke:none"
         transform="matrix(1,0,0,-1,311,87)"><tspan
           id="tspan5273"
           sodipodi:role="line"
           y="0"
           x="0 5.5599999 11.12 16.68 19.459999">100.0</tspan></text>
</g><path
       inkscape:connector-curvature="0"
       id="path5275"
       style="fill:none;stroke:#606060;stroke-width:1;stroke-linecap:butt;stroke-linejoin:miter;stroke-miterlimit:10;stroke-dasharray:none;stroke-opacity:1"
       d="m 450,104 0,440" /><g
       id="g5277"><text
         id="text5279"
         style="font-variant:normal;font-weight:normal;font-size:10px;font-family:Helvetica;-inkscape-font-specification:Helvetica;writing-mode:lr-tb;fill:#000000;fill-opacity:1;fill-rule:nonzero;stroke:none"
         transform="matrix(1,0,0,-1,435,87)"><tspan
           id="tspan5281"
           sodipodi:role="line"
           y="0"
           x="0 5.5599999 11.12 16.68 19.459999">150.0</tspan></text>
</g><path
       inkscape:connector-curvature="0"
       id="path5283"
       style="fill:none;stroke:#606060;stroke-width:1;stroke-linecap:butt;stroke-linejoin:miter;stroke-miterlimit:10;stroke-dasharray:none;stroke-opacity:1"
       d="m 574,104 0,440" /><g
       id="g5285"><text
         id="text5287"
         style="font-variant:normal;font-weight:normal;font-size:10px;font-family:Helvetica;-inkscape-font-specification:Helvetica;writing-mode:lr-tb;fill:#000000;fill-opacity:1;fill-rule:nonzero;stroke:none"
         transform="matrix(1,0,0,-1,559,87)"><tspan
           id="tspan5289"
           sodipodi:role="line"
           y="0"
           x="0 5.5599999 11.12 16.68 19.459999">200.0</tspan><tspan
           id="tspan5291"
           y="21"
           x="-177" /></text>
</g><path
       inkscape:connector-curvature="0"
       id="path5293"
       style="fill:none;stroke:#000000;stroke-width:1;stroke-linecap:butt;stroke-linejoin:miter;stroke-miterlimit:10;stroke-dasharray:none;stroke-opacity:1"
       d="m 78,104 496,0" /><g
       id="g5295"><text
         id="text5297"
         style="font-variant:normal;font-weight:normal;font-size:10px;font-family:Helvetica;-inkscape-font-specification:Helvetica;writing-mode:lr-tb;fill:#000000;fill-opacity:1;fill-rule:nonzero;stroke:none"
         transform="matrix(1,0,0,-1,58,101)"><tspan
           id="tspan5299"
           sodipodi:role="line"
           y="0"
           x="0 5.5599999 8.3400002">0.0</tspan></text>
</g><path
       inkscape:connector-curvature="0"
       id="path5301"
       style="fill:none;stroke:#606060;stroke-width:1;stroke-linecap:butt;stroke-linejoin:miter;stroke-miterlimit:10;stroke-dasharray:none;stroke-opacity:1"
       d="m 78,159 496,0" /><g
       id="g5303"><text
         id="text5305"
         style="font-variant:normal;font-weight:normal;font-size:10px;font-family:Helvetica;-inkscape-font-specification:Helvetica;writing-mode:lr-tb;fill:#000000;fill-opacity:1;fill-rule:nonzero;stroke:none"
         transform="matrix(1,0,0,-1,58,156)"><tspan
           id="tspan5307"
           sodipodi:role="line"
           y="0"
           x="0 5.5599999 8.3400002">0.2</tspan></text>
</g><path
       inkscape:connector-curvature="0"
       id="path5309"
       style="fill:none;stroke:#606060;stroke-width:1;stroke-linecap:butt;stroke-linejoin:miter;stroke-miterlimit:10;stroke-dasharray:none;stroke-opacity:1"
       d="m 78,214 496,0" /><g
       id="g5311"><text
         id="text5313"
         style="font-variant:normal;font-weight:normal;font-size:10px;font-family:Helvetica;-inkscape-font-specification:Helvetica;writing-mode:lr-tb;fill:#000000;fill-opacity:1;fill-rule:nonzero;stroke:none"
         transform="matrix(1,0,0,-1,58,211)"><tspan
           id="tspan5315"
           sodipodi:role="line"
           y="0"
           x="0 5.5599999 8.3400002">0.4</tspan></text>
</g><path
       inkscape:connector-curvature="0"
       id="path5317"
       style="fill:none;stroke:#606060;stroke-width:1;stroke-linecap:butt;stroke-linejoin:miter;stroke-miterlimit:10;stroke-dasharray:none;stroke-opacity:1"
       d="m 78,269 496,0" /><g
       id="g5319"><text
         id="text5321"
         style="font-variant:normal;font-weight:normal;font-size:10px;font-family:Helvetica;-inkscape-font-specification:Helvetica;writing-mode:lr-tb;fill:#000000;fill-opacity:1;fill-rule:nonzero;stroke:none"
         transform="matrix(1,0,0,-1,58,266)"><tspan
           id="tspan5323"
           sodipodi:role="line"
           y="0"
           x="0 5.5599999 8.3400002">0.6</tspan></text>
</g><path
       inkscape:connector-curvature="0"
       id="path5325"
       style="fill:none;stroke:#606060;stroke-width:1;stroke-linecap:butt;stroke-linejoin:miter;stroke-miterlimit:10;stroke-dasharray:none;stroke-opacity:1"
       d="m 78,324 496,0" /><g
       id="g5327"><text
         id="text5329"
         style="font-variant:normal;font-weight:normal;font-size:10px;font-family:Helvetica;-inkscape-font-specification:Helvetica;writing-mode:lr-tb;fill:#000000;fill-opacity:1;fill-rule:nonzero;stroke:none"
         transform="matrix(1,0,0,-1,58,321)"><tspan
           id="tspan5331"
           sodipodi:role="line"
           y="0"
           x="0 5.5599999 8.3400002">0.8</tspan></text>
</g><path
       inkscape:connector-curvature="0"
       id="path5333"
       style="fill:none;stroke:#606060;stroke-width:1;stroke-linecap:butt;stroke-linejoin:miter;stroke-miterlimit:10;stroke-dasharray:none;stroke-opacity:1"
       d="m 78,379 496,0" /><g
       id="g5335"><text
         id="text5337"
         style="font-variant:normal;font-weight:normal;font-size:10px;font-family:Helvetica;-inkscape-font-specification:Helvetica;writing-mode:lr-tb;fill:#000000;fill-opacity:1;fill-rule:nonzero;stroke:none"
         transform="matrix(1,0,0,-1,58,376)"><tspan
           id="tspan5339"
           sodipodi:role="line"
           y="0"
           x="0 5.5599999 8.3400002">1.0</tspan></text>
</g><path
       inkscape:connector-curvature="0"
       id="path5341"
       style="fill:none;stroke:#606060;stroke-width:1;stroke-linecap:butt;stroke-linejoin:miter;stroke-miterlimit:10;stroke-dasharray:none;stroke-opacity:1"
       d="m 78,434 496,0" /><g
       id="g5343"><text
         id="text5345"
         style="font-variant:normal;font-weight:normal;font-size:10px;font-family:Helvetica;-inkscape-font-specification:Helvetica;writing-mode:lr-tb;fill:#000000;fill-opacity:1;fill-rule:nonzero;stroke:none"
         transform="matrix(1,0,0,-1,58,431)"><tspan
           id="tspan5347"
           sodipodi:role="line"
           y="0"
           x="0 5.5599999 8.3400002">1.2</tspan></text>
</g><path
       inkscape:connector-curvature="0"
       id="path5349"
       style="fill:none;stroke:#606060;stroke-width:1;stroke-linecap:butt;stroke-linejoin:miter;stroke-miterlimit:10;stroke-dasharray:none;stroke-opacity:1"
       d="m 78,489 496,0" /><g
       id="g5351"><text
         id="text5353"
         style="font-variant:normal;font-weight:normal;font-size:10px;font-family:Helvetica;-inkscape-font-specification:Helvetica;writing-mode:lr-tb;fill:#000000;fill-opacity:1;fill-rule:nonzero;stroke:none"
         transform="matrix(1,0,0,-1,58,486)"><tspan
           id="tspan5355"
           sodipodi:role="line"
           y="0"
           x="0 5.5599999 8.3400002">1.4</tspan></text>
</g><path
       inkscape:connector-curvature="0"
       id="path5357"
       style="fill:none;stroke:#606060;stroke-width:1;stroke-linecap:butt;stroke-linejoin:miter;stroke-miterlimit:10;stroke-dasharray:none;stroke-opacity:1"
       d="m 78,544 496,0" /><g
       id="g5359"><text
         id="text5361"
         style="font-variant:normal;font-weight:normal;font-size:10px;font-family:Helvetica;-inkscape-font-specification:Helvetica;writing-mode:lr-tb;fill:#000000;fill-opacity:1;fill-rule:nonzero;stroke:none"
         transform="matrix(1,0,0,-1,58,541)"><tspan
           id="tspan5363"
           sodipodi:role="line"
           y="0"
           x="0 5.5599999 8.3400002">1.6</tspan><tspan
           id="tspan5365"
           sodipodi:role="line"
           y="-41"
           x="-4 1.5599999">uA</tspan></text>
</g><path
       inkscape:connector-curvature="0"
       id="path5367"
       style="fill:none;stroke:#ff0000;stroke-width:1;stroke-linecap:butt;stroke-linejoin:miter;stroke-miterlimit:10;stroke-dasharray:none;stroke-opacity:1"
       d="m 296,586 24,0" /><g
       id="g5369"><text
         id="text5371"
         style="font-variant:normal;font-weight:normal;font-size:10px;font-family:Helvetica;-inkscape-font-specification:Helvetica;writing-mode:lr-tb;fill:#000000;fill-opacity:1;fill-rule:nonzero;stroke:none"
         transform="matrix(1,0,0,-1,326,582)"><tspan
           id="tspan5373"
           sodipodi:role="line"
           y="0"
           x="0 5 7.2199998 12.78 18.34 23.9 27.23 32.790001 38.349998 43.349998">vin#branch</tspan></text>
</g><path
       inkscape:connector-curvature="0"
       id="path5375"
       style="fill:none;stroke:#ff0000;stroke-width:1;stroke-linecap:butt;stroke-linejoin:miter;stroke-miterlimit:10;stroke-dasharray:none;stroke-opacity:1"
       d="m 80,107 3,2 2,1 3,1 2,2 3,1 2,1 3,2 2,1 3,1 2,2 3,1 2,2 3,1 2,2 3,2 2,1 3,2 2,2 3,2 2,1 3,2 2,2 3,2 2,2 2,2 3,2 2,2 3,2 2,3 3,2 2,2 3,2 2,3 3,2 2,2 3,3 2,2 3,3 2,2 3,3 2,3 3,2 2,3 3,2 2,3 3,3 2,3 3,2 2,3 2,3 3,3 2,3 3,2 2,3 3,3 2,3 3,3 2,3 3,3 2,3 3,3 2,3 3,3 2,3 3,3 2,3 3,3 2,3 3,3 2,3 3,3 2,3 3,3 2,3 2,3 3,3 2,3 3,3 2,3 3,3 2,3 3,3 2,3 3,3 2,3 3,3 2,3 3,2 2,3 3,3 2,3 3,3 2,3 3,3 2,2 3,3 2,3 3,3 2,2 2,3 3,3 2,2 3,3 2,3 3,2 2,3 3,3 2,2 3,3 2,2 3,3 2,2 3,3 2,2 3,2 2,3 3,2 2,2 3,3 2,2 3,2 2,3 3,2 2,2 2,2 3,2 2,2 3,3 2,2 3,2 2,2 3,2 2,2 3,2 2,2 3,2 2,1 3,2 2,2 3,2 2,2 3,2 2,1 3,2 2,2 3,2 2,1 3,2 2,2 2,1 3,2 2,2 3,1 2,2 3,1 2,2 3,1 2,2 3,1 2,2 3,1 2,1 3,2 2,1 3,1 2,2 3,1 2,1 3,2 2,1 3,1 2,1 3,2 2,1 2,1 3,1 2,1 3,1 2,2 3,1 2,1 3,1 2,1 3,1 2,1 3,1 2,1 3,1 2,1 3,1 2,1 3,1 2,1 3,1 2,0 3,1 2,1 3,1 2,1" /><path
       inkscape:connector-curvature="0"
       id="path5377"
       style="fill:none;stroke:#ff0000;stroke-width:1;stroke-linecap:butt;stroke-linejoin:miter;stroke-miterlimit:10;stroke-dasharray:none;stroke-opacity:1"
       d="m 80,107 3,1 2,2 3,1 2,1 3,1 2,1 3,2 2,1 3,1 2,2 3,1 2,1 3,2 2,1 3,2 2,2 3,1 2,2 3,1 2,2 3,2 2,2 3,1 2,2 2,2 3,2 2,2 3,2 2,2 3,2 2,2 3,3 2,2 3,2 2,2 3,3 2,2 3,2 2,3 3,2 2,2 3,3 2,2 3,3 2,2 3,3 2,3 3,2 2,3 2,2 3,3 2,3 3,2 2,3 3,3 2,3 3,2 2,3 3,3 2,3 3,3 2,2 3,3 2,3 3,3 2,3 3,3 2,2 3,3 2,3 3,3 2,3 3,3 2,3 2,2 3,3 2,3 3,3 2,3 3,3 2,2 3,3 2,3 3,3 2,3 3,2 2,3 3,3 2,3 3,2 2,3 3,3 2,3 3,2 2,3 3,3 2,2 3,3 2,2 2,3 3,3 2,2 3,3 2,2 3,3 2,2 3,3 2,2 3,2 2,3 3,2 2,2 3,3 2,2 3,2 2,3 3,2 2,2 3,2 2,3 3,2 2,2 3,2 2,2 2,2 3,2 2,2 3,2 2,2 3,2 2,2 3,2 2,2 3,2 2,2 3,2 2,1 3,2 2,2 3,2 2,1 3,2 2,2 3,2 2,1 3,2 2,1 3,2 2,2 2,1 3,2 2,1 3,2 2,1 3,2 2,1 3,2 2,1 3,1 2,2 3,1 2,1 3,2 2,1 3,1 2,2 3,1 2,1 3,1 2,2 3,1 2,1 3,1 2,1 2,1 3,1 2,2 3,1 2,1 3,1 2,1 3,1 2,1 3,1 2,1 3,1 2,1 3,1 2,1 3,1 2,0 3,1 2,1 3,1 2,1 3,1 2,1 3,0 2,1" /><path
       inkscape:connector-curvature="0"
       id="path5379"
       style="fill:none;stroke:#ff0000;stroke-width:1;stroke-linecap:butt;stroke-linejoin:miter;stroke-miterlimit:10;stroke-dasharray:none;stroke-opacity:1"
       d="m 80,107 3,1 2,1 3,1 2,1 3,2 2,1 3,1 2,1 3,1 2,2 3,1 2,1 3,1 2,2 3,1 2,2 3,1 2,2 3,1 2,2 3,2 2,1 3,2 2,2 2,1 3,2 2,2 3,2 2,2 3,2 2,2 3,2 2,2 3,2 2,2 3,2 2,2 3,2 2,3 3,2 2,2 3,3 2,2 3,2 2,3 3,2 2,2 3,3 2,2 2,3 3,2 2,3 3,2 2,3 3,2 2,3 3,3 2,2 3,3 2,3 3,2 2,3 3,3 2,2 3,3 2,3 3,2 2,3 3,3 2,2 3,3 2,3 3,2 2,3 2,3 3,2 2,3 3,3 2,2 3,3 2,3 3,2 2,3 3,3 2,2 3,3 2,3 3,2 2,3 3,2 2,3 3,3 2,2 3,3 2,2 3,3 2,2 3,3 2,2 2,3 3,2 2,2 3,3 2,2 3,3 2,2 3,2 2,2 3,3 2,2 3,2 2,2 3,3 2,2 3,2 2,2 3,2 2,2 3,3 2,2 3,2 2,2 3,2 2,2 2,2 3,2 2,2 3,1 2,2 3,2 2,2 3,2 2,2 3,2 2,1 3,2 2,2 3,1 2,2 3,2 2,2 3,1 2,2 3,1 2,2 3,1 2,2 3,2 2,1 2,2 3,1 2,1 3,2 2,1 3,2 2,1 3,1 2,2 3,1 2,1 3,2 2,1 3,1 2,1 3,2 2,1 3,1 2,1 3,1 2,2 3,1 2,1 3,1 2,1 2,1 3,1 2,1 3,1 2,1 3,1 2,1 3,1 2,1 3,1 2,1 3,1 2,1 3,1 2,1 3,1 2,0 3,1 2,1 3,1 2,1 3,1 2,0 3,1 2,1" /><path
       inkscape:connector-curvature="0"
       id="path5381"
       style="fill:none;stroke:#ff0000;stroke-width:1;stroke-linecap:butt;stroke-linejoin:miter;stroke-miterlimit:10;stroke-dasharray:none;stroke-opacity:1"
       d="m 80,106 3,2 2,1 3,1 2,1 3,1 2,1 3,1 2,1 3,1 2,1 3,2 2,1 3,1 2,1 3,2 2,1 3,1 2,2 3,1 2,2 3,1 2,2 3,1 2,2 2,1 3,2 2,2 3,2 2,1 3,2 2,2 3,2 2,2 3,2 2,2 3,2 2,2 3,2 2,2 3,2 2,2 3,2 2,2 3,2 2,3 3,2 2,2 3,2 2,3 2,2 3,2 2,3 3,2 2,2 3,3 2,2 3,3 2,2 3,2 2,3 3,2 2,3 3,2 2,3 3,2 2,3 3,2 2,3 3,2 2,3 3,2 2,3 3,2 2,3 2,3 3,2 2,3 3,2 2,3 3,2 2,3 3,2 2,3 3,2 2,3 3,2 2,2 3,3 2,2 3,3 2,2 3,3 2,2 3,2 2,3 3,2 2,2 3,3 2,2 2,2 3,3 2,2 3,2 2,2 3,3 2,2 3,2 2,2 3,2 2,2 3,2 2,3 3,2 2,2 3,2 2,2 3,2 2,2 3,2 2,2 3,2 2,1 3,2 2,2 2,2 3,2 2,2 3,2 2,1 3,2 2,2 3,2 2,1 3,2 2,2 3,1 2,2 3,2 2,1 3,2 2,1 3,2 2,1 3,2 2,1 3,2 2,1 3,2 2,1 2,1 3,2 2,1 3,2 2,1 3,1 2,2 3,1 2,1 3,1 2,2 3,1 2,1 3,1 2,1 3,1 2,2 3,1 2,1 3,1 2,1 3,1 2,1 3,1 2,1 2,1 3,1 2,1 3,1 2,1 3,1 2,1 3,1 2,1 3,1 2,1 3,1 2,0 3,1 2,1 3,1 2,1 3,1 2,0 3,1 2,1 3,1 2,0 3,1 2,1" /><path
       inkscape:connector-curvature="0"
       id="path5383"
       style="fill:none;stroke:#ff0000;stroke-width:1;stroke-linecap:butt;stroke-linejoin:miter;stroke-miterlimit:10;stroke-dasharray:none;stroke-opacity:1"
       d="m 80,106 3,1 2,1 3,1 2,1 3,1 2,1 3,1 2,1 3,1 2,1 3,1 2,1 3,1 2,1 3,2 2,1 3,1 2,1 3,2 2,1 3,1 2,2 3,1 2,2 2,1 3,2 2,1 3,2 2,1 3,2 2,2 3,1 2,2 3,2 2,2 3,1 2,2 3,2 2,2 3,2 2,2 3,2 2,2 3,2 2,2 3,2 2,2 3,2 2,2 2,2 3,2 2,2 3,2 2,3 3,2 2,2 3,2 2,2 3,3 2,2 3,2 2,2 3,3 2,2 3,2 2,2 3,3 2,2 3,2 2,3 3,2 2,2 3,2 2,3 2,2 3,2 2,3 3,2 2,2 3,3 2,2 3,2 2,2 3,3 2,2 3,2 2,2 3,3 2,2 3,2 2,2 3,2 2,3 3,2 2,2 3,2 2,2 3,2 2,2 2,3 3,2 2,2 3,2 2,2 3,2 2,2 3,2 2,2 3,2 2,2 3,2 2,2 3,2 2,1 3,2 2,2 3,2 2,2 3,2 2,1 3,2 2,2 3,2 2,1 2,2 3,2 2,1 3,2 2,2 3,1 2,2 3,1 2,2 3,2 2,1 3,2 2,1 3,2 2,1 3,1 2,2 3,1 2,2 3,1 2,1 3,2 2,1 3,1 2,2 2,1 3,1 2,2 3,1 2,1 3,1 2,1 3,2 2,1 3,1 2,1 3,1 2,1 3,1 2,1 3,1 2,1 3,1 2,1 3,1 2,1 3,1 2,1 3,1 2,1 2,1 3,1 2,1 3,1 2,1 3,1 2,1 3,0 2,1 3,1 2,1 3,1 2,0 3,1 2,1 3,1 2,1 3,0 2,1 3,1 2,0 3,1 2,1 3,0 2,1" /></g></svg>