<?xml version="1.0" encoding="UTF-8" standalone="no"?>
<!-- Created with Inkscape (http://www.inkscape.org/) -->

<svg
   xmlns:dc="http://purl.org/dc/elements/1.1/"
   xmlns:cc="http://creativecommons.org/ns#"
   xmlns:rdf="http://www.w3.org/1999/02/22-rdf-syntax-ns#"
   xmlns:svg="http://www.w3.org/2000/svg"
   xmlns="http://www.w3.org/2000/svg"
   xmlns:sodipodi="http://sodipodi.sourceforge.net/DTD/sodipodi-0.dtd"
   xmlns:inkscape="http://www.inkscape.org/namespaces/inkscape"
   id="svg4742"
   version="1.1"
   inkscape:version="0.91 r13725"
   xml:space="preserve"
   width="434.19855"
   height="311.54861"
   viewBox="0 0 434.19855 311.54861"
   sodipodi:docname="divider_schematic_only.svg"
   inkscape:export-filename="/home/cmaier/.xschem/sky130_TAC3/playground/divider.png"
   inkscape:export-xdpi="179"
   inkscape:export-ydpi="179"><metadata
     id="metadata4748"><rdf:RDF><cc:Work
         rdf:about=""><dc:format>image/svg+xml</dc:format><dc:type
           rdf:resource="http://purl.org/dc/dcmitype/StillImage" /><dc:title></dc:title></cc:Work></rdf:RDF></metadata><defs
     id="defs4746" /><sodipodi:namedview
     pagecolor="#ffffff"
     bordercolor="#666666"
     borderopacity="1"
     objecttolerance="10"
     gridtolerance="10"
     guidetolerance="10"
     inkscape:pageopacity="0"
     inkscape:pageshadow="2"
     inkscape:window-width="1263"
     inkscape:window-height="863"
     id="namedview4744"
     showgrid="false"
     fit-margin-top="0"
     fit-margin-left="0"
     fit-margin-right="0"
     fit-margin-bottom="0"
     inkscape:zoom="2.2564697"
     inkscape:cx="217.09927"
     inkscape:cy="155.77431"
     inkscape:window-x="2096"
     inkscape:window-y="47"
     inkscape:window-maximized="0"
     inkscape:current-layer="g4750" /><g
     id="g4750"
     inkscape:groupmode="layer"
     inkscape:label="divider"
     transform="matrix(1.25,0,0,-1.25,-393.28045,488.7113)"><g
       id="g4754"><text
         id="text4756"
         style="font-variant:normal;font-weight:normal;font-size:11.78569984px;font-family:Helvetica;-inkscape-font-specification:Helvetica;writing-mode:lr-tb;fill:#0044ed;fill-opacity:1;fill-rule:nonzero;stroke:none"
         transform="matrix(1,0,0,-1,321.719,349.54)"><tspan
           id="tspan4758"
           sodipodi:role="line"
           y="0"
           x="0 2.6164255 5.232851">iin</tspan><tspan
           id="tspan4760"
           sodipodi:role="line"
           y="-26.953899"
           x="-7.2125001 -1.3196501 5.2331991">vdd</tspan><tspan
           id="tspan4762"
           sodipodi:role="line"
           y="67.385201"
           x="-7.2125001 -1.3196501 5.2331991">vbp</tspan><tspan
           id="tspan4764"
           sodipodi:role="line"
           y="0"
           x="321.54849 324.16492 330.71777 337.27063">iout</tspan></text>
<text
         id="text4766"
         style="font-variant:normal;font-weight:normal;font-size:11.78569984px;font-family:Helvetica;-inkscape-font-specification:Helvetica;writing-mode:lr-tb;fill:#0044ed;fill-opacity:1;fill-rule:nonzero;stroke:none"
         transform="matrix(0,1,1,0,523.979,141.023)"><tspan
           id="tspan4768"
           sodipodi:role="line"
           y="0"
           x="0 2.6164255 8.5092754 11.125701 17.678551">isink</tspan></text>
<text
         id="text4770"
         style="font-variant:normal;font-weight:normal;font-size:9.64280033px;font-family:Helvetica;-inkscape-font-specification:Helvetica;writing-mode:lr-tb;fill:#0044ed;fill-opacity:1;fill-rule:nonzero;stroke:none"
         transform="matrix(1,0,0,-1,498.948,357.278)"><tspan
           id="tspan4772"
           sodipodi:role="line"
           y="0"
           x="0 5.3613968 10.722794 16.08419">node</tspan></text>
</g><text
       transform="matrix(0,1,1,0,0,0)"
       style="font-variant:normal;font-weight:normal;font-size:7.14279985px;font-family:Helvetica;-inkscape-font-specification:Helvetica;writing-mode:lr-tb;fill:#222222;fill-opacity:1;fill-rule:nonzero;stroke:none"
       id="text4786"
       x="329.16699"
       y="440.24799"><tspan
         x="329.16699 335.11694 339.08835"
         y="440.24799"
         sodipodi:role="line"
         id="tspan4788">M12</tspan></text>
<g
       id="g4790"><text
         id="text4792"
         style="font-variant:normal;font-weight:normal;font-size:5.35712004px;font-family:Helvetica;-inkscape-font-specification:Helvetica;writing-mode:lr-tb;fill:#fe0000;fill-opacity:1;fill-rule:nonzero;stroke:none"
         transform="matrix(0,1,1,0,470.813,354.851)"><tspan
           id="tspan4794"
           y="0"
           x="0">D</tspan><tspan
           id="tspan4796"
           y="-29.7293"
           x="0">S</tspan><tspan
           id="tspan4798"
           sodipodi:role="line"
           y="-18.530899"
           x="-1.68477 -26.067169">BG</tspan></text>
</g><g
       id="g4800"><text
         id="text4802"
         style="font-variant:normal;font-weight:normal;font-size:7.14279985px;font-family:Helvetica;-inkscape-font-specification:Helvetica;writing-mode:lr-tb;fill:#222222;fill-opacity:1;fill-rule:nonzero;stroke:none"
         transform="matrix(0,1,1,0,446.375,359.905)"><tspan
           id="tspan4804"
           sodipodi:role="line"
           y="0"
           x="0 3.9713967 5.9570951 9.9284916 11.91419 15.885587 19.856983 23.828381 27.39978">pfet_01v8</tspan></text>
</g><g
       id="g4806"><text
         id="text4808"
         style="font-variant:normal;font-weight:normal;font-size:7.14279985px;font-family:Helvetica;-inkscape-font-specification:Helvetica;writing-mode:lr-tb;fill:#666600;fill-opacity:1;fill-rule:nonzero;stroke:none"
         transform="matrix(0,1,1,0,468.045,360.748)"><tspan
           id="tspan4810"
           sodipodi:role="line"
           y="0"
           x="0 3.9713967 5.9570951 9.5284948 11.514194 15.48559 17.471289 19.456987 21.442686 25.414082">1 x 1 / 31</tspan></text>
</g><g
       id="g4812"><text
         id="text4814"
         style="font-variant:normal;font-weight:normal;font-size:7.14279985px;font-family:Helvetica;-inkscape-font-specification:Helvetica;writing-mode:lr-tb;fill:#222222;fill-opacity:1;fill-rule:nonzero;stroke:none"
         transform="matrix(0,1,1,0,387.182,363.274)"><tspan
           id="tspan4816"
           sodipodi:role="line"
           y="0"
           x="0 4.7642474 6.3499494 7.9356508">Viin</tspan><tspan
           id="tspan4818"
           sodipodi:role="line"
           y="188.679"
           x="0 4.7642474 6.3499494 10.321346 14.292743">Viout</tspan></text>
<text
         id="text4820"
         style="font-variant:normal;font-weight:normal;font-size:7.14279985px;font-family:Helvetica;-inkscape-font-specification:Helvetica;writing-mode:lr-tb;fill:#222222;fill-opacity:1;fill-rule:nonzero;stroke:none"
         transform="matrix(1,0,0,-1,502.049,300.225)"><tspan
           id="tspan4822"
           sodipodi:role="line"
           y="0"
           x="0 5.9499526">M1</tspan></text>
</g><g
       id="g4824"><text
         id="text4826"
         style="font-variant:normal;font-weight:normal;font-size:5.35712004px;font-family:Helvetica;-inkscape-font-specification:Helvetica;writing-mode:lr-tb;fill:#fe0000;fill-opacity:1;fill-rule:nonzero;stroke:none"
         transform="matrix(1,0,0,-1,523.763,269.661)"><tspan
           id="tspan4828"
           y="0"
           x="0">D</tspan><tspan
           id="tspan4830"
           y="-29.7293"
           x="0">S</tspan><tspan
           id="tspan4832"
           sodipodi:role="line"
           y="-18.530899"
           x="-1.68477 -26.06797">BG</tspan></text>
</g><g
       id="g4834"><text
         id="text4836"
         style="font-variant:normal;font-weight:normal;font-size:7.14279985px;font-family:Helvetica;-inkscape-font-specification:Helvetica;writing-mode:lr-tb;fill:#222222;fill-opacity:1;fill-rule:nonzero;stroke:none"
         transform="matrix(1,0,0,-1,528.816,294.099)"><tspan
           id="tspan4838"
           sodipodi:role="line"
           y="0"
           x="0 3.9713967 5.9570951 9.9284916 11.91419 15.885587 19.856983 23.828381 27.39978">pfet_01v8</tspan></text>
</g><g
       id="g4840"><text
         id="text4842"
         style="font-variant:normal;font-weight:normal;font-size:7.14279985px;font-family:Helvetica;-inkscape-font-specification:Helvetica;writing-mode:lr-tb;fill:#666600;fill-opacity:1;fill-rule:nonzero;stroke:none"
         transform="matrix(1,0,0,-1,529.659,272.429)"><tspan
           id="tspan4844"
           sodipodi:role="line"
           y="0"
           x="0 3.9713967 5.9570951 9.5284948 11.514194 15.48559 17.471289 19.456987 21.442686">1 x 1 / 2</tspan></text>
</g><g
       id="g4846"><text
         id="text4848"
         style="font-variant:normal;font-weight:normal;font-size:7.14279985px;font-family:Helvetica;-inkscape-font-specification:Helvetica;writing-mode:lr-tb;fill:#222222;fill-opacity:1;fill-rule:nonzero;stroke:none"
         transform="matrix(1,0,0,-1,532.186,231.998)"><tspan
           id="tspan4850"
           sodipodi:role="line"
           y="0"
           x="0 4.7642474 6.3499494 9.9213495 11.507051 15.478448">Visink</tspan></text>
</g><path
       inkscape:connector-curvature="0"
       id="path4852"
       style="fill:none;stroke:#229800;stroke-width:0.50538802;stroke-linecap:round;stroke-linejoin:round;stroke-miterlimit:10;stroke-dasharray:none;stroke-opacity:1"
       d="m 439.531,344.743 30.323,0" /><path
       inkscape:connector-curvature="0"
       id="path4854"
       style="fill:none;stroke:#229800;stroke-width:0.50538802;stroke-linecap:round;stroke-linejoin:round;stroke-miterlimit:10;stroke-dasharray:none;stroke-opacity:1"
       d="m 434.477,353.166 8.423,0" /><path
       inkscape:connector-curvature="0"
       id="path4856"
       style="fill:none;stroke:#229800;stroke-width:0.50538802;stroke-linecap:round;stroke-linejoin:round;stroke-miterlimit:10;stroke-dasharray:none;stroke-opacity:1"
       d="m 466.485,353.166 8.423,0" /><path
       inkscape:connector-curvature="0"
       id="path4858"
       style="fill:none;stroke:#229800;stroke-width:0.50538802;stroke-linecap:round;stroke-linejoin:round;stroke-miterlimit:10;stroke-dasharray:none;stroke-opacity:1"
       d="m 444.584,341.374 20.216,0" /><path
       inkscape:connector-curvature="0"
       id="path4860"
       style="fill:none;stroke:#229800;stroke-width:0.50538802;stroke-linecap:round;stroke-linejoin:round;stroke-miterlimit:10;stroke-dasharray:none;stroke-opacity:1"
       d="m 466.485,353.166 0,-8.423" /><path
       inkscape:connector-curvature="0"
       id="path4862"
       style="fill:none;stroke:#229800;stroke-width:0.50538802;stroke-linecap:round;stroke-linejoin:round;stroke-miterlimit:10;stroke-dasharray:none;stroke-opacity:1"
       d="m 442.9,353.166 0,-5.053" /><path
       inkscape:connector-curvature="0"
       id="path4864"
       style="fill:none;stroke:#229800;stroke-width:0.50538802;stroke-linecap:round;stroke-linejoin:round;stroke-miterlimit:10;stroke-dasharray:none;stroke-opacity:1"
       d="m 454.693,334.635 0,-8.423" /><path
       inkscape:connector-curvature="0"
       id="path4866"
       style="fill:#229800;fill-opacity:1;fill-rule:nonzero;stroke:none"
       d="m 441.216,348.113 1.684,-3.37 1.684,3.37 -3.368,0 z" /><path
       inkscape:connector-curvature="0"
       id="path4868"
       style="fill:none;stroke:#229800;stroke-width:0.50538802;stroke-linecap:round;stroke-linejoin:round;stroke-miterlimit:10;stroke-dasharray:none;stroke-opacity:1"
       d="m 454.693,334.636 c 1.86,0 3.369,1.508 3.369,3.369 0,1.86 -1.509,3.369 -3.369,3.369 -1.861,0 -3.37,-1.509 -3.37,-3.369 0,-1.861 1.509,-3.369 3.37,-3.369" /><path
       inkscape:connector-curvature="0"
       id="path4870"
       style="fill:none;stroke:#229800;stroke-width:0.50538802;stroke-linecap:round;stroke-linejoin:round;stroke-miterlimit:10;stroke-dasharray:none;stroke-opacity:1"
       d="m 373.83,353.166 40.432,0" /><path
       inkscape:connector-curvature="0"
       id="path4872"
       style="fill:none;stroke:#229800;stroke-width:0.50538802;stroke-linecap:round;stroke-linejoin:round;stroke-miterlimit:10;stroke-dasharray:none;stroke-opacity:1"
       d="m 394.046,348.113 6.738,5.053" /><path
       inkscape:connector-curvature="0"
       id="path4874"
       style="fill:none;stroke:#229800;stroke-width:0.50538802;stroke-linecap:round;stroke-linejoin:round;stroke-miterlimit:10;stroke-dasharray:none;stroke-opacity:1"
       d="m 394.046,358.22 6.738,-5.054" /><path
       inkscape:connector-curvature="0"
       id="path4876"
       style="fill:none;stroke:#229800;stroke-width:0.50538802;stroke-linecap:round;stroke-linejoin:round;stroke-miterlimit:10;stroke-dasharray:none;stroke-opacity:1"
       d="m 562.509,353.166 40.429,0" /><path
       inkscape:connector-curvature="0"
       id="path4878"
       style="fill:none;stroke:#229800;stroke-width:0.50538802;stroke-linecap:round;stroke-linejoin:round;stroke-miterlimit:10;stroke-dasharray:none;stroke-opacity:1"
       d="m 582.724,348.113 6.738,5.053" /><path
       inkscape:connector-curvature="0"
       id="path4880"
       style="fill:none;stroke:#229800;stroke-width:0.50538802;stroke-linecap:round;stroke-linejoin:round;stroke-miterlimit:10;stroke-dasharray:none;stroke-opacity:1"
       d="m 582.724,358.22 6.738,-5.054" /><path
       inkscape:connector-curvature="0"
       id="path4882"
       style="fill:none;stroke:#229800;stroke-width:0.50538802;stroke-linecap:round;stroke-linejoin:round;stroke-miterlimit:10;stroke-dasharray:none;stroke-opacity:1"
       d="m 513.655,300.943 0,-30.323" /><path
       inkscape:connector-curvature="0"
       id="path4884"
       style="fill:none;stroke:#229800;stroke-width:0.50538802;stroke-linecap:round;stroke-linejoin:round;stroke-miterlimit:10;stroke-dasharray:none;stroke-opacity:1"
       d="m 522.078,305.997 0,-8.424" /><path
       inkscape:connector-curvature="0"
       id="path4886"
       style="fill:none;stroke:#229800;stroke-width:0.50538802;stroke-linecap:round;stroke-linejoin:round;stroke-miterlimit:10;stroke-dasharray:none;stroke-opacity:1"
       d="m 522.078,273.989 0,-8.423" /><path
       inkscape:connector-curvature="0"
       id="path4888"
       style="fill:none;stroke:#229800;stroke-width:0.50538802;stroke-linecap:round;stroke-linejoin:round;stroke-miterlimit:10;stroke-dasharray:none;stroke-opacity:1"
       d="m 510.285,295.889 0,-20.216" /><path
       inkscape:connector-curvature="0"
       id="path4890"
       style="fill:none;stroke:#229800;stroke-width:0.50538802;stroke-linecap:round;stroke-linejoin:round;stroke-miterlimit:10;stroke-dasharray:none;stroke-opacity:1"
       d="m 513.655,273.989 8.423,0" /><path
       inkscape:connector-curvature="0"
       id="path4892"
       style="fill:none;stroke:#229800;stroke-width:0.50538802;stroke-linecap:round;stroke-linejoin:round;stroke-miterlimit:10;stroke-dasharray:none;stroke-opacity:1"
       d="m 517.024,297.573 5.054,0" /><path
       inkscape:connector-curvature="0"
       id="path4894"
       style="fill:none;stroke:#229800;stroke-width:0.50538802;stroke-linecap:round;stroke-linejoin:round;stroke-miterlimit:10;stroke-dasharray:none;stroke-opacity:1"
       d="m 495.124,285.781 8.423,0" /><path
       inkscape:connector-curvature="0"
       id="path4896"
       style="fill:#229800;fill-opacity:1;fill-rule:nonzero;stroke:none"
       d="m 517.024,299.258 -3.369,-1.685 3.369,-1.684 0,3.369 z" /><path
       inkscape:connector-curvature="0"
       id="path4898"
       style="fill:none;stroke:#229800;stroke-width:0.50538802;stroke-linecap:round;stroke-linejoin:round;stroke-miterlimit:10;stroke-dasharray:none;stroke-opacity:1"
       d="m 503.547,285.781 c 0,-1.86 1.509,-3.369 3.369,-3.369 1.861,0 3.37,1.509 3.37,3.369 0,1.861 -1.509,3.37 -3.37,3.37 -1.86,0 -3.369,-1.509 -3.369,-3.37" /><path
       inkscape:connector-curvature="0"
       id="path4900"
       style="fill:none;stroke:#229800;stroke-width:0.50538802;stroke-linecap:round;stroke-linejoin:round;stroke-miterlimit:10;stroke-dasharray:none;stroke-opacity:1"
       d="m 522.078,245.35 0,-40.431" /><path
       inkscape:connector-curvature="0"
       id="path4902"
       style="fill:none;stroke:#229800;stroke-width:0.50538802;stroke-linecap:round;stroke-linejoin:round;stroke-miterlimit:10;stroke-dasharray:none;stroke-opacity:1"
       d="m 517.024,225.134 5.054,-6.738" /><path
       inkscape:connector-curvature="0"
       id="path4904"
       style="fill:none;stroke:#229800;stroke-width:0.50538802;stroke-linecap:round;stroke-linejoin:round;stroke-miterlimit:10;stroke-dasharray:none;stroke-opacity:1"
       d="m 522.078,218.396 5.054,6.738" /><path
       inkscape:connector-curvature="0"
       id="path4908"
       style="fill:#ba2200;fill-opacity:1;fill-rule:nonzero;stroke:none"
       d="m 453.008,349.797 1.685,3.369 1.684,-3.369 -3.369,0 z" /><path
       inkscape:connector-curvature="0"
       id="path4910"
       style="fill:none;stroke:#ba2200;stroke-width:0.50538802;stroke-linecap:round;stroke-linejoin:round;stroke-miterlimit:10;stroke-dasharray:none;stroke-opacity:1"
       d="m 473.223,351.482 3.36914,0 0,3.36914 -3.36914,0 0,-3.36914 z" /><path
       inkscape:connector-curvature="0"
       id="path4912"
       style="fill:#ba2200;fill-opacity:1;fill-rule:nonzero;stroke:none"
       d="m 473.223,351.482 3.36953,0 0,3.36914 -3.36953,0 0,-3.36914 z" /><path
       inkscape:connector-curvature="0"
       id="path4914"
       style="fill:none;stroke:#ba2200;stroke-width:0.50538802;stroke-linecap:round;stroke-linejoin:round;stroke-miterlimit:10;stroke-dasharray:none;stroke-opacity:1"
       d="m 453.008,324.528 3.36914,0 0,3.36914 -3.36914,0 0,-3.36914 z" /><path
       inkscape:connector-curvature="0"
       id="path4916"
       style="fill:#ba2200;fill-opacity:1;fill-rule:nonzero;stroke:none"
       d="m 453.008,324.528 3.36914,0 0,3.36914 -3.36914,0 0,-3.36914 z" /><path
       inkscape:connector-curvature="0"
       id="path4918"
       style="fill:none;stroke:#ba2200;stroke-width:0.50538802;stroke-linecap:round;stroke-linejoin:round;stroke-miterlimit:10;stroke-dasharray:none;stroke-opacity:1"
       d="m 432.793,351.482 3.36914,0 0,3.36914 -3.36914,0 0,-3.36914 z" /><path
       inkscape:connector-curvature="0"
       id="path4920"
       style="fill:#ba2200;fill-opacity:1;fill-rule:nonzero;stroke:none"
       d="m 432.792,351.482 3.36914,0 0,3.36914 -3.36914,0 0,-3.36914 z" /><path
       inkscape:connector-curvature="0"
       id="path4922"
       style="fill:none;stroke:#ba2200;stroke-width:0.50538802;stroke-linecap:round;stroke-linejoin:round;stroke-miterlimit:10;stroke-dasharray:none;stroke-opacity:1"
       d="m 454.64,353.114 0.10508,0 0,0.10508 -0.10508,0 0,-0.10508 z" /><path
       inkscape:connector-curvature="0"
       id="path4924"
       style="fill:#ba2200;fill-opacity:1;fill-rule:nonzero;stroke:none"
       d="m 454.639,353.114 0.10508,0 0,0.10508 -0.10508,0 0,-0.10508 z" /><path
       inkscape:connector-curvature="0"
       id="path4926"
       style="fill:#ba2200;fill-opacity:1;fill-rule:nonzero;stroke:none"
       d="m 346.876,353.166 -3.79,3.264 -3.475,0 -3.79,-3.264 3.79,-3.264 3.475,0 3.79,3.264" /><path
       inkscape:connector-curvature="0"
       id="path4928"
       style="fill:none;stroke:#ba2200;stroke-width:0.50538802;stroke-linecap:round;stroke-linejoin:round;stroke-miterlimit:10;stroke-dasharray:none;stroke-opacity:1"
       d="m 346.87,353.16 0.0133,0 0,0.0133 -0.0133,0 0,-0.0133 z" /><path
       inkscape:connector-curvature="0"
       id="path4930"
       style="fill:#ba2200;fill-opacity:1;fill-rule:nonzero;stroke:none"
       d="m 346.869,353.16 0.0133,0 0,0.0133 -0.0133,0 0,-0.0133 z" /><path
       inkscape:connector-curvature="0"
       id="path4932"
       style="fill:#ba2200;fill-opacity:1;fill-rule:nonzero;stroke:none"
       d="m 346.876,380.121 -3.79,3.263 -3.475,0 -3.79,-3.263 3.79,-3.264 3.475,0 3.79,3.264" /><path
       inkscape:connector-curvature="0"
       id="path4934"
       style="fill:none;stroke:#ba2200;stroke-width:0.50538802;stroke-linecap:round;stroke-linejoin:round;stroke-miterlimit:10;stroke-dasharray:none;stroke-opacity:1"
       d="m 346.87,380.114 0.0133,0 0,0.0133 -0.0133,0 0,-0.0133 z" /><path
       inkscape:connector-curvature="0"
       id="path4936"
       style="fill:#ba2200;fill-opacity:1;fill-rule:nonzero;stroke:none"
       d="m 346.869,380.114 0.0133,0 0,0.0129 -0.0133,0 0,-0.0129 z" /><path
       inkscape:connector-curvature="0"
       id="path4938"
       style="fill:#ba2200;fill-opacity:1;fill-rule:nonzero;stroke:none"
       d="m 346.876,285.781 -3.79,3.264 -3.475,0 -3.79,-3.264 3.79,-3.264 3.475,0 3.79,3.264" /><path
       inkscape:connector-curvature="0"
       id="path4940"
       style="fill:none;stroke:#ba2200;stroke-width:0.50538802;stroke-linecap:round;stroke-linejoin:round;stroke-miterlimit:10;stroke-dasharray:none;stroke-opacity:1"
       d="m 346.87,285.775 0.0133,0 0,0.0129 -0.0133,0 0,-0.0129 z" /><path
       inkscape:connector-curvature="0"
       id="path4942"
       style="fill:#ba2200;fill-opacity:1;fill-rule:nonzero;stroke:none"
       d="m 346.869,285.775 0.0133,0 0,0.0129 -0.0133,0 0,-0.0129 z" /><path
       inkscape:connector-curvature="0"
       id="path4944"
       style="fill:none;stroke:#ba2200;stroke-width:0.50538802;stroke-linecap:round;stroke-linejoin:round;stroke-miterlimit:10;stroke-dasharray:none;stroke-opacity:1"
       d="m 372.146,351.482 3.36914,0 0,3.36914 -3.36914,0 0,-3.36914 z" /><path
       inkscape:connector-curvature="0"
       id="path4946"
       style="fill:#ba2200;fill-opacity:1;fill-rule:nonzero;stroke:none"
       d="m 372.145,351.482 3.36914,0 0,3.36914 -3.36914,0 0,-3.36914 z" /><path
       inkscape:connector-curvature="0"
       id="path4948"
       style="fill:none;stroke:#ba2200;stroke-width:0.50538802;stroke-linecap:round;stroke-linejoin:round;stroke-miterlimit:10;stroke-dasharray:none;stroke-opacity:1"
       d="m 412.577,351.482 3.36914,0 0,3.36914 -3.36914,0 0,-3.36914 z" /><path
       inkscape:connector-curvature="0"
       id="path4950"
       style="fill:#ba2200;fill-opacity:1;fill-rule:nonzero;stroke:none"
       d="m 412.577,351.482 3.36914,0 0,3.36914 -3.36914,0 0,-3.36914 z" /><path
       inkscape:connector-curvature="0"
       id="path4952"
       style="fill:none;stroke:#ba2200;stroke-width:0.50538802;stroke-linecap:round;stroke-linejoin:round;stroke-miterlimit:10;stroke-dasharray:none;stroke-opacity:1"
       d="m 560.824,351.482 3.36914,0 0,3.36914 -3.36914,0 0,-3.36914 z" /><path
       inkscape:connector-curvature="0"
       id="path4954"
       style="fill:#ba2200;fill-opacity:1;fill-rule:nonzero;stroke:none"
       d="m 560.824,351.482 3.36914,0 0,3.36914 -3.36914,0 0,-3.36914 z" /><path
       inkscape:connector-curvature="0"
       id="path4956"
       style="fill:none;stroke:#ba2200;stroke-width:0.50538802;stroke-linecap:round;stroke-linejoin:round;stroke-miterlimit:10;stroke-dasharray:none;stroke-opacity:1"
       d="m 601.257,351.482 3.36914,0 0,3.36914 -3.36914,0 0,-3.36914 z" /><path
       inkscape:connector-curvature="0"
       id="path4958"
       style="fill:#ba2200;fill-opacity:1;fill-rule:nonzero;stroke:none"
       d="m 601.257,351.482 3.36953,0 0,3.36914 -3.36953,0 0,-3.36914 z" /><path
       inkscape:connector-curvature="0"
       id="path4960"
       style="fill:#ba2200;fill-opacity:1;fill-rule:nonzero;stroke:none"
       d="m 518.708,287.466 3.37,-1.685 -3.37,-1.684 0,3.369 z" /><path
       inkscape:connector-curvature="0"
       id="path4962"
       style="fill:none;stroke:#ba2200;stroke-width:0.50538802;stroke-linecap:round;stroke-linejoin:round;stroke-miterlimit:10;stroke-dasharray:none;stroke-opacity:1"
       d="m 520.393,263.881 3.36914,0 0,3.36914 -3.36914,0 0,-3.36914 z" /><path
       inkscape:connector-curvature="0"
       id="path4964"
       style="fill:#ba2200;fill-opacity:1;fill-rule:nonzero;stroke:none"
       d="m 520.393,263.881 3.36914,0 0,3.36914 -3.36914,0 0,-3.36914 z" /><path
       inkscape:connector-curvature="0"
       id="path4966"
       style="fill:none;stroke:#ba2200;stroke-width:0.50538802;stroke-linecap:round;stroke-linejoin:round;stroke-miterlimit:10;stroke-dasharray:none;stroke-opacity:1"
       d="m 493.439,284.097 3.36914,0 0,3.36914 -3.36914,0 0,-3.36914 z" /><path
       inkscape:connector-curvature="0"
       id="path4968"
       style="fill:#ba2200;fill-opacity:1;fill-rule:nonzero;stroke:none"
       d="m 493.439,284.097 3.36914,0 0,3.36914 -3.36914,0 0,-3.36914 z" /><path
       inkscape:connector-curvature="0"
       id="path4970"
       style="fill:none;stroke:#ba2200;stroke-width:0.50538802;stroke-linecap:round;stroke-linejoin:round;stroke-miterlimit:10;stroke-dasharray:none;stroke-opacity:1"
       d="m 520.393,304.312 3.36914,0 0,3.36914 -3.36914,0 0,-3.36914 z" /><path
       inkscape:connector-curvature="0"
       id="path4972"
       style="fill:#ba2200;fill-opacity:1;fill-rule:nonzero;stroke:none"
       d="m 520.393,304.312 3.36914,0 0,3.36914 -3.36914,0 0,-3.36914 z" /><path
       inkscape:connector-curvature="0"
       id="path4974"
       style="fill:none;stroke:#ba2200;stroke-width:0.50538802;stroke-linecap:round;stroke-linejoin:round;stroke-miterlimit:10;stroke-dasharray:none;stroke-opacity:1"
       d="m 522.025,285.729 0.10547,0 0,0.10508 -0.10547,0 0,-0.10508 z" /><path
       inkscape:connector-curvature="0"
       id="path4976"
       style="fill:#ba2200;fill-opacity:1;fill-rule:nonzero;stroke:none"
       d="m 522.025,285.729 0.10547,0 0,0.10508 -0.10547,0 0,-0.10508 z" /><path
       inkscape:connector-curvature="0"
       id="path4978"
       style="fill:#ba2200;fill-opacity:1;fill-rule:nonzero;stroke:none"
       d="m 629.894,353.166 3.791,3.264 3.473,0 3.79,-3.264 -3.79,-3.264 -3.473,0 -3.791,3.264" /><path
       inkscape:connector-curvature="0"
       id="path4980"
       style="fill:none;stroke:#ba2200;stroke-width:0.50538802;stroke-linecap:round;stroke-linejoin:round;stroke-miterlimit:10;stroke-dasharray:none;stroke-opacity:1"
       d="m 629.889,353.16 0.0133,0 0,0.0133 -0.0133,0 0,-0.0133 z" /><path
       inkscape:connector-curvature="0"
       id="path4982"
       style="fill:#ba2200;fill-opacity:1;fill-rule:nonzero;stroke:none"
       d="m 629.888,353.16 0.0133,0 0,0.0133 -0.0133,0 0,-0.0133 z" /><path
       inkscape:connector-curvature="0"
       id="path4984"
       style="fill:#ba2200;fill-opacity:1;fill-rule:nonzero;stroke:none"
       d="m 522.078,177.965 3.264,-3.79 0,-3.475 -3.264,-3.79 -3.264,3.79 0,3.475 3.264,3.79" /><path
       inkscape:connector-curvature="0"
       id="path4986"
       style="fill:none;stroke:#ba2200;stroke-width:0.50538802;stroke-linecap:round;stroke-linejoin:round;stroke-miterlimit:10;stroke-dasharray:none;stroke-opacity:1"
       d="m 522.071,177.958 0.0129,0 0,0.0133 -0.0129,0 0,-0.0133 z" /><path
       inkscape:connector-curvature="0"
       id="path4988"
       style="fill:#ba2200;fill-opacity:1;fill-rule:nonzero;stroke:none"
       d="m 522.07,177.959 0.0133,0 0,0.0129 -0.0133,0 0,-0.0129 z" /><path
       inkscape:connector-curvature="0"
       id="path4990"
       style="fill:none;stroke:#ba2200;stroke-width:0.50538802;stroke-linecap:round;stroke-linejoin:round;stroke-miterlimit:10;stroke-dasharray:none;stroke-opacity:1"
       d="m 520.393,243.666 3.36914,0 0,3.36914 -3.36914,0 0,-3.36914 z" /><path
       inkscape:connector-curvature="0"
       id="path4992"
       style="fill:#ba2200;fill-opacity:1;fill-rule:nonzero;stroke:none"
       d="m 520.393,243.666 3.36914,0 0,3.36914 -3.36914,0 0,-3.36914 z" /><path
       inkscape:connector-curvature="0"
       id="path4994"
       style="fill:none;stroke:#ba2200;stroke-width:0.50538802;stroke-linecap:round;stroke-linejoin:round;stroke-miterlimit:10;stroke-dasharray:none;stroke-opacity:1"
       d="m 520.393,203.234 3.36914,0 0,3.36914 -3.36914,0 0,-3.36914 z" /><path
       inkscape:connector-curvature="0"
       id="path4996"
       style="fill:#ba2200;fill-opacity:1;fill-rule:nonzero;stroke:none"
       d="m 520.393,203.234 3.36914,0 0,3.36914 -3.36914,0 0,-3.36914 z" /><path
       inkscape:connector-curvature="0"
       id="path4998"
       style="fill:none;stroke:#ba2200;stroke-width:0.50538802;stroke-linecap:round;stroke-linejoin:round;stroke-miterlimit:10;stroke-dasharray:none;stroke-opacity:1"
       d="m 521.235,352.324 1.68477,0 0,1.68477 -1.68477,0 0,-1.68477 z" /><path
       inkscape:connector-curvature="0"
       id="path5000"
       style="fill:#ba2200;fill-opacity:1;fill-rule:nonzero;stroke:none"
       d="m 521.235,352.324 1.68477,0 0,1.68477 -1.68477,0 0,-1.68477 z" /><path
       inkscape:connector-curvature="0"
       id="path5006"
       style="fill:none;stroke:#0044ed;stroke-width:0.50538802;stroke-linecap:round;stroke-linejoin:round;stroke-miterlimit:10;stroke-dasharray:none;stroke-opacity:1"
       d="m 474.908,353.166 47.17,0" /><path
       inkscape:connector-curvature="0"
       id="path5008"
       style="fill:none;stroke:#0044ed;stroke-width:0.50538802;stroke-linecap:round;stroke-linejoin:round;stroke-miterlimit:10;stroke-dasharray:none;stroke-opacity:1"
       d="m 522.078,353.166 0,-47.169" /><path
       inkscape:connector-curvature="0"
       id="path5010"
       style="fill:none;stroke:#0044ed;stroke-width:0.50538802;stroke-linecap:round;stroke-linejoin:round;stroke-miterlimit:10;stroke-dasharray:none;stroke-opacity:1"
       d="m 454.693,380.121 0,-26.955" /><path
       inkscape:connector-curvature="0"
       id="path5012"
       style="fill:none;stroke:#0044ed;stroke-width:0.50538802;stroke-linecap:round;stroke-linejoin:round;stroke-miterlimit:10;stroke-dasharray:none;stroke-opacity:1"
       d="m 522.078,285.781 13.477,0" /><path
       inkscape:connector-curvature="0"
       id="path5014"
       style="fill:none;stroke:#0044ed;stroke-width:0.50538802;stroke-linecap:round;stroke-linejoin:round;stroke-miterlimit:10;stroke-dasharray:none;stroke-opacity:1"
       d="m 535.555,380.121 0,-94.34" /><path
       inkscape:connector-curvature="0"
       id="path5016"
       style="fill:none;stroke:#0044ed;stroke-width:0.50538802;stroke-linecap:round;stroke-linejoin:round;stroke-miterlimit:10;stroke-dasharray:none;stroke-opacity:1"
       d="m 454.693,380.121 80.862,0" /><path
       inkscape:connector-curvature="0"
       id="path5018"
       style="fill:none;stroke:#0044ed;stroke-width:0.50538802;stroke-linecap:round;stroke-linejoin:round;stroke-miterlimit:10;stroke-dasharray:none;stroke-opacity:1"
       d="m 454.693,326.212 0,-40.431" /><path
       inkscape:connector-curvature="0"
       id="path5020"
       style="fill:none;stroke:#0044ed;stroke-width:0.50538802;stroke-linecap:round;stroke-linejoin:round;stroke-miterlimit:10;stroke-dasharray:none;stroke-opacity:1"
       d="m 454.693,285.781 40.431,0" /><path
       inkscape:connector-curvature="0"
       id="path5022"
       style="fill:none;stroke:#0044ed;stroke-width:0.50538802;stroke-linecap:round;stroke-linejoin:round;stroke-miterlimit:10;stroke-dasharray:none;stroke-opacity:1"
       d="m 522.078,353.166 40.431,0" /><path
       inkscape:connector-curvature="0"
       id="path5024"
       style="fill:none;stroke:#0044ed;stroke-width:0.50538802;stroke-linecap:round;stroke-linejoin:round;stroke-miterlimit:10;stroke-dasharray:none;stroke-opacity:1"
       d="m 602.938,353.166 33.694,0" /><path
       inkscape:connector-curvature="0"
       id="path5026"
       style="fill:none;stroke:#0044ed;stroke-width:0.50538802;stroke-linecap:round;stroke-linejoin:round;stroke-miterlimit:10;stroke-dasharray:none;stroke-opacity:1"
       d="m 414.262,353.166 20.215,0" /><path
       inkscape:connector-curvature="0"
       id="path5028"
       style="fill:none;stroke:#0044ed;stroke-width:0.50538802;stroke-linecap:round;stroke-linejoin:round;stroke-miterlimit:10;stroke-dasharray:none;stroke-opacity:1"
       d="m 522.078,265.566 0,-20.216" /><path
       inkscape:connector-curvature="0"
       id="path5030"
       style="fill:none;stroke:#0044ed;stroke-width:0.50538802;stroke-linecap:round;stroke-linejoin:round;stroke-miterlimit:10;stroke-dasharray:none;stroke-opacity:1"
       d="m 522.078,204.919 0,-33.692" /><path
       inkscape:connector-curvature="0"
       id="path5032"
       style="fill:none;stroke:#0044ed;stroke-width:0.50538802;stroke-linecap:round;stroke-linejoin:round;stroke-miterlimit:10;stroke-dasharray:none;stroke-opacity:1"
       d="m 340.138,285.781 114.555,0" /><path
       inkscape:connector-curvature="0"
       id="path5034"
       style="fill:none;stroke:#0044ed;stroke-width:0.50538802;stroke-linecap:round;stroke-linejoin:round;stroke-miterlimit:10;stroke-dasharray:none;stroke-opacity:1"
       d="m 340.138,353.166 33.692,0" /><path
       inkscape:connector-curvature="0"
       id="path5036"
       style="fill:none;stroke:#0044ed;stroke-width:0.50538802;stroke-linecap:round;stroke-linejoin:round;stroke-miterlimit:10;stroke-dasharray:none;stroke-opacity:1"
       d="m 340.138,380.121 114.555,0" /><path
       inkscape:connector-curvature="0"
       id="path5038"
       style="fill:#0044ed;fill-opacity:1;fill-rule:nonzero;stroke:none"
       d="m 457.388,380.121 c 0,1.488 -1.207,2.695 -2.695,2.695 -1.489,0 -2.696,-1.207 -2.696,-2.695 0,-1.489 1.207,-2.696 2.696,-2.696 1.488,0 2.695,1.207 2.695,2.696 l -2.695,0" /><path
       inkscape:connector-curvature="0"
       id="path5040"
       style="fill:#0044ed;fill-opacity:1;fill-rule:nonzero;stroke:none"
       d="m 524.773,353.166 c 0,1.488 -1.207,2.696 -2.695,2.696 -1.489,0 -2.696,-1.208 -2.696,-2.696 0,-1.488 1.207,-2.695 2.696,-2.695 1.488,0 2.695,1.207 2.695,2.695 l -2.695,0" /><path
       inkscape:connector-curvature="0"
       id="path5042"
       style="fill:#0044ed;fill-opacity:1;fill-rule:nonzero;stroke:none"
       d="m 457.388,285.781 c 0,1.489 -1.207,2.696 -2.695,2.696 -1.489,0 -2.696,-1.207 -2.696,-2.696 0,-1.488 1.207,-2.695 2.696,-2.695 1.488,0 2.695,1.207 2.695,2.695 l -2.695,0" /><path
       inkscape:connector-curvature="0"
       id="path5044"
       style="fill:#0044ed;fill-opacity:1;fill-rule:nonzero;stroke:none"
       d="m 457.388,380.121 c 0,1.488 -1.207,2.695 -2.695,2.695 -1.489,0 -2.696,-1.207 -2.696,-2.695 0,-1.489 1.207,-2.696 2.696,-2.696 1.488,0 2.695,1.207 2.695,2.696 l -2.695,0" /><path
       inkscape:connector-curvature="0"
       id="path5046"
       style="fill:#0044ed;fill-opacity:1;fill-rule:nonzero;stroke:none"
       d="m 457.388,380.121 c 0,1.488 -1.207,2.695 -2.695,2.695 -1.489,0 -2.696,-1.207 -2.696,-2.695 0,-1.489 1.207,-2.696 2.696,-2.696 1.488,0 2.695,1.207 2.695,2.696 l -2.695,0" /><path
       inkscape:connector-curvature="0"
       id="path5048"
       style="fill:#0044ed;fill-opacity:1;fill-rule:nonzero;stroke:none"
       d="m 524.773,353.166 c 0,1.488 -1.207,2.696 -2.695,2.696 -1.489,0 -2.696,-1.208 -2.696,-2.696 0,-1.488 1.207,-2.695 2.696,-2.695 1.488,0 2.695,1.207 2.695,2.695 l -2.695,0" /><path
       inkscape:connector-curvature="0"
       id="path5050"
       style="fill:#0044ed;fill-opacity:1;fill-rule:nonzero;stroke:none"
       d="m 524.773,353.166 c 0,1.488 -1.207,2.696 -2.695,2.696 -1.489,0 -2.696,-1.208 -2.696,-2.696 0,-1.488 1.207,-2.695 2.696,-2.695 1.488,0 2.695,1.207 2.695,2.695 l -2.695,0" /><path
       inkscape:connector-curvature="0"
       id="path5052"
       style="fill:#0044ed;fill-opacity:1;fill-rule:nonzero;stroke:none"
       d="m 457.388,285.781 c 0,1.489 -1.207,2.696 -2.695,2.696 -1.489,0 -2.696,-1.207 -2.696,-2.696 0,-1.488 1.207,-2.695 2.696,-2.695 1.488,0 2.695,1.207 2.695,2.695 l -2.695,0" /><path
       inkscape:connector-curvature="0"
       id="path5054"
       style="fill:#0044ed;fill-opacity:1;fill-rule:nonzero;stroke:none"
       d="m 457.388,285.781 c 0,1.489 -1.207,2.696 -2.695,2.696 -1.489,0 -2.696,-1.207 -2.696,-2.696 0,-1.488 1.207,-2.695 2.696,-2.695 1.488,0 2.695,1.207 2.695,2.695 l -2.695,0" /></g></svg>